<?xml version="1.0" encoding="UTF-8"?>
<svg xmlns="http://www.w3.org/2000/svg" xmlns:xlink="http://www.w3.org/1999/xlink" width="756pt" height="504pt" viewBox="0 0 756 504" version="1.1">
<g id="surface14">
<rect x="0" y="0" width="756" height="504" style="fill:rgb(100%,100%,100%);fill-opacity:1;stroke:none;"/>
<path style="fill-rule:nonzero;fill:rgb(99.607843%,65.490196%,44.705882%);fill-opacity:1;stroke-width:0.426791;stroke-linecap:square;stroke-linejoin:miter;stroke:rgb(100%,100%,100%);stroke-opacity:1;stroke-miterlimit:10;" d="M 34.363281 481.089844 L 110.726562 481.089844 L 110.726562 404.726562 L 34.363281 404.726562 Z M 34.363281 481.089844 "/>
<path style="fill-rule:nonzero;fill:rgb(99.607843%,82.745098%,58.431373%);fill-opacity:1;stroke-width:0.426791;stroke-linecap:square;stroke-linejoin:miter;stroke:rgb(100%,100%,100%);stroke-opacity:1;stroke-miterlimit:10;" d="M 110.726562 481.089844 L 187.089844 481.089844 L 187.089844 404.726562 L 110.726562 404.726562 Z M 110.726562 481.089844 "/>
<path style="fill-rule:nonzero;fill:rgb(98.823529%,56.078431%,39.607843%);fill-opacity:1;stroke-width:0.426791;stroke-linecap:square;stroke-linejoin:miter;stroke:rgb(100%,100%,100%);stroke-opacity:1;stroke-miterlimit:10;" d="M 187.089844 481.089844 L 263.453125 481.089844 L 263.453125 404.726562 L 187.089844 404.726562 Z M 187.089844 481.089844 "/>
<path style="fill-rule:nonzero;fill:rgb(95.294118%,39.607843%,36.078431%);fill-opacity:1;stroke-width:0.426791;stroke-linecap:square;stroke-linejoin:miter;stroke:rgb(100%,100%,100%);stroke-opacity:1;stroke-miterlimit:10;" d="M 263.453125 481.089844 L 339.816406 481.089844 L 339.816406 404.726562 L 263.453125 404.726562 Z M 263.453125 481.089844 "/>
<path style="fill-rule:nonzero;fill:rgb(90.980392%,32.54902%,38.431373%);fill-opacity:1;stroke-width:0.426791;stroke-linecap:square;stroke-linejoin:miter;stroke:rgb(100%,100%,100%);stroke-opacity:1;stroke-miterlimit:10;" d="M 339.816406 481.089844 L 416.179688 481.089844 L 416.179688 404.726562 L 339.816406 404.726562 Z M 339.816406 481.089844 "/>
<path style="fill-rule:nonzero;fill:rgb(87.843137%,29.411765%,40.392157%);fill-opacity:1;stroke-width:0.426791;stroke-linecap:square;stroke-linejoin:miter;stroke:rgb(100%,100%,100%);stroke-opacity:1;stroke-miterlimit:10;" d="M 416.183594 481.089844 L 492.546875 481.089844 L 492.546875 404.726562 L 416.183594 404.726562 Z M 416.183594 481.089844 "/>
<path style="fill-rule:nonzero;fill:rgb(55.686275%,16.470588%,50.588235%);fill-opacity:1;stroke-width:0.426791;stroke-linecap:square;stroke-linejoin:miter;stroke:rgb(100%,100%,100%);stroke-opacity:1;stroke-miterlimit:10;" d="M 492.546875 481.089844 L 568.910156 481.089844 L 568.910156 404.726562 L 492.546875 404.726562 Z M 492.546875 481.089844 "/>
<path style="fill-rule:nonzero;fill:rgb(66.666667%,20%,49.019608%);fill-opacity:1;stroke-width:0.426791;stroke-linecap:square;stroke-linejoin:miter;stroke:rgb(100%,100%,100%);stroke-opacity:1;stroke-miterlimit:10;" d="M 568.910156 481.089844 L 645.273438 481.089844 L 645.273438 404.726562 L 568.910156 404.726562 Z M 568.910156 481.089844 "/>
<path style="fill-rule:nonzero;fill:rgb(28.235294%,6.27451%,47.058824%);fill-opacity:1;stroke-width:0.426791;stroke-linecap:square;stroke-linejoin:miter;stroke:rgb(100%,100%,100%);stroke-opacity:1;stroke-miterlimit:10;" d="M 645.273438 481.089844 L 721.636719 481.089844 L 721.636719 404.726562 L 645.273438 404.726562 Z M 645.273438 481.089844 "/>
<path style="fill-rule:nonzero;fill:rgb(99.607843%,75.294118%,52.156863%);fill-opacity:1;stroke-width:0.426791;stroke-linecap:square;stroke-linejoin:miter;stroke:rgb(100%,100%,100%);stroke-opacity:1;stroke-miterlimit:10;" d="M 34.363281 404.726562 L 110.726562 404.726562 L 110.726562 328.363281 L 34.363281 328.363281 Z M 34.363281 404.726562 "/>
<path style="fill-rule:nonzero;fill:rgb(96.078431%,41.568627%,36.078431%);fill-opacity:1;stroke-width:0.426791;stroke-linecap:square;stroke-linejoin:miter;stroke:rgb(100%,100%,100%);stroke-opacity:1;stroke-miterlimit:10;" d="M 110.726562 404.726562 L 187.089844 404.726562 L 187.089844 328.363281 L 110.726562 328.363281 Z M 110.726562 404.726562 "/>
<path style="fill-rule:nonzero;fill:rgb(77.647059%,23.921569%,45.098039%);fill-opacity:1;stroke-width:0.426791;stroke-linecap:square;stroke-linejoin:miter;stroke:rgb(100%,100%,100%);stroke-opacity:1;stroke-miterlimit:10;" d="M 187.089844 404.726562 L 263.453125 404.726562 L 263.453125 328.363281 L 187.089844 328.363281 Z M 187.089844 404.726562 "/>
<path style="fill-rule:nonzero;fill:rgb(99.215686%,58.431373%,40.784314%);fill-opacity:1;stroke-width:0.426791;stroke-linecap:square;stroke-linejoin:miter;stroke:rgb(100%,100%,100%);stroke-opacity:1;stroke-miterlimit:10;" d="M 263.453125 404.726562 L 339.816406 404.726562 L 339.816406 328.363281 L 263.453125 328.363281 Z M 263.453125 404.726562 "/>
<path style="fill-rule:nonzero;fill:rgb(89.411765%,30.980392%,39.215686%);fill-opacity:1;stroke-width:0.426791;stroke-linecap:square;stroke-linejoin:miter;stroke:rgb(100%,100%,100%);stroke-opacity:1;stroke-miterlimit:10;" d="M 339.816406 404.726562 L 416.179688 404.726562 L 416.179688 328.363281 L 339.816406 328.363281 Z M 339.816406 404.726562 "/>
<path style="fill-rule:nonzero;fill:rgb(78.039216%,23.921569%,45.098039%);fill-opacity:1;stroke-width:0.426791;stroke-linecap:square;stroke-linejoin:miter;stroke:rgb(100%,100%,100%);stroke-opacity:1;stroke-miterlimit:10;" d="M 416.183594 404.726562 L 492.546875 404.726562 L 492.546875 328.363281 L 416.183594 328.363281 Z M 416.183594 404.726562 "/>
<path style="fill-rule:nonzero;fill:rgb(56.862745%,16.862745%,50.588235%);fill-opacity:1;stroke-width:0.426791;stroke-linecap:square;stroke-linejoin:miter;stroke:rgb(100%,100%,100%);stroke-opacity:1;stroke-miterlimit:10;" d="M 492.546875 404.726562 L 568.910156 404.726562 L 568.910156 328.363281 L 492.546875 328.363281 Z M 492.546875 404.726562 "/>
<path style="fill-rule:nonzero;fill:rgb(58.431373%,17.254902%,50.196078%);fill-opacity:1;stroke-width:0.426791;stroke-linecap:square;stroke-linejoin:miter;stroke:rgb(100%,100%,100%);stroke-opacity:1;stroke-miterlimit:10;" d="M 568.910156 404.726562 L 645.273438 404.726562 L 645.273438 328.363281 L 568.910156 328.363281 Z M 568.910156 404.726562 "/>
<path style="fill-rule:nonzero;fill:rgb(79.607843%,24.705882%,44.313725%);fill-opacity:1;stroke-width:0.426791;stroke-linecap:square;stroke-linejoin:miter;stroke:rgb(100%,100%,100%);stroke-opacity:1;stroke-miterlimit:10;" d="M 645.273438 404.726562 L 721.636719 404.726562 L 721.636719 328.363281 L 645.273438 328.363281 Z M 645.273438 404.726562 "/>
<path style="fill-rule:nonzero;fill:rgb(98.823529%,99.215686%,74.901961%);fill-opacity:1;stroke-width:0.426791;stroke-linecap:square;stroke-linejoin:miter;stroke:rgb(100%,100%,100%);stroke-opacity:1;stroke-miterlimit:10;" d="M 34.363281 328.363281 L 110.726562 328.363281 L 110.726562 252 L 34.363281 252 Z M 34.363281 328.363281 "/>
<path style="fill-rule:nonzero;fill:rgb(89.411765%,30.980392%,39.215686%);fill-opacity:1;stroke-width:0.426791;stroke-linecap:square;stroke-linejoin:miter;stroke:rgb(100%,100%,100%);stroke-opacity:1;stroke-miterlimit:10;" d="M 110.726562 328.363281 L 187.089844 328.363281 L 187.089844 252 L 110.726562 252 Z M 110.726562 328.363281 "/>
<path style="fill-rule:nonzero;fill:rgb(96.078431%,41.960784%,36.078431%);fill-opacity:1;stroke-width:0.426791;stroke-linecap:square;stroke-linejoin:miter;stroke:rgb(100%,100%,100%);stroke-opacity:1;stroke-miterlimit:10;" d="M 187.089844 328.363281 L 263.453125 328.363281 L 263.453125 252 L 187.089844 252 Z M 187.089844 328.363281 "/>
<path style="fill-rule:nonzero;fill:rgb(98.431373%,52.156863%,37.647059%);fill-opacity:1;stroke-width:0.426791;stroke-linecap:square;stroke-linejoin:miter;stroke:rgb(100%,100%,100%);stroke-opacity:1;stroke-miterlimit:10;" d="M 263.453125 328.363281 L 339.816406 328.363281 L 339.816406 252 L 263.453125 252 Z M 263.453125 328.363281 "/>
<path style="fill-rule:nonzero;fill:rgb(78.431373%,24.313725%,45.098039%);fill-opacity:1;stroke-width:0.426791;stroke-linecap:square;stroke-linejoin:miter;stroke:rgb(100%,100%,100%);stroke-opacity:1;stroke-miterlimit:10;" d="M 339.816406 328.363281 L 416.179688 328.363281 L 416.179688 252 L 339.816406 252 Z M 339.816406 328.363281 "/>
<path style="fill-rule:nonzero;fill:rgb(49.019608%,14.117647%,50.980392%);fill-opacity:1;stroke-width:0.426791;stroke-linecap:square;stroke-linejoin:miter;stroke:rgb(100%,100%,100%);stroke-opacity:1;stroke-miterlimit:10;" d="M 416.183594 328.363281 L 492.546875 328.363281 L 492.546875 252 L 416.183594 252 Z M 416.183594 328.363281 "/>
<path style="fill-rule:nonzero;fill:rgb(29.803922%,6.666667%,47.843137%);fill-opacity:1;stroke-width:0.426791;stroke-linecap:square;stroke-linejoin:miter;stroke:rgb(100%,100%,100%);stroke-opacity:1;stroke-miterlimit:10;" d="M 492.546875 328.363281 L 568.910156 328.363281 L 568.910156 252 L 492.546875 252 Z M 492.546875 328.363281 "/>
<path style="fill-rule:nonzero;fill:rgb(49.803922%,14.509804%,50.980392%);fill-opacity:1;stroke-width:0.426791;stroke-linecap:square;stroke-linejoin:miter;stroke:rgb(100%,100%,100%);stroke-opacity:1;stroke-miterlimit:10;" d="M 568.910156 328.363281 L 645.273438 328.363281 L 645.273438 252 L 568.910156 252 Z M 568.910156 328.363281 "/>
<path style="fill-rule:nonzero;fill:rgb(37.254902%,9.411765%,49.803922%);fill-opacity:1;stroke-width:0.426791;stroke-linecap:square;stroke-linejoin:miter;stroke:rgb(100%,100%,100%);stroke-opacity:1;stroke-miterlimit:10;" d="M 645.273438 328.363281 L 721.636719 328.363281 L 721.636719 252 L 645.273438 252 Z M 645.273438 328.363281 "/>
<path style="fill-rule:nonzero;fill:rgb(99.607843%,76.470588%,53.333333%);fill-opacity:1;stroke-width:0.426791;stroke-linecap:square;stroke-linejoin:miter;stroke:rgb(100%,100%,100%);stroke-opacity:1;stroke-miterlimit:10;" d="M 34.363281 252 L 110.726562 252 L 110.726562 175.636719 L 34.363281 175.636719 Z M 34.363281 252 "/>
<path style="fill-rule:nonzero;fill:rgb(90.196078%,31.764706%,39.215686%);fill-opacity:1;stroke-width:0.426791;stroke-linecap:square;stroke-linejoin:miter;stroke:rgb(100%,100%,100%);stroke-opacity:1;stroke-miterlimit:10;" d="M 110.726562 252 L 187.089844 252 L 187.089844 175.636719 L 110.726562 175.636719 Z M 110.726562 252 "/>
<path style="fill-rule:nonzero;fill:rgb(92.941176%,35.294118%,37.254902%);fill-opacity:1;stroke-width:0.426791;stroke-linecap:square;stroke-linejoin:miter;stroke:rgb(100%,100%,100%);stroke-opacity:1;stroke-miterlimit:10;" d="M 187.089844 252 L 263.453125 252 L 263.453125 175.636719 L 187.089844 175.636719 Z M 187.089844 252 "/>
<path style="fill-rule:nonzero;fill:rgb(70.196078%,21.176471%,47.843137%);fill-opacity:1;stroke-width:0.426791;stroke-linecap:square;stroke-linejoin:miter;stroke:rgb(100%,100%,100%);stroke-opacity:1;stroke-miterlimit:10;" d="M 263.453125 252 L 339.816406 252 L 339.816406 175.636719 L 263.453125 175.636719 Z M 263.453125 252 "/>
<path style="fill-rule:nonzero;fill:rgb(56.078431%,16.470588%,50.588235%);fill-opacity:1;stroke-width:0.426791;stroke-linecap:square;stroke-linejoin:miter;stroke:rgb(100%,100%,100%);stroke-opacity:1;stroke-miterlimit:10;" d="M 339.816406 252 L 416.179688 252 L 416.179688 175.636719 L 339.816406 175.636719 Z M 339.816406 252 "/>
<path style="fill-rule:nonzero;fill:rgb(41.176471%,10.980392%,50.588235%);fill-opacity:1;stroke-width:0.426791;stroke-linecap:square;stroke-linejoin:miter;stroke:rgb(100%,100%,100%);stroke-opacity:1;stroke-miterlimit:10;" d="M 416.183594 252 L 492.546875 252 L 492.546875 175.636719 L 416.183594 175.636719 Z M 416.183594 252 "/>
<path style="fill-rule:nonzero;fill:rgb(52.156863%,14.901961%,50.588235%);fill-opacity:1;stroke-width:0.426791;stroke-linecap:square;stroke-linejoin:miter;stroke:rgb(100%,100%,100%);stroke-opacity:1;stroke-miterlimit:10;" d="M 492.546875 252 L 568.910156 252 L 568.910156 175.636719 L 492.546875 175.636719 Z M 492.546875 252 "/>
<path style="fill-rule:nonzero;fill:rgb(27.058824%,6.27451%,46.666667%);fill-opacity:1;stroke-width:0.426791;stroke-linecap:square;stroke-linejoin:miter;stroke:rgb(100%,100%,100%);stroke-opacity:1;stroke-miterlimit:10;" d="M 568.910156 252 L 645.273438 252 L 645.273438 175.636719 L 568.910156 175.636719 Z M 568.910156 252 "/>
<path style="fill-rule:nonzero;fill:rgb(45.882353%,12.941176%,50.588235%);fill-opacity:1;stroke-width:0.426791;stroke-linecap:square;stroke-linejoin:miter;stroke:rgb(100%,100%,100%);stroke-opacity:1;stroke-miterlimit:10;" d="M 645.273438 252 L 721.636719 252 L 721.636719 175.636719 L 645.273438 175.636719 Z M 645.273438 252 "/>
<path style="fill-rule:nonzero;fill:rgb(98.039216%,49.019608%,36.862745%);fill-opacity:1;stroke-width:0.426791;stroke-linecap:square;stroke-linejoin:miter;stroke:rgb(100%,100%,100%);stroke-opacity:1;stroke-miterlimit:10;" d="M 34.363281 175.636719 L 110.726562 175.636719 L 110.726562 99.273438 L 34.363281 99.273438 Z M 34.363281 175.636719 "/>
<path style="fill-rule:nonzero;fill:rgb(94.509804%,38.039216%,36.470588%);fill-opacity:1;stroke-width:0.426791;stroke-linecap:square;stroke-linejoin:miter;stroke:rgb(100%,100%,100%);stroke-opacity:1;stroke-miterlimit:10;" d="M 110.726562 175.636719 L 187.089844 175.636719 L 187.089844 99.273438 L 110.726562 99.273438 Z M 110.726562 175.636719 "/>
<path style="fill-rule:nonzero;fill:rgb(98.039216%,49.411765%,36.862745%);fill-opacity:1;stroke-width:0.426791;stroke-linecap:square;stroke-linejoin:miter;stroke:rgb(100%,100%,100%);stroke-opacity:1;stroke-miterlimit:10;" d="M 187.089844 175.636719 L 263.453125 175.636719 L 263.453125 99.273438 L 187.089844 99.273438 Z M 187.089844 175.636719 "/>
<path style="fill-rule:nonzero;fill:rgb(65.098039%,19.215686%,49.019608%);fill-opacity:1;stroke-width:0.426791;stroke-linecap:square;stroke-linejoin:miter;stroke:rgb(100%,100%,100%);stroke-opacity:1;stroke-miterlimit:10;" d="M 263.453125 175.636719 L 339.816406 175.636719 L 339.816406 99.273438 L 263.453125 99.273438 Z M 263.453125 175.636719 "/>
<path style="fill-rule:nonzero;fill:rgb(51.764706%,14.901961%,50.588235%);fill-opacity:1;stroke-width:0.426791;stroke-linecap:square;stroke-linejoin:miter;stroke:rgb(100%,100%,100%);stroke-opacity:1;stroke-miterlimit:10;" d="M 339.816406 175.636719 L 416.179688 175.636719 L 416.179688 99.273438 L 339.816406 99.273438 Z M 339.816406 175.636719 "/>
<path style="fill-rule:nonzero;fill:rgb(48.627451%,13.72549%,50.980392%);fill-opacity:1;stroke-width:0.426791;stroke-linecap:square;stroke-linejoin:miter;stroke:rgb(100%,100%,100%);stroke-opacity:1;stroke-miterlimit:10;" d="M 416.183594 175.636719 L 492.546875 175.636719 L 492.546875 99.273438 L 416.183594 99.273438 Z M 416.183594 175.636719 "/>
<path style="fill-rule:nonzero;fill:rgb(23.529412%,5.882353%,43.921569%);fill-opacity:1;stroke-width:0.426791;stroke-linecap:square;stroke-linejoin:miter;stroke:rgb(100%,100%,100%);stroke-opacity:1;stroke-miterlimit:10;" d="M 492.546875 175.636719 L 568.910156 175.636719 L 568.910156 99.273438 L 492.546875 99.273438 Z M 492.546875 175.636719 "/>
<path style="fill-rule:nonzero;fill:rgb(32.941176%,7.45098%,49.019608%);fill-opacity:1;stroke-width:0.426791;stroke-linecap:square;stroke-linejoin:miter;stroke:rgb(100%,100%,100%);stroke-opacity:1;stroke-miterlimit:10;" d="M 568.910156 175.636719 L 645.273438 175.636719 L 645.273438 99.273438 L 568.910156 99.273438 Z M 568.910156 175.636719 "/>
<path style="fill-rule:nonzero;fill:rgb(30.588235%,6.666667%,48.235294%);fill-opacity:1;stroke-width:0.426791;stroke-linecap:square;stroke-linejoin:miter;stroke:rgb(100%,100%,100%);stroke-opacity:1;stroke-miterlimit:10;" d="M 645.273438 175.636719 L 721.636719 175.636719 L 721.636719 99.273438 L 645.273438 99.273438 Z M 645.273438 175.636719 "/>
<path style="fill-rule:nonzero;fill:rgb(81.176471%,25.098039%,43.921569%);fill-opacity:1;stroke-width:0.426791;stroke-linecap:square;stroke-linejoin:miter;stroke:rgb(100%,100%,100%);stroke-opacity:1;stroke-miterlimit:10;" d="M 34.363281 99.273438 L 110.726562 99.273438 L 110.726562 22.910156 L 34.363281 22.910156 Z M 34.363281 99.273438 "/>
<path style="fill-rule:nonzero;fill:rgb(86.666667%,28.627451%,40.784314%);fill-opacity:1;stroke-width:0.426791;stroke-linecap:square;stroke-linejoin:miter;stroke:rgb(100%,100%,100%);stroke-opacity:1;stroke-miterlimit:10;" d="M 110.726562 99.273438 L 187.089844 99.273438 L 187.089844 22.910156 L 110.726562 22.910156 Z M 110.726562 99.273438 "/>
<path style="fill-rule:nonzero;fill:rgb(46.27451%,12.941176%,50.588235%);fill-opacity:1;stroke-width:0.426791;stroke-linecap:square;stroke-linejoin:miter;stroke:rgb(100%,100%,100%);stroke-opacity:1;stroke-miterlimit:10;" d="M 187.089844 99.273438 L 263.453125 99.273438 L 263.453125 22.910156 L 187.089844 22.910156 Z M 187.089844 99.273438 "/>
<path style="fill-rule:nonzero;fill:rgb(60.392157%,18.039216%,49.803922%);fill-opacity:1;stroke-width:0.426791;stroke-linecap:square;stroke-linejoin:miter;stroke:rgb(100%,100%,100%);stroke-opacity:1;stroke-miterlimit:10;" d="M 263.453125 99.273438 L 339.816406 99.273438 L 339.816406 22.910156 L 263.453125 22.910156 Z M 263.453125 99.273438 "/>
<path style="fill-rule:nonzero;fill:rgb(35.686275%,8.627451%,49.411765%);fill-opacity:1;stroke-width:0.426791;stroke-linecap:square;stroke-linejoin:miter;stroke:rgb(100%,100%,100%);stroke-opacity:1;stroke-miterlimit:10;" d="M 339.816406 99.273438 L 416.179688 99.273438 L 416.179688 22.910156 L 339.816406 22.910156 Z M 339.816406 99.273438 "/>
<path style="fill-rule:nonzero;fill:rgb(29.411765%,6.666667%,47.843137%);fill-opacity:1;stroke-width:0.426791;stroke-linecap:square;stroke-linejoin:miter;stroke:rgb(100%,100%,100%);stroke-opacity:1;stroke-miterlimit:10;" d="M 416.183594 99.273438 L 492.546875 99.273438 L 492.546875 22.910156 L 416.183594 22.910156 Z M 416.183594 99.273438 "/>
<path style="fill-rule:nonzero;fill:rgb(33.72549%,7.843137%,49.019608%);fill-opacity:1;stroke-width:0.426791;stroke-linecap:square;stroke-linejoin:miter;stroke:rgb(100%,100%,100%);stroke-opacity:1;stroke-miterlimit:10;" d="M 492.546875 99.273438 L 568.910156 99.273438 L 568.910156 22.910156 L 492.546875 22.910156 Z M 492.546875 99.273438 "/>
<path style="fill-rule:nonzero;fill:rgb(0%,0%,1.568627%);fill-opacity:1;stroke-width:0.426791;stroke-linecap:square;stroke-linejoin:miter;stroke:rgb(100%,100%,100%);stroke-opacity:1;stroke-miterlimit:10;" d="M 568.910156 99.273438 L 645.273438 99.273438 L 645.273438 22.910156 L 568.910156 22.910156 Z M 568.910156 99.273438 "/>
<path style="fill-rule:nonzero;fill:rgb(0.392157%,0.392157%,3.137255%);fill-opacity:1;stroke-width:0.426791;stroke-linecap:square;stroke-linejoin:miter;stroke:rgb(100%,100%,100%);stroke-opacity:1;stroke-miterlimit:10;" d="M 645.273438 99.273438 L 721.636719 99.273438 L 721.636719 22.910156 L 645.273438 22.910156 Z M 645.273438 99.273438 "/>
</g>
</svg>
