<?xml version="1.0" encoding="UTF-8"?>
<svg xmlns="http://www.w3.org/2000/svg" xmlns:xlink="http://www.w3.org/1999/xlink" width="756pt" height="432pt" viewBox="0 0 756 432" version="1.1">
<g id="surface134">
<rect x="0" y="0" width="756" height="432" style="fill:rgb(100%,100%,100%);fill-opacity:1;stroke:none;"/>
<path style="fill:none;stroke-width:1.066978;stroke-linecap:butt;stroke-linejoin:round;stroke:rgb(100%,91.372549%,26.666667%);stroke-opacity:0.8;stroke-miterlimit:10;" d="M 352.585938 224.101562 L 352.585938 249.332031 "/>
<path style="fill:none;stroke-width:1.066978;stroke-linecap:butt;stroke-linejoin:round;stroke:rgb(59.607843%,57.254902%,47.058824%);stroke-opacity:0.8;stroke-miterlimit:10;" d="M 131.203125 359.765625 L 131.203125 144.707031 "/>
<path style="fill:none;stroke-width:1.066978;stroke-linecap:butt;stroke-linejoin:round;stroke:rgb(98.431373%,88.627451%,28.235294%);stroke-opacity:0.8;stroke-miterlimit:10;" d="M 453.394531 234.6875 L 453.394531 296.972656 "/>
<path style="fill:none;stroke-width:1.066978;stroke-linecap:butt;stroke-linejoin:round;stroke:rgb(95.686275%,86.27451%,30.588235%);stroke-opacity:0.8;stroke-miterlimit:10;" d="M 330.109375 320.460938 L 330.109375 238.710938 "/>
<path style="fill:none;stroke-width:1.066978;stroke-linecap:butt;stroke-linejoin:round;stroke:rgb(82.745098%,75.686275%,39.607843%);stroke-opacity:0.8;stroke-miterlimit:10;" d="M 224.695312 330 L 224.695312 188.894531 "/>
<path style="fill:none;stroke-width:1.066978;stroke-linecap:butt;stroke-linejoin:round;stroke:rgb(100%,91.764706%,27.45098%);stroke-opacity:0.8;stroke-miterlimit:10;" d="M 390.730469 259.679688 L 390.730469 267.359375 "/>
<path style="fill:none;stroke-width:1.066978;stroke-linecap:butt;stroke-linejoin:round;stroke:rgb(97.647059%,87.843137%,29.019608%);stroke-opacity:0.8;stroke-miterlimit:10;" d="M 317.214844 163.882812 L 317.214844 232.617188 "/>
<path style="fill:none;stroke-width:1.066978;stroke-linecap:butt;stroke-linejoin:round;stroke:rgb(100%,90.196078%,25.882353%);stroke-opacity:0.8;stroke-miterlimit:10;" d="M 271.722656 170.070312 L 271.722656 211.117188 "/>
<path style="fill:none;stroke-width:1.066978;stroke-linecap:butt;stroke-linejoin:round;stroke:rgb(89.411765%,81.176471%,35.686275%);stroke-opacity:0.8;stroke-miterlimit:10;" d="M 477.886719 193.890625 L 477.886719 308.550781 "/>
<path style="fill:none;stroke-width:1.066978;stroke-linecap:butt;stroke-linejoin:round;stroke:rgb(78.039216%,71.764706%,41.960784%);stroke-opacity:0.8;stroke-miterlimit:10;" d="M 580.757812 197.820312 L 580.757812 357.167969 "/>
<path style="fill:none;stroke-width:1.066978;stroke-linecap:butt;stroke-linejoin:round;stroke:rgb(81.960784%,74.901961%,40%);stroke-opacity:0.8;stroke-miterlimit:10;" d="M 236.289062 339.664062 L 236.289062 194.371094 "/>
<path style="fill:none;stroke-width:1.066978;stroke-linecap:butt;stroke-linejoin:round;stroke:rgb(83.529412%,76.470588%,39.215686%);stroke-opacity:0.8;stroke-miterlimit:10;" d="M 239.476562 334.515625 L 239.476562 195.878906 "/>
<path style="fill:none;stroke-width:1.066978;stroke-linecap:butt;stroke-linejoin:round;stroke:rgb(96.470588%,86.666667%,30.196078%);stroke-opacity:0.8;stroke-miterlimit:10;" d="M 389.136719 189.882812 L 389.136719 266.605469 "/>
<path style="fill:none;stroke-width:1.066978;stroke-linecap:butt;stroke-linejoin:round;stroke:rgb(100%,90.588235%,25.882353%);stroke-opacity:0.8;stroke-miterlimit:10;" d="M 313.089844 190.984375 L 313.089844 230.667969 "/>
<path style="fill:none;stroke-width:1.066978;stroke-linecap:butt;stroke-linejoin:round;stroke:rgb(94.509804%,85.098039%,31.764706%);stroke-opacity:0.8;stroke-miterlimit:10;" d="M 499.882812 231.195312 L 499.882812 318.945312 "/>
<path style="fill:none;stroke-width:1.066978;stroke-linecap:butt;stroke-linejoin:round;stroke:rgb(100%,91.764706%,27.45098%);stroke-opacity:0.8;stroke-miterlimit:10;" d="M 229.804688 200.746094 L 229.804688 191.308594 "/>
<path style="fill:none;stroke-width:1.066978;stroke-linecap:butt;stroke-linejoin:round;stroke:rgb(100%,89.803922%,26.27451%);stroke-opacity:0.8;stroke-miterlimit:10;" d="M 406.515625 228.824219 L 406.515625 274.820312 "/>
<path style="fill:none;stroke-width:1.066978;stroke-linecap:butt;stroke-linejoin:round;stroke:rgb(100%,90.980392%,26.27451%);stroke-opacity:0.8;stroke-miterlimit:10;" d="M 497.175781 288.320312 L 497.175781 317.664062 "/>
<path style="fill:none;stroke-width:1.066978;stroke-linecap:butt;stroke-linejoin:round;stroke:rgb(35.686275%,37.647059%,43.137255%);stroke-opacity:0.8;stroke-miterlimit:10;" d="M 721.105469 146.390625 L 721.105469 423.492188 "/>
<path style="fill:none;stroke-width:1.066978;stroke-linecap:butt;stroke-linejoin:round;stroke:rgb(100%,90.980392%,26.27451%);stroke-opacity:0.8;stroke-miterlimit:10;" d="M 367.855469 223.335938 L 367.855469 256.546875 "/>
<path style="fill:none;stroke-width:1.066978;stroke-linecap:butt;stroke-linejoin:round;stroke:rgb(94.509804%,85.098039%,31.764706%);stroke-opacity:0.8;stroke-miterlimit:10;" d="M 518.175781 239.25 L 518.175781 327.589844 "/>
<path style="fill:none;stroke-width:1.066978;stroke-linecap:butt;stroke-linejoin:round;stroke:rgb(100%,91.764706%,27.058824%);stroke-opacity:0.8;stroke-miterlimit:10;" d="M 408.382812 264.453125 L 408.382812 275.703125 "/>
<path style="fill:none;stroke-width:1.066978;stroke-linecap:butt;stroke-linejoin:round;stroke:rgb(92.54902%,83.529412%,33.333333%);stroke-opacity:0.8;stroke-miterlimit:10;" d="M 374.066406 161.421875 L 374.066406 259.484375 "/>
<path style="fill:none;stroke-width:1.066978;stroke-linecap:butt;stroke-linejoin:round;stroke:rgb(95.294118%,85.882353%,30.980392%);stroke-opacity:0.8;stroke-miterlimit:10;" d="M 350.90625 164.691406 L 350.90625 248.539062 "/>
<path style="fill:none;stroke-width:1.066978;stroke-linecap:butt;stroke-linejoin:round;stroke:rgb(55.686275%,54.117647%,47.45098%);stroke-opacity:0.8;stroke-miterlimit:10;" d="M 487.339844 87.574219 L 487.339844 313.015625 "/>
<path style="fill:none;stroke-width:1.066978;stroke-linecap:butt;stroke-linejoin:round;stroke:rgb(98.431373%,88.627451%,28.235294%);stroke-opacity:0.8;stroke-miterlimit:10;" d="M 355.9375 312.871094 L 355.9375 250.917969 "/>
<path style="fill:none;stroke-width:1.066978;stroke-linecap:butt;stroke-linejoin:round;stroke:rgb(100%,90.980392%,26.27451%);stroke-opacity:0.8;stroke-miterlimit:10;" d="M 300.707031 254.179688 L 300.707031 224.816406 "/>
<path style="fill:none;stroke-width:1.066978;stroke-linecap:butt;stroke-linejoin:round;stroke:rgb(100%,91.764706%,27.058824%);stroke-opacity:0.8;stroke-miterlimit:10;" d="M 260.382812 219.378906 L 260.382812 205.757812 "/>
<path style="fill:none;stroke-width:1.066978;stroke-linecap:butt;stroke-linejoin:round;stroke:rgb(83.137255%,76.078431%,39.215686%);stroke-opacity:0.8;stroke-miterlimit:10;" d="M 84.6875 263.160156 L 84.6875 122.726562 "/>
<path style="fill:none;stroke-width:1.066978;stroke-linecap:butt;stroke-linejoin:round;stroke:rgb(89.411765%,81.176471%,35.686275%);stroke-opacity:0.8;stroke-miterlimit:10;" d="M 495.824219 203.765625 L 495.824219 317.027344 "/>
<path style="fill:none;stroke-width:1.066978;stroke-linecap:butt;stroke-linejoin:round;stroke:rgb(98.039216%,88.235294%,28.627451%);stroke-opacity:0.8;stroke-miterlimit:10;" d="M 298.5625 158.117188 L 298.5625 223.800781 "/>
<path style="fill:none;stroke-width:1.066978;stroke-linecap:butt;stroke-linejoin:round;stroke:rgb(51.764706%,50.980392%,47.45098%);stroke-opacity:0.8;stroke-miterlimit:10;" d="M 425.722656 48.933594 L 425.722656 283.898438 "/>
<path style="fill:none;stroke-width:1.066978;stroke-linecap:butt;stroke-linejoin:round;stroke:rgb(94.901961%,85.490196%,31.372549%);stroke-opacity:0.8;stroke-miterlimit:10;" d="M 459.027344 214.476562 L 459.027344 299.636719 "/>
<path style="fill:none;stroke-width:1.066978;stroke-linecap:butt;stroke-linejoin:round;stroke:rgb(100%,90.980392%,26.27451%);stroke-opacity:0.8;stroke-miterlimit:10;" d="M 478.097656 280.472656 L 478.097656 308.648438 "/>
<path style="fill:none;stroke-width:1.066978;stroke-linecap:butt;stroke-linejoin:round;stroke:rgb(87.058824%,79.215686%,37.254902%);stroke-opacity:0.8;stroke-miterlimit:10;" d="M 172.09375 288.160156 L 172.09375 164.03125 "/>
<path style="fill:none;stroke-width:1.066978;stroke-linecap:butt;stroke-linejoin:round;stroke:rgb(87.45098%,79.215686%,37.254902%);stroke-opacity:0.8;stroke-miterlimit:10;" d="M 639.484375 261.578125 L 639.484375 384.917969 "/>
<path style="fill:none;stroke-width:1.066978;stroke-linecap:butt;stroke-linejoin:round;stroke:rgb(39.215686%,40%,43.529412%);stroke-opacity:0.8;stroke-miterlimit:10;" d="M 628.53125 110.539062 L 628.53125 379.742188 "/>
<path style="fill:none;stroke-width:1.066978;stroke-linecap:butt;stroke-linejoin:round;stroke:rgb(96.470588%,86.666667%,30.196078%);stroke-opacity:0.8;stroke-miterlimit:10;" d="M 537.222656 259.3125 L 537.222656 336.589844 "/>
<path style="fill:none;stroke-width:1.066978;stroke-linecap:butt;stroke-linejoin:round;stroke:rgb(90.980392%,82.352941%,34.901961%);stroke-opacity:0.8;stroke-miterlimit:10;" d="M 401.085938 163.960938 L 401.085938 272.253906 "/>
<path style="fill:none;stroke-width:1.066978;stroke-linecap:butt;stroke-linejoin:round;stroke:rgb(100%,90.588235%,25.882353%);stroke-opacity:0.8;stroke-miterlimit:10;" d="M 328.742188 272.945312 L 328.742188 238.0625 "/>
<path style="fill:none;stroke-width:1.066978;stroke-linecap:butt;stroke-linejoin:round;stroke:rgb(100%,90.588235%,25.882353%);stroke-opacity:0.8;stroke-miterlimit:10;" d="M 404.175781 234.316406 L 404.175781 273.714844 "/>
<path style="fill:none;stroke-width:1.066978;stroke-linecap:butt;stroke-linejoin:round;stroke:rgb(99.215686%,89.019608%,27.45098%);stroke-opacity:0.8;stroke-miterlimit:10;" d="M 486.007812 256.222656 L 486.007812 312.386719 "/>
<path style="fill:none;stroke-width:1.066978;stroke-linecap:butt;stroke-linejoin:round;stroke:rgb(87.058824%,79.215686%,37.254902%);stroke-opacity:0.8;stroke-miterlimit:10;" d="M 466.085938 178.554688 L 466.085938 302.972656 "/>
<path style="fill:none;stroke-width:1.066978;stroke-linecap:butt;stroke-linejoin:round;stroke:rgb(94.901961%,85.490196%,31.372549%);stroke-opacity:0.8;stroke-miterlimit:10;" d="M 248.496094 285.671875 L 248.496094 200.140625 "/>
<path style="fill:none;stroke-width:1.066978;stroke-linecap:butt;stroke-linejoin:round;stroke:rgb(96.470588%,86.666667%,30.196078%);stroke-opacity:0.8;stroke-miterlimit:10;" d="M 270.175781 287.132812 L 270.175781 210.386719 "/>
<path style="fill:none;stroke-width:1.066978;stroke-linecap:butt;stroke-linejoin:round;stroke:rgb(100%,90.588235%,25.882353%);stroke-opacity:0.8;stroke-miterlimit:10;" d="M 299.753906 260.652344 L 299.753906 224.363281 "/>
<path style="fill:none;stroke-width:1.066978;stroke-linecap:butt;stroke-linejoin:round;stroke:rgb(99.607843%,89.411765%,27.058824%);stroke-opacity:0.8;stroke-miterlimit:10;" d="M 180.0625 220.691406 L 180.0625 167.796875 "/>
<path style="fill:none;stroke-width:1.066978;stroke-linecap:butt;stroke-linejoin:round;stroke:rgb(100%,91.372549%,26.666667%);stroke-opacity:0.8;stroke-miterlimit:10;" d="M 453.371094 277.449219 L 453.371094 296.964844 "/>
<path style="fill:none;stroke-width:1.066978;stroke-linecap:butt;stroke-linejoin:round;stroke:rgb(100%,90.196078%,25.882353%);stroke-opacity:0.8;stroke-miterlimit:10;" d="M 400.304688 227.875 L 400.304688 271.882812 "/>
<path style="fill:none;stroke-width:1.066978;stroke-linecap:butt;stroke-linejoin:round;stroke:rgb(71.372549%,66.27451%,44.313725%);stroke-opacity:0.8;stroke-miterlimit:10;" d="M 590.070312 181.515625 L 590.070312 361.566406 "/>
<path style="fill:none;stroke-width:1.066978;stroke-linecap:butt;stroke-linejoin:round;stroke:rgb(88.235294%,80%,36.470588%);stroke-opacity:0.8;stroke-miterlimit:10;" d="M 257.4375 324.660156 L 257.4375 204.367188 "/>
<path style="fill:none;stroke-width:1.066978;stroke-linecap:butt;stroke-linejoin:round;stroke:rgb(89.411765%,81.176471%,35.686275%);stroke-opacity:0.8;stroke-miterlimit:10;" d="M 228.671875 304.90625 L 228.671875 190.773438 "/>
<path style="fill:none;stroke-width:1.066978;stroke-linecap:butt;stroke-linejoin:round;stroke:rgb(54.509804%,52.941176%,47.45098%);stroke-opacity:0.8;stroke-miterlimit:10;" d="M 536.425781 108.269531 L 536.425781 336.214844 "/>
<path style="fill:none;stroke-width:1.066978;stroke-linecap:butt;stroke-linejoin:round;stroke:rgb(100%,91.764706%,27.45098%);stroke-opacity:0.8;stroke-miterlimit:10;" d="M 380.191406 256.363281 L 380.191406 262.378906 "/>
<path style="fill:none;stroke-width:1.066978;stroke-linecap:butt;stroke-linejoin:round;stroke:rgb(100%,89.803922%,26.666667%);stroke-opacity:0.8;stroke-miterlimit:10;" d="M 266.390625 255.867188 L 266.390625 208.597656 "/>
<path style="fill:none;stroke-width:1.066978;stroke-linecap:butt;stroke-linejoin:round;stroke:rgb(100%,91.764706%,27.058824%);stroke-opacity:0.8;stroke-miterlimit:10;" d="M 437.085938 275.214844 L 437.085938 289.269531 "/>
<path style="fill:none;stroke-width:1.066978;stroke-linecap:butt;stroke-linejoin:round;stroke:rgb(98.431373%,88.627451%,28.235294%);stroke-opacity:0.8;stroke-miterlimit:10;" d="M 446.855469 232.972656 L 446.855469 293.882812 "/>
<path style="fill:none;stroke-width:1.066978;stroke-linecap:butt;stroke-linejoin:round;stroke:rgb(100%,90.588235%,25.882353%);stroke-opacity:0.8;stroke-miterlimit:10;" d="M 300.550781 259.578125 L 300.550781 224.742188 "/>
<path style="fill:none;stroke-width:1.066978;stroke-linecap:butt;stroke-linejoin:round;stroke:rgb(0%,12.54902%,30.196078%);stroke-opacity:0.8;stroke-miterlimit:10;" d="M 596.921875 20.167969 L 596.921875 364.804688 "/>
<path style="fill:none;stroke-width:1.066978;stroke-linecap:butt;stroke-linejoin:round;stroke:rgb(94.901961%,85.490196%,31.372549%);stroke-opacity:0.8;stroke-miterlimit:10;" d="M 420.492188 195.71875 L 420.492188 281.425781 "/>
<path style="fill:none;stroke-width:1.066978;stroke-linecap:butt;stroke-linejoin:round;stroke:rgb(29.411765%,32.941176%,42.352941%);stroke-opacity:0.8;stroke-miterlimit:10;" d="M 23.234375 385.082031 L 23.234375 93.683594 "/>
<path style="fill:none;stroke-width:1.066978;stroke-linecap:butt;stroke-linejoin:round;stroke:rgb(66.666667%,62.352941%,45.882353%);stroke-opacity:0.8;stroke-miterlimit:10;" d="M 83.664062 318.070312 L 83.664062 122.242188 "/>
<path style="fill:none;stroke-width:1.066978;stroke-linecap:butt;stroke-linejoin:round;stroke:rgb(95.294118%,85.882353%,30.980392%);stroke-opacity:0.8;stroke-miterlimit:10;" d="M 355.800781 167.167969 L 355.800781 250.851562 "/>
<path style="fill:none;stroke-width:1.066978;stroke-linecap:butt;stroke-linejoin:round;stroke:rgb(96.078431%,86.666667%,30.196078%);stroke-opacity:0.8;stroke-miterlimit:10;" d="M 290.199219 298.542969 L 290.199219 219.851562 "/>
<path style="fill:none;stroke-width:1.066978;stroke-linecap:butt;stroke-linejoin:round;stroke:rgb(100%,91.764706%,27.058824%);stroke-opacity:0.8;stroke-miterlimit:10;" d="M 314.339844 217.160156 L 314.339844 231.257812 "/>
<path style="fill:none;stroke-width:1.066978;stroke-linecap:butt;stroke-linejoin:round;stroke:rgb(97.647059%,87.843137%,29.019608%);stroke-opacity:0.8;stroke-miterlimit:10;" d="M 375.292969 191.238281 L 375.292969 260.0625 "/>
<path style="fill:none;stroke-width:1.066978;stroke-linecap:butt;stroke-linejoin:round;stroke:rgb(100%,91.764706%,27.45098%);stroke-opacity:0.8;stroke-miterlimit:10;" d="M 347.074219 252.613281 L 347.074219 246.726562 "/>
<path style="fill:none;stroke-width:1.066978;stroke-linecap:butt;stroke-linejoin:round;stroke:rgb(100%,91.764706%,27.45098%);stroke-opacity:0.8;stroke-miterlimit:10;" d="M 286.925781 215.628906 L 286.925781 218.300781 "/>
<path style="fill:none;stroke-width:1.066978;stroke-linecap:butt;stroke-linejoin:round;stroke:rgb(97.647059%,87.843137%,29.019608%);stroke-opacity:0.8;stroke-miterlimit:10;" d="M 164.976562 229.328125 L 164.976562 160.667969 "/>
<path style="fill:none;stroke-width:1.066978;stroke-linecap:butt;stroke-linejoin:round;stroke:rgb(85.882353%,78.039216%,38.039216%);stroke-opacity:0.8;stroke-miterlimit:10;" d="M 285.941406 346.695312 L 285.941406 217.835938 "/>
<path style="fill:none;stroke-width:1.066978;stroke-linecap:butt;stroke-linejoin:round;stroke:rgb(10.980392%,23.137255%,42.745098%);stroke-opacity:0.8;stroke-miterlimit:10;" d="M 649.0625 71.9375 L 649.0625 389.445312 "/>
<path style="fill:none;stroke-width:1.066978;stroke-linecap:butt;stroke-linejoin:round;stroke:rgb(70.196078%,65.490196%,44.705882%);stroke-opacity:0.8;stroke-miterlimit:10;" d="M 530.445312 148.960938 L 530.445312 333.386719 "/>
<path style="fill:none;stroke-width:1.066978;stroke-linecap:butt;stroke-linejoin:round;stroke:rgb(94.117647%,84.705882%,32.156863%);stroke-opacity:0.8;stroke-miterlimit:10;" d="M 360.945312 161.855469 L 360.945312 253.28125 "/>
<path style="fill:none;stroke-width:1.066978;stroke-linecap:butt;stroke-linejoin:round;stroke:rgb(100%,89.803922%,26.666667%);stroke-opacity:0.8;stroke-miterlimit:10;" d="M 310.898438 180.851562 L 310.898438 229.632812 "/>
<path style="fill:none;stroke-width:1.066978;stroke-linecap:butt;stroke-linejoin:round;stroke:rgb(60.784314%,58.039216%,46.666667%);stroke-opacity:0.8;stroke-miterlimit:10;" d="M 106.25 343.945312 L 106.25 132.914062 "/>
<path style="fill:none;stroke-width:1.066978;stroke-linecap:butt;stroke-linejoin:round;stroke:rgb(100%,90.980392%,26.27451%);stroke-opacity:0.8;stroke-miterlimit:10;" d="M 322.023438 201.871094 L 322.023438 234.890625 "/>
<path style="fill:none;stroke-width:1.066978;stroke-linecap:butt;stroke-linejoin:round;stroke:rgb(55.686275%,54.117647%,47.45098%);stroke-opacity:0.8;stroke-miterlimit:10;" d="M 403.199219 48.289062 L 403.199219 273.25 "/>
<path style="fill:none;stroke-width:1.066978;stroke-linecap:butt;stroke-linejoin:round;stroke:rgb(76.862745%,70.980392%,42.352941%);stroke-opacity:0.8;stroke-miterlimit:10;" d="M 157.476562 319.421875 L 157.476562 157.125 "/>
<path style="fill:none;stroke-width:1.066978;stroke-linecap:butt;stroke-linejoin:round;stroke:rgb(91.764706%,82.745098%,34.117647%);stroke-opacity:0.8;stroke-miterlimit:10;" d="M 462.238281 198.492188 L 462.238281 301.15625 "/>
<path style="fill:none;stroke-width:1.066978;stroke-linecap:butt;stroke-linejoin:round;stroke:rgb(41.176471%,41.960784%,44.313725%);stroke-opacity:0.8;stroke-miterlimit:10;" d="M 502.582031 55.753906 L 502.582031 320.21875 "/>
<path style="fill:none;stroke-width:1.066978;stroke-linecap:butt;stroke-linejoin:round;stroke:rgb(82.352941%,75.294118%,40%);stroke-opacity:0.8;stroke-miterlimit:10;" d="M 187.066406 313.699219 L 187.066406 171.109375 "/>
<path style="fill:none;stroke-width:1.066978;stroke-linecap:butt;stroke-linejoin:round;stroke:rgb(52.941176%,51.764706%,47.45098%);stroke-opacity:0.8;stroke-miterlimit:10;" d="M 537.394531 103.792969 L 537.394531 336.671875 "/>
<path style="fill:none;stroke-width:1.066978;stroke-linecap:butt;stroke-linejoin:round;stroke:rgb(100%,91.764706%,27.45098%);stroke-opacity:0.8;stroke-miterlimit:10;" d="M 318.679688 243.265625 L 318.679688 233.308594 "/>
<path style="fill:none;stroke-width:1.066978;stroke-linecap:butt;stroke-linejoin:round;stroke:rgb(100%,89.803922%,26.666667%);stroke-opacity:0.8;stroke-miterlimit:10;" d="M 309.964844 276.882812 L 309.964844 229.191406 "/>
<path style="fill:none;stroke-width:1.066978;stroke-linecap:butt;stroke-linejoin:round;stroke:rgb(100%,91.372549%,26.666667%);stroke-opacity:0.8;stroke-miterlimit:10;" d="M 426.324219 304.894531 L 426.324219 284.179688 "/>
<path style="fill:none;stroke-width:1.066978;stroke-linecap:butt;stroke-linejoin:round;stroke:rgb(89.019608%,80.784314%,36.078431%);stroke-opacity:0.8;stroke-miterlimit:10;" d="M 436.421875 172.507812 L 436.421875 288.953125 "/>
<path style="fill:none;stroke-width:1.066978;stroke-linecap:butt;stroke-linejoin:round;stroke:rgb(99.607843%,89.411765%,27.058824%);stroke-opacity:0.8;stroke-miterlimit:10;" d="M 282.753906 163.398438 L 282.753906 216.332031 "/>
<path style="fill:none;stroke-width:1.066978;stroke-linecap:butt;stroke-linejoin:round;stroke:rgb(96.862745%,87.058824%,29.803922%);stroke-opacity:0.8;stroke-miterlimit:10;" d="M 183.710938 244.660156 L 183.710938 169.523438 "/>
<path style="fill:none;stroke-width:1.066978;stroke-linecap:butt;stroke-linejoin:round;stroke:rgb(100%,90.196078%,26.27451%);stroke-opacity:0.8;stroke-miterlimit:10;" d="M 450.066406 249.84375 L 450.066406 295.402344 "/>
<path style="fill:none;stroke-width:1.066978;stroke-linecap:butt;stroke-linejoin:round;stroke:rgb(78.039216%,71.764706%,41.960784%);stroke-opacity:0.8;stroke-miterlimit:10;" d="M 149.664062 311.535156 L 149.664062 153.433594 "/>
<path style="fill:none;stroke-width:1.066978;stroke-linecap:butt;stroke-linejoin:round;stroke:rgb(64.313725%,60.784314%,46.27451%);stroke-opacity:0.8;stroke-miterlimit:10;" d="M 32.5625 299.703125 L 32.5625 98.089844 "/>
<path style="fill:none;stroke-width:1.066978;stroke-linecap:butt;stroke-linejoin:round;stroke:rgb(63.921569%,60.392157%,46.27451%);stroke-opacity:0.8;stroke-miterlimit:10;" d="M 472.847656 103.429688 L 472.847656 306.167969 "/>
<path style="fill:none;stroke-width:1.066978;stroke-linecap:butt;stroke-linejoin:round;stroke:rgb(96.470588%,86.666667%,30.196078%);stroke-opacity:0.8;stroke-miterlimit:10;" d="M 484.488281 233.09375 L 484.488281 311.671875 "/>
<path style="fill:none;stroke-width:1.066978;stroke-linecap:butt;stroke-linejoin:round;stroke:rgb(92.54902%,83.529412%,33.333333%);stroke-opacity:0.8;stroke-miterlimit:10;" d="M 460.988281 202.402344 L 460.988281 300.5625 "/>
<path style="fill:none;stroke-width:1.066978;stroke-linecap:butt;stroke-linejoin:round;stroke:rgb(91.764706%,82.745098%,34.117647%);stroke-opacity:0.8;stroke-miterlimit:10;" d="M 36.464844 204.203125 L 36.464844 99.9375 "/>
<path style="fill:none;stroke-width:1.066978;stroke-linecap:butt;stroke-linejoin:round;stroke:rgb(100%,90.588235%,25.882353%);stroke-opacity:0.8;stroke-miterlimit:10;" d="M 336.8125 281.511719 L 336.8125 241.878906 "/>
<path style="fill:none;stroke-width:1.066978;stroke-linecap:butt;stroke-linejoin:round;stroke:rgb(100%,90.980392%,26.27451%);stroke-opacity:0.8;stroke-miterlimit:10;" d="M 337.507812 271.789062 L 337.507812 242.207031 "/>
<path style="fill:none;stroke-width:1.066978;stroke-linecap:butt;stroke-linejoin:round;stroke:rgb(89.019608%,80.784314%,36.078431%);stroke-opacity:0.8;stroke-miterlimit:10;" d="M 557.753906 230.675781 L 557.753906 346.296875 "/>
<path style="fill:none;stroke-width:1.066978;stroke-linecap:butt;stroke-linejoin:round;stroke:rgb(90.588235%,82.352941%,34.901961%);stroke-opacity:0.8;stroke-miterlimit:10;" d="M 354.597656 141.703125 L 354.597656 250.285156 "/>
<path style="fill:none;stroke-width:1.066978;stroke-linecap:butt;stroke-linejoin:round;stroke:rgb(98.039216%,88.235294%,28.627451%);stroke-opacity:0.8;stroke-miterlimit:10;" d="M 161.273438 221.898438 L 161.273438 158.917969 "/>
<path style="fill-rule:nonzero;fill:rgb(18.431373%,30.980392%,30.980392%);fill-opacity:0.901961;stroke-width:0.708661;stroke-linecap:round;stroke-linejoin:round;stroke:rgb(18.431373%,30.980392%,30.980392%);stroke-opacity:0.901961;stroke-miterlimit:10;" d="M 358.273438 224.101562 C 358.273438 227.242188 355.726562 229.789062 352.585938 229.789062 C 349.441406 229.789062 346.894531 227.242188 346.894531 224.101562 C 346.894531 220.957031 349.441406 218.410156 352.585938 218.410156 C 355.726562 218.410156 358.273438 220.957031 358.273438 224.101562 "/>
<path style="fill-rule:nonzero;fill:rgb(18.431373%,30.980392%,30.980392%);fill-opacity:0.901961;stroke-width:0.708661;stroke-linecap:round;stroke-linejoin:round;stroke:rgb(18.431373%,30.980392%,30.980392%);stroke-opacity:0.901961;stroke-miterlimit:10;" d="M 136.890625 359.765625 C 136.890625 362.90625 134.34375 365.453125 131.203125 365.453125 C 128.058594 365.453125 125.511719 362.90625 125.511719 359.765625 C 125.511719 356.625 128.058594 354.078125 131.203125 354.078125 C 134.34375 354.078125 136.890625 356.625 136.890625 359.765625 "/>
<path style="fill-rule:nonzero;fill:rgb(18.431373%,30.980392%,30.980392%);fill-opacity:0.901961;stroke-width:0.708661;stroke-linecap:round;stroke-linejoin:round;stroke:rgb(18.431373%,30.980392%,30.980392%);stroke-opacity:0.901961;stroke-miterlimit:10;" d="M 459.082031 234.6875 C 459.082031 237.832031 456.535156 240.378906 453.394531 240.378906 C 450.25 240.378906 447.703125 237.832031 447.703125 234.6875 C 447.703125 231.546875 450.25 229 453.394531 229 C 456.535156 229 459.082031 231.546875 459.082031 234.6875 "/>
<path style="fill-rule:nonzero;fill:rgb(18.431373%,30.980392%,30.980392%);fill-opacity:0.901961;stroke-width:0.708661;stroke-linecap:round;stroke-linejoin:round;stroke:rgb(18.431373%,30.980392%,30.980392%);stroke-opacity:0.901961;stroke-miterlimit:10;" d="M 335.800781 320.460938 C 335.800781 323.601562 333.253906 326.148438 330.109375 326.148438 C 326.96875 326.148438 324.421875 323.601562 324.421875 320.460938 C 324.421875 317.316406 326.96875 314.769531 330.109375 314.769531 C 333.253906 314.769531 335.800781 317.316406 335.800781 320.460938 "/>
<path style="fill-rule:nonzero;fill:rgb(18.431373%,30.980392%,30.980392%);fill-opacity:0.901961;stroke-width:0.708661;stroke-linecap:round;stroke-linejoin:round;stroke:rgb(18.431373%,30.980392%,30.980392%);stroke-opacity:0.901961;stroke-miterlimit:10;" d="M 230.386719 330 C 230.386719 333.140625 227.835938 335.6875 224.695312 335.6875 C 221.554688 335.6875 219.007812 333.140625 219.007812 330 C 219.007812 326.855469 221.554688 324.308594 224.695312 324.308594 C 227.835938 324.308594 230.386719 326.855469 230.386719 330 "/>
<path style="fill-rule:nonzero;fill:rgb(18.431373%,30.980392%,30.980392%);fill-opacity:0.901961;stroke-width:0.708661;stroke-linecap:round;stroke-linejoin:round;stroke:rgb(18.431373%,30.980392%,30.980392%);stroke-opacity:0.901961;stroke-miterlimit:10;" d="M 396.417969 259.679688 C 396.417969 262.820312 393.871094 265.367188 390.730469 265.367188 C 387.585938 265.367188 385.039062 262.820312 385.039062 259.679688 C 385.039062 256.539062 387.585938 253.992188 390.730469 253.992188 C 393.871094 253.992188 396.417969 256.539062 396.417969 259.679688 "/>
<path style="fill-rule:nonzero;fill:rgb(18.431373%,30.980392%,30.980392%);fill-opacity:0.901961;stroke-width:0.708661;stroke-linecap:round;stroke-linejoin:round;stroke:rgb(18.431373%,30.980392%,30.980392%);stroke-opacity:0.901961;stroke-miterlimit:10;" d="M 322.90625 163.882812 C 322.90625 167.027344 320.355469 169.574219 317.214844 169.574219 C 314.074219 169.574219 311.527344 167.027344 311.527344 163.882812 C 311.527344 160.742188 314.074219 158.195312 317.214844 158.195312 C 320.355469 158.195312 322.90625 160.742188 322.90625 163.882812 "/>
<path style="fill-rule:nonzero;fill:rgb(18.431373%,30.980392%,30.980392%);fill-opacity:0.901961;stroke-width:0.708661;stroke-linecap:round;stroke-linejoin:round;stroke:rgb(18.431373%,30.980392%,30.980392%);stroke-opacity:0.901961;stroke-miterlimit:10;" d="M 277.410156 170.070312 C 277.410156 173.210938 274.863281 175.757812 271.722656 175.757812 C 268.582031 175.757812 266.035156 173.210938 266.035156 170.070312 C 266.035156 166.925781 268.582031 164.378906 271.722656 164.378906 C 274.863281 164.378906 277.410156 166.925781 277.410156 170.070312 "/>
<path style="fill-rule:nonzero;fill:rgb(18.431373%,30.980392%,30.980392%);fill-opacity:0.901961;stroke-width:0.708661;stroke-linecap:round;stroke-linejoin:round;stroke:rgb(18.431373%,30.980392%,30.980392%);stroke-opacity:0.901961;stroke-miterlimit:10;" d="M 483.578125 193.890625 C 483.578125 197.03125 481.03125 199.578125 477.886719 199.578125 C 474.746094 199.578125 472.199219 197.03125 472.199219 193.890625 C 472.199219 190.746094 474.746094 188.199219 477.886719 188.199219 C 481.03125 188.199219 483.578125 190.746094 483.578125 193.890625 "/>
<path style="fill-rule:nonzero;fill:rgb(18.431373%,30.980392%,30.980392%);fill-opacity:0.901961;stroke-width:0.708661;stroke-linecap:round;stroke-linejoin:round;stroke:rgb(18.431373%,30.980392%,30.980392%);stroke-opacity:0.901961;stroke-miterlimit:10;" d="M 586.449219 197.820312 C 586.449219 200.964844 583.902344 203.511719 580.757812 203.511719 C 577.617188 203.511719 575.070312 200.964844 575.070312 197.820312 C 575.070312 194.679688 577.617188 192.132812 580.757812 192.132812 C 583.902344 192.132812 586.449219 194.679688 586.449219 197.820312 "/>
<path style="fill-rule:nonzero;fill:rgb(18.431373%,30.980392%,30.980392%);fill-opacity:0.901961;stroke-width:0.708661;stroke-linecap:round;stroke-linejoin:round;stroke:rgb(18.431373%,30.980392%,30.980392%);stroke-opacity:0.901961;stroke-miterlimit:10;" d="M 241.976562 339.664062 C 241.976562 342.804688 239.429688 345.351562 236.289062 345.351562 C 233.148438 345.351562 230.601562 342.804688 230.601562 339.664062 C 230.601562 336.519531 233.148438 333.972656 236.289062 333.972656 C 239.429688 333.972656 241.976562 336.519531 241.976562 339.664062 "/>
<path style="fill-rule:nonzero;fill:rgb(18.431373%,30.980392%,30.980392%);fill-opacity:0.901961;stroke-width:0.708661;stroke-linecap:round;stroke-linejoin:round;stroke:rgb(18.431373%,30.980392%,30.980392%);stroke-opacity:0.901961;stroke-miterlimit:10;" d="M 245.164062 334.515625 C 245.164062 337.65625 242.617188 340.203125 239.476562 340.203125 C 236.332031 340.203125 233.785156 337.65625 233.785156 334.515625 C 233.785156 331.371094 236.332031 328.824219 239.476562 328.824219 C 242.617188 328.824219 245.164062 331.371094 245.164062 334.515625 "/>
<path style="fill-rule:nonzero;fill:rgb(18.431373%,30.980392%,30.980392%);fill-opacity:0.901961;stroke-width:0.708661;stroke-linecap:round;stroke-linejoin:round;stroke:rgb(18.431373%,30.980392%,30.980392%);stroke-opacity:0.901961;stroke-miterlimit:10;" d="M 394.824219 189.882812 C 394.824219 193.023438 392.277344 195.570312 389.136719 195.570312 C 385.996094 195.570312 383.445312 193.023438 383.445312 189.882812 C 383.445312 186.738281 385.996094 184.191406 389.136719 184.191406 C 392.277344 184.191406 394.824219 186.738281 394.824219 189.882812 "/>
<path style="fill-rule:nonzero;fill:rgb(18.431373%,30.980392%,30.980392%);fill-opacity:0.901961;stroke-width:0.708661;stroke-linecap:round;stroke-linejoin:round;stroke:rgb(18.431373%,30.980392%,30.980392%);stroke-opacity:0.901961;stroke-miterlimit:10;" d="M 318.78125 190.984375 C 318.78125 194.128906 316.234375 196.675781 313.089844 196.675781 C 309.949219 196.675781 307.402344 194.128906 307.402344 190.984375 C 307.402344 187.84375 309.949219 185.296875 313.089844 185.296875 C 316.234375 185.296875 318.78125 187.84375 318.78125 190.984375 "/>
<path style="fill-rule:nonzero;fill:rgb(18.431373%,30.980392%,30.980392%);fill-opacity:0.901961;stroke-width:0.708661;stroke-linecap:round;stroke-linejoin:round;stroke:rgb(18.431373%,30.980392%,30.980392%);stroke-opacity:0.901961;stroke-miterlimit:10;" d="M 505.574219 231.195312 C 505.574219 234.335938 503.027344 236.882812 499.882812 236.882812 C 496.742188 236.882812 494.195312 234.335938 494.195312 231.195312 C 494.195312 228.050781 496.742188 225.503906 499.882812 225.503906 C 503.027344 225.503906 505.574219 228.050781 505.574219 231.195312 "/>
<path style="fill-rule:nonzero;fill:rgb(18.431373%,30.980392%,30.980392%);fill-opacity:0.901961;stroke-width:0.708661;stroke-linecap:round;stroke-linejoin:round;stroke:rgb(18.431373%,30.980392%,30.980392%);stroke-opacity:0.901961;stroke-miterlimit:10;" d="M 235.496094 200.746094 C 235.496094 203.886719 232.949219 206.433594 229.804688 206.433594 C 226.664062 206.433594 224.117188 203.886719 224.117188 200.746094 C 224.117188 197.601562 226.664062 195.054688 229.804688 195.054688 C 232.949219 195.054688 235.496094 197.601562 235.496094 200.746094 "/>
<path style="fill-rule:nonzero;fill:rgb(18.431373%,30.980392%,30.980392%);fill-opacity:0.901961;stroke-width:0.708661;stroke-linecap:round;stroke-linejoin:round;stroke:rgb(18.431373%,30.980392%,30.980392%);stroke-opacity:0.901961;stroke-miterlimit:10;" d="M 412.207031 228.824219 C 412.207031 231.96875 409.660156 234.515625 406.515625 234.515625 C 403.375 234.515625 400.828125 231.96875 400.828125 228.824219 C 400.828125 225.683594 403.375 223.136719 406.515625 223.136719 C 409.660156 223.136719 412.207031 225.683594 412.207031 228.824219 "/>
<path style="fill-rule:nonzero;fill:rgb(18.431373%,30.980392%,30.980392%);fill-opacity:0.901961;stroke-width:0.708661;stroke-linecap:round;stroke-linejoin:round;stroke:rgb(18.431373%,30.980392%,30.980392%);stroke-opacity:0.901961;stroke-miterlimit:10;" d="M 502.863281 288.320312 C 502.863281 291.460938 500.316406 294.007812 497.175781 294.007812 C 494.035156 294.007812 491.488281 291.460938 491.488281 288.320312 C 491.488281 285.175781 494.035156 282.628906 497.175781 282.628906 C 500.316406 282.628906 502.863281 285.175781 502.863281 288.320312 "/>
<path style="fill-rule:nonzero;fill:rgb(18.431373%,30.980392%,30.980392%);fill-opacity:0.901961;stroke-width:0.708661;stroke-linecap:round;stroke-linejoin:round;stroke:rgb(18.431373%,30.980392%,30.980392%);stroke-opacity:0.901961;stroke-miterlimit:10;" d="M 726.796875 146.390625 C 726.796875 149.53125 724.25 152.078125 721.105469 152.078125 C 717.964844 152.078125 715.417969 149.53125 715.417969 146.390625 C 715.417969 143.246094 717.964844 140.699219 721.105469 140.699219 C 724.25 140.699219 726.796875 143.246094 726.796875 146.390625 "/>
<path style="fill-rule:nonzero;fill:rgb(18.431373%,30.980392%,30.980392%);fill-opacity:0.901961;stroke-width:0.708661;stroke-linecap:round;stroke-linejoin:round;stroke:rgb(18.431373%,30.980392%,30.980392%);stroke-opacity:0.901961;stroke-miterlimit:10;" d="M 373.542969 223.335938 C 373.542969 226.480469 370.996094 229.027344 367.855469 229.027344 C 364.710938 229.027344 362.164062 226.480469 362.164062 223.335938 C 362.164062 220.195312 364.710938 217.648438 367.855469 217.648438 C 370.996094 217.648438 373.542969 220.195312 373.542969 223.335938 "/>
<path style="fill-rule:nonzero;fill:rgb(18.431373%,30.980392%,30.980392%);fill-opacity:0.901961;stroke-width:0.708661;stroke-linecap:round;stroke-linejoin:round;stroke:rgb(18.431373%,30.980392%,30.980392%);stroke-opacity:0.901961;stroke-miterlimit:10;" d="M 523.863281 239.25 C 523.863281 242.394531 521.316406 244.941406 518.175781 244.941406 C 515.03125 244.941406 512.484375 242.394531 512.484375 239.25 C 512.484375 236.109375 515.03125 233.5625 518.175781 233.5625 C 521.316406 233.5625 523.863281 236.109375 523.863281 239.25 "/>
<path style="fill-rule:nonzero;fill:rgb(18.431373%,30.980392%,30.980392%);fill-opacity:0.901961;stroke-width:0.708661;stroke-linecap:round;stroke-linejoin:round;stroke:rgb(18.431373%,30.980392%,30.980392%);stroke-opacity:0.901961;stroke-miterlimit:10;" d="M 414.074219 264.453125 C 414.074219 267.597656 411.527344 270.144531 408.382812 270.144531 C 405.242188 270.144531 402.695312 267.597656 402.695312 264.453125 C 402.695312 261.3125 405.242188 258.765625 408.382812 258.765625 C 411.527344 258.765625 414.074219 261.3125 414.074219 264.453125 "/>
<path style="fill-rule:nonzero;fill:rgb(18.431373%,30.980392%,30.980392%);fill-opacity:0.901961;stroke-width:0.708661;stroke-linecap:round;stroke-linejoin:round;stroke:rgb(18.431373%,30.980392%,30.980392%);stroke-opacity:0.901961;stroke-miterlimit:10;" d="M 379.757812 161.421875 C 379.757812 164.5625 377.210938 167.109375 374.066406 167.109375 C 370.925781 167.109375 368.378906 164.5625 368.378906 161.421875 C 368.378906 158.277344 370.925781 155.730469 374.066406 155.730469 C 377.210938 155.730469 379.757812 158.277344 379.757812 161.421875 "/>
<path style="fill-rule:nonzero;fill:rgb(18.431373%,30.980392%,30.980392%);fill-opacity:0.901961;stroke-width:0.708661;stroke-linecap:round;stroke-linejoin:round;stroke:rgb(18.431373%,30.980392%,30.980392%);stroke-opacity:0.901961;stroke-miterlimit:10;" d="M 356.59375 164.691406 C 356.59375 167.832031 354.046875 170.378906 350.90625 170.378906 C 347.765625 170.378906 345.214844 167.832031 345.214844 164.691406 C 345.214844 161.550781 347.765625 159.003906 350.90625 159.003906 C 354.046875 159.003906 356.59375 161.550781 356.59375 164.691406 "/>
<path style="fill-rule:nonzero;fill:rgb(18.431373%,30.980392%,30.980392%);fill-opacity:0.901961;stroke-width:0.708661;stroke-linecap:round;stroke-linejoin:round;stroke:rgb(18.431373%,30.980392%,30.980392%);stroke-opacity:0.901961;stroke-miterlimit:10;" d="M 493.027344 87.574219 C 493.027344 90.71875 490.480469 93.265625 487.339844 93.265625 C 484.195312 93.265625 481.648438 90.71875 481.648438 87.574219 C 481.648438 84.433594 484.195312 81.886719 487.339844 81.886719 C 490.480469 81.886719 493.027344 84.433594 493.027344 87.574219 "/>
<path style="fill-rule:nonzero;fill:rgb(18.431373%,30.980392%,30.980392%);fill-opacity:0.901961;stroke-width:0.708661;stroke-linecap:round;stroke-linejoin:round;stroke:rgb(18.431373%,30.980392%,30.980392%);stroke-opacity:0.901961;stroke-miterlimit:10;" d="M 361.628906 312.871094 C 361.628906 316.011719 359.082031 318.558594 355.9375 318.558594 C 352.796875 318.558594 350.25 316.011719 350.25 312.871094 C 350.25 309.726562 352.796875 307.179688 355.9375 307.179688 C 359.082031 307.179688 361.628906 309.726562 361.628906 312.871094 "/>
<path style="fill-rule:nonzero;fill:rgb(18.431373%,30.980392%,30.980392%);fill-opacity:0.901961;stroke-width:0.708661;stroke-linecap:round;stroke-linejoin:round;stroke:rgb(18.431373%,30.980392%,30.980392%);stroke-opacity:0.901961;stroke-miterlimit:10;" d="M 306.398438 254.179688 C 306.398438 257.324219 303.851562 259.871094 300.707031 259.871094 C 297.566406 259.871094 295.019531 257.324219 295.019531 254.179688 C 295.019531 251.039062 297.566406 248.492188 300.707031 248.492188 C 303.851562 248.492188 306.398438 251.039062 306.398438 254.179688 "/>
<path style="fill-rule:nonzero;fill:rgb(18.431373%,30.980392%,30.980392%);fill-opacity:0.901961;stroke-width:0.708661;stroke-linecap:round;stroke-linejoin:round;stroke:rgb(18.431373%,30.980392%,30.980392%);stroke-opacity:0.901961;stroke-miterlimit:10;" d="M 266.074219 219.378906 C 266.074219 222.523438 263.527344 225.070312 260.382812 225.070312 C 257.242188 225.070312 254.695312 222.523438 254.695312 219.378906 C 254.695312 216.238281 257.242188 213.691406 260.382812 213.691406 C 263.527344 213.691406 266.074219 216.238281 266.074219 219.378906 "/>
<path style="fill-rule:nonzero;fill:rgb(18.431373%,30.980392%,30.980392%);fill-opacity:0.901961;stroke-width:0.708661;stroke-linecap:round;stroke-linejoin:round;stroke:rgb(18.431373%,30.980392%,30.980392%);stroke-opacity:0.901961;stroke-miterlimit:10;" d="M 90.375 263.160156 C 90.375 266.300781 87.828125 268.851562 84.6875 268.851562 C 81.542969 268.851562 78.996094 266.300781 78.996094 263.160156 C 78.996094 260.019531 81.542969 257.472656 84.6875 257.472656 C 87.828125 257.472656 90.375 260.019531 90.375 263.160156 "/>
<path style="fill-rule:nonzero;fill:rgb(18.431373%,30.980392%,30.980392%);fill-opacity:0.901961;stroke-width:0.708661;stroke-linecap:round;stroke-linejoin:round;stroke:rgb(18.431373%,30.980392%,30.980392%);stroke-opacity:0.901961;stroke-miterlimit:10;" d="M 501.511719 203.765625 C 501.511719 206.90625 498.964844 209.453125 495.824219 209.453125 C 492.683594 209.453125 490.132812 206.90625 490.132812 203.765625 C 490.132812 200.621094 492.683594 198.074219 495.824219 198.074219 C 498.964844 198.074219 501.511719 200.621094 501.511719 203.765625 "/>
<path style="fill-rule:nonzero;fill:rgb(18.431373%,30.980392%,30.980392%);fill-opacity:0.901961;stroke-width:0.708661;stroke-linecap:round;stroke-linejoin:round;stroke:rgb(18.431373%,30.980392%,30.980392%);stroke-opacity:0.901961;stroke-miterlimit:10;" d="M 304.25 158.117188 C 304.25 161.261719 301.703125 163.808594 298.5625 163.808594 C 295.417969 163.808594 292.871094 161.261719 292.871094 158.117188 C 292.871094 154.976562 295.417969 152.429688 298.5625 152.429688 C 301.703125 152.429688 304.25 154.976562 304.25 158.117188 "/>
<path style="fill-rule:nonzero;fill:rgb(18.431373%,30.980392%,30.980392%);fill-opacity:0.901961;stroke-width:0.708661;stroke-linecap:round;stroke-linejoin:round;stroke:rgb(18.431373%,30.980392%,30.980392%);stroke-opacity:0.901961;stroke-miterlimit:10;" d="M 431.410156 48.933594 C 431.410156 52.074219 428.863281 54.621094 425.722656 54.621094 C 422.582031 54.621094 420.03125 52.074219 420.03125 48.933594 C 420.03125 45.789062 422.582031 43.242188 425.722656 43.242188 C 428.863281 43.242188 431.410156 45.789062 431.410156 48.933594 "/>
<path style="fill-rule:nonzero;fill:rgb(18.431373%,30.980392%,30.980392%);fill-opacity:0.901961;stroke-width:0.708661;stroke-linecap:round;stroke-linejoin:round;stroke:rgb(18.431373%,30.980392%,30.980392%);stroke-opacity:0.901961;stroke-miterlimit:10;" d="M 464.71875 214.476562 C 464.71875 217.617188 462.167969 220.164062 459.027344 220.164062 C 455.886719 220.164062 453.339844 217.617188 453.339844 214.476562 C 453.339844 211.332031 455.886719 208.785156 459.027344 208.785156 C 462.167969 208.785156 464.71875 211.332031 464.71875 214.476562 "/>
<path style="fill-rule:nonzero;fill:rgb(18.431373%,30.980392%,30.980392%);fill-opacity:0.901961;stroke-width:0.708661;stroke-linecap:round;stroke-linejoin:round;stroke:rgb(18.431373%,30.980392%,30.980392%);stroke-opacity:0.901961;stroke-miterlimit:10;" d="M 483.785156 280.472656 C 483.785156 283.617188 481.238281 286.164062 478.097656 286.164062 C 474.953125 286.164062 472.40625 283.617188 472.40625 280.472656 C 472.40625 277.332031 474.953125 274.785156 478.097656 274.785156 C 481.238281 274.785156 483.785156 277.332031 483.785156 280.472656 "/>
<path style="fill-rule:nonzero;fill:rgb(18.431373%,30.980392%,30.980392%);fill-opacity:0.901961;stroke-width:0.708661;stroke-linecap:round;stroke-linejoin:round;stroke:rgb(18.431373%,30.980392%,30.980392%);stroke-opacity:0.901961;stroke-miterlimit:10;" d="M 177.78125 288.160156 C 177.78125 291.304688 175.234375 293.851562 172.09375 293.851562 C 168.949219 293.851562 166.402344 291.304688 166.402344 288.160156 C 166.402344 285.019531 168.949219 282.472656 172.09375 282.472656 C 175.234375 282.472656 177.78125 285.019531 177.78125 288.160156 "/>
<path style="fill-rule:nonzero;fill:rgb(18.431373%,30.980392%,30.980392%);fill-opacity:0.901961;stroke-width:0.708661;stroke-linecap:round;stroke-linejoin:round;stroke:rgb(18.431373%,30.980392%,30.980392%);stroke-opacity:0.901961;stroke-miterlimit:10;" d="M 645.171875 261.578125 C 645.171875 264.71875 642.625 267.265625 639.484375 267.265625 C 636.339844 267.265625 633.792969 264.71875 633.792969 261.578125 C 633.792969 258.4375 636.339844 255.886719 639.484375 255.886719 C 642.625 255.886719 645.171875 258.4375 645.171875 261.578125 "/>
<path style="fill-rule:nonzero;fill:rgb(18.431373%,30.980392%,30.980392%);fill-opacity:0.901961;stroke-width:0.708661;stroke-linecap:round;stroke-linejoin:round;stroke:rgb(18.431373%,30.980392%,30.980392%);stroke-opacity:0.901961;stroke-miterlimit:10;" d="M 634.21875 110.539062 C 634.21875 113.683594 631.671875 116.230469 628.53125 116.230469 C 625.386719 116.230469 622.839844 113.683594 622.839844 110.539062 C 622.839844 107.398438 625.386719 104.851562 628.53125 104.851562 C 631.671875 104.851562 634.21875 107.398438 634.21875 110.539062 "/>
<path style="fill-rule:nonzero;fill:rgb(18.431373%,30.980392%,30.980392%);fill-opacity:0.901961;stroke-width:0.708661;stroke-linecap:round;stroke-linejoin:round;stroke:rgb(18.431373%,30.980392%,30.980392%);stroke-opacity:0.901961;stroke-miterlimit:10;" d="M 542.910156 259.3125 C 542.910156 262.453125 540.363281 265 537.222656 265 C 534.078125 265 531.53125 262.453125 531.53125 259.3125 C 531.53125 256.167969 534.078125 253.621094 537.222656 253.621094 C 540.363281 253.621094 542.910156 256.167969 542.910156 259.3125 "/>
<path style="fill-rule:nonzero;fill:rgb(18.431373%,30.980392%,30.980392%);fill-opacity:0.901961;stroke-width:0.708661;stroke-linecap:round;stroke-linejoin:round;stroke:rgb(18.431373%,30.980392%,30.980392%);stroke-opacity:0.901961;stroke-miterlimit:10;" d="M 406.773438 163.960938 C 406.773438 167.101562 404.226562 169.652344 401.085938 169.652344 C 397.945312 169.652344 395.398438 167.101562 395.398438 163.960938 C 395.398438 160.820312 397.945312 158.273438 401.085938 158.273438 C 404.226562 158.273438 406.773438 160.820312 406.773438 163.960938 "/>
<path style="fill-rule:nonzero;fill:rgb(18.431373%,30.980392%,30.980392%);fill-opacity:0.901961;stroke-width:0.708661;stroke-linecap:round;stroke-linejoin:round;stroke:rgb(18.431373%,30.980392%,30.980392%);stroke-opacity:0.901961;stroke-miterlimit:10;" d="M 334.429688 272.945312 C 334.429688 276.089844 331.882812 278.636719 328.742188 278.636719 C 325.597656 278.636719 323.050781 276.089844 323.050781 272.945312 C 323.050781 269.804688 325.597656 267.257812 328.742188 267.257812 C 331.882812 267.257812 334.429688 269.804688 334.429688 272.945312 "/>
<path style="fill-rule:nonzero;fill:rgb(18.431373%,30.980392%,30.980392%);fill-opacity:0.901961;stroke-width:0.708661;stroke-linecap:round;stroke-linejoin:round;stroke:rgb(18.431373%,30.980392%,30.980392%);stroke-opacity:0.901961;stroke-miterlimit:10;" d="M 409.867188 234.316406 C 409.867188 237.460938 407.320312 240.007812 404.175781 240.007812 C 401.035156 240.007812 398.488281 237.460938 398.488281 234.316406 C 398.488281 231.175781 401.035156 228.628906 404.175781 228.628906 C 407.320312 228.628906 409.867188 231.175781 409.867188 234.316406 "/>
<path style="fill-rule:nonzero;fill:rgb(18.431373%,30.980392%,30.980392%);fill-opacity:0.901961;stroke-width:0.708661;stroke-linecap:round;stroke-linejoin:round;stroke:rgb(18.431373%,30.980392%,30.980392%);stroke-opacity:0.901961;stroke-miterlimit:10;" d="M 491.699219 256.222656 C 491.699219 259.363281 489.152344 261.910156 486.007812 261.910156 C 482.867188 261.910156 480.320312 259.363281 480.320312 256.222656 C 480.320312 253.078125 482.867188 250.53125 486.007812 250.53125 C 489.152344 250.53125 491.699219 253.078125 491.699219 256.222656 "/>
<path style="fill-rule:nonzero;fill:rgb(18.431373%,30.980392%,30.980392%);fill-opacity:0.901961;stroke-width:0.708661;stroke-linecap:round;stroke-linejoin:round;stroke:rgb(18.431373%,30.980392%,30.980392%);stroke-opacity:0.901961;stroke-miterlimit:10;" d="M 471.777344 178.554688 C 471.777344 181.699219 469.230469 184.246094 466.085938 184.246094 C 462.945312 184.246094 460.398438 181.699219 460.398438 178.554688 C 460.398438 175.414062 462.945312 172.867188 466.085938 172.867188 C 469.230469 172.867188 471.777344 175.414062 471.777344 178.554688 "/>
<path style="fill-rule:nonzero;fill:rgb(18.431373%,30.980392%,30.980392%);fill-opacity:0.901961;stroke-width:0.708661;stroke-linecap:round;stroke-linejoin:round;stroke:rgb(18.431373%,30.980392%,30.980392%);stroke-opacity:0.901961;stroke-miterlimit:10;" d="M 254.183594 285.671875 C 254.183594 288.8125 251.636719 291.359375 248.496094 291.359375 C 245.351562 291.359375 242.804688 288.8125 242.804688 285.671875 C 242.804688 282.527344 245.351562 279.980469 248.496094 279.980469 C 251.636719 279.980469 254.183594 282.527344 254.183594 285.671875 "/>
<path style="fill-rule:nonzero;fill:rgb(18.431373%,30.980392%,30.980392%);fill-opacity:0.901961;stroke-width:0.708661;stroke-linecap:round;stroke-linejoin:round;stroke:rgb(18.431373%,30.980392%,30.980392%);stroke-opacity:0.901961;stroke-miterlimit:10;" d="M 275.863281 287.132812 C 275.863281 290.273438 273.316406 292.820312 270.175781 292.820312 C 267.03125 292.820312 264.484375 290.273438 264.484375 287.132812 C 264.484375 283.988281 267.03125 281.441406 270.175781 281.441406 C 273.316406 281.441406 275.863281 283.988281 275.863281 287.132812 "/>
<path style="fill-rule:nonzero;fill:rgb(18.431373%,30.980392%,30.980392%);fill-opacity:0.901961;stroke-width:0.708661;stroke-linecap:round;stroke-linejoin:round;stroke:rgb(18.431373%,30.980392%,30.980392%);stroke-opacity:0.901961;stroke-miterlimit:10;" d="M 305.441406 260.652344 C 305.441406 263.792969 302.894531 266.339844 299.753906 266.339844 C 296.609375 266.339844 294.0625 263.792969 294.0625 260.652344 C 294.0625 257.507812 296.609375 254.960938 299.753906 254.960938 C 302.894531 254.960938 305.441406 257.507812 305.441406 260.652344 "/>
<path style="fill-rule:nonzero;fill:rgb(18.431373%,30.980392%,30.980392%);fill-opacity:0.901961;stroke-width:0.708661;stroke-linecap:round;stroke-linejoin:round;stroke:rgb(18.431373%,30.980392%,30.980392%);stroke-opacity:0.901961;stroke-miterlimit:10;" d="M 185.75 220.691406 C 185.75 223.832031 183.203125 226.378906 180.0625 226.378906 C 176.917969 226.378906 174.371094 223.832031 174.371094 220.691406 C 174.371094 217.546875 176.917969 215 180.0625 215 C 183.203125 215 185.75 217.546875 185.75 220.691406 "/>
<path style="fill-rule:nonzero;fill:rgb(18.431373%,30.980392%,30.980392%);fill-opacity:0.901961;stroke-width:0.708661;stroke-linecap:round;stroke-linejoin:round;stroke:rgb(18.431373%,30.980392%,30.980392%);stroke-opacity:0.901961;stroke-miterlimit:10;" d="M 459.0625 277.449219 C 459.0625 280.589844 456.515625 283.136719 453.371094 283.136719 C 450.230469 283.136719 447.683594 280.589844 447.683594 277.449219 C 447.683594 274.304688 450.230469 271.757812 453.371094 271.757812 C 456.515625 271.757812 459.0625 274.304688 459.0625 277.449219 "/>
<path style="fill-rule:nonzero;fill:rgb(18.431373%,30.980392%,30.980392%);fill-opacity:0.901961;stroke-width:0.708661;stroke-linecap:round;stroke-linejoin:round;stroke:rgb(18.431373%,30.980392%,30.980392%);stroke-opacity:0.901961;stroke-miterlimit:10;" d="M 405.992188 227.875 C 405.992188 231.015625 403.445312 233.5625 400.304688 233.5625 C 397.160156 233.5625 394.613281 231.015625 394.613281 227.875 C 394.613281 224.730469 397.160156 222.183594 400.304688 222.183594 C 403.445312 222.183594 405.992188 224.730469 405.992188 227.875 "/>
<path style="fill-rule:nonzero;fill:rgb(18.431373%,30.980392%,30.980392%);fill-opacity:0.901961;stroke-width:0.708661;stroke-linecap:round;stroke-linejoin:round;stroke:rgb(18.431373%,30.980392%,30.980392%);stroke-opacity:0.901961;stroke-miterlimit:10;" d="M 595.757812 181.515625 C 595.757812 184.65625 593.210938 187.203125 590.070312 187.203125 C 586.925781 187.203125 584.378906 184.65625 584.378906 181.515625 C 584.378906 178.371094 586.925781 175.824219 590.070312 175.824219 C 593.210938 175.824219 595.757812 178.371094 595.757812 181.515625 "/>
<path style="fill-rule:nonzero;fill:rgb(18.431373%,30.980392%,30.980392%);fill-opacity:0.901961;stroke-width:0.708661;stroke-linecap:round;stroke-linejoin:round;stroke:rgb(18.431373%,30.980392%,30.980392%);stroke-opacity:0.901961;stroke-miterlimit:10;" d="M 263.125 324.660156 C 263.125 327.800781 260.578125 330.347656 257.4375 330.347656 C 254.292969 330.347656 251.746094 327.800781 251.746094 324.660156 C 251.746094 321.515625 254.292969 318.96875 257.4375 318.96875 C 260.578125 318.96875 263.125 321.515625 263.125 324.660156 "/>
<path style="fill-rule:nonzero;fill:rgb(18.431373%,30.980392%,30.980392%);fill-opacity:0.901961;stroke-width:0.708661;stroke-linecap:round;stroke-linejoin:round;stroke:rgb(18.431373%,30.980392%,30.980392%);stroke-opacity:0.901961;stroke-miterlimit:10;" d="M 234.359375 304.90625 C 234.359375 308.046875 231.8125 310.597656 228.671875 310.597656 C 225.53125 310.597656 222.984375 308.046875 222.984375 304.90625 C 222.984375 301.765625 225.53125 299.21875 228.671875 299.21875 C 231.8125 299.21875 234.359375 301.765625 234.359375 304.90625 "/>
<path style="fill-rule:nonzero;fill:rgb(18.431373%,30.980392%,30.980392%);fill-opacity:0.901961;stroke-width:0.708661;stroke-linecap:round;stroke-linejoin:round;stroke:rgb(18.431373%,30.980392%,30.980392%);stroke-opacity:0.901961;stroke-miterlimit:10;" d="M 542.113281 108.269531 C 542.113281 111.410156 539.566406 113.957031 536.425781 113.957031 C 533.285156 113.957031 530.738281 111.410156 530.738281 108.269531 C 530.738281 105.125 533.285156 102.578125 536.425781 102.578125 C 539.566406 102.578125 542.113281 105.125 542.113281 108.269531 "/>
<path style="fill-rule:nonzero;fill:rgb(18.431373%,30.980392%,30.980392%);fill-opacity:0.901961;stroke-width:0.708661;stroke-linecap:round;stroke-linejoin:round;stroke:rgb(18.431373%,30.980392%,30.980392%);stroke-opacity:0.901961;stroke-miterlimit:10;" d="M 385.882812 256.363281 C 385.882812 259.507812 383.335938 262.054688 380.191406 262.054688 C 377.050781 262.054688 374.503906 259.507812 374.503906 256.363281 C 374.503906 253.222656 377.050781 250.675781 380.191406 250.675781 C 383.335938 250.675781 385.882812 253.222656 385.882812 256.363281 "/>
<path style="fill-rule:nonzero;fill:rgb(18.431373%,30.980392%,30.980392%);fill-opacity:0.901961;stroke-width:0.708661;stroke-linecap:round;stroke-linejoin:round;stroke:rgb(18.431373%,30.980392%,30.980392%);stroke-opacity:0.901961;stroke-miterlimit:10;" d="M 272.082031 255.867188 C 272.082031 259.011719 269.535156 261.558594 266.390625 261.558594 C 263.25 261.558594 260.703125 259.011719 260.703125 255.867188 C 260.703125 252.726562 263.25 250.179688 266.390625 250.179688 C 269.535156 250.179688 272.082031 252.726562 272.082031 255.867188 "/>
<path style="fill-rule:nonzero;fill:rgb(18.431373%,30.980392%,30.980392%);fill-opacity:0.901961;stroke-width:0.708661;stroke-linecap:round;stroke-linejoin:round;stroke:rgb(18.431373%,30.980392%,30.980392%);stroke-opacity:0.901961;stroke-miterlimit:10;" d="M 442.777344 275.214844 C 442.777344 278.355469 440.230469 280.902344 437.085938 280.902344 C 433.945312 280.902344 431.398438 278.355469 431.398438 275.214844 C 431.398438 272.070312 433.945312 269.523438 437.085938 269.523438 C 440.230469 269.523438 442.777344 272.070312 442.777344 275.214844 "/>
<path style="fill-rule:nonzero;fill:rgb(18.431373%,30.980392%,30.980392%);fill-opacity:0.901961;stroke-width:0.708661;stroke-linecap:round;stroke-linejoin:round;stroke:rgb(18.431373%,30.980392%,30.980392%);stroke-opacity:0.901961;stroke-miterlimit:10;" d="M 452.542969 232.972656 C 452.542969 236.113281 449.996094 238.660156 446.855469 238.660156 C 443.714844 238.660156 441.167969 236.113281 441.167969 232.972656 C 441.167969 229.832031 443.714844 227.285156 446.855469 227.285156 C 449.996094 227.285156 452.542969 229.832031 452.542969 232.972656 "/>
<path style="fill-rule:nonzero;fill:rgb(18.431373%,30.980392%,30.980392%);fill-opacity:0.901961;stroke-width:0.708661;stroke-linecap:round;stroke-linejoin:round;stroke:rgb(18.431373%,30.980392%,30.980392%);stroke-opacity:0.901961;stroke-miterlimit:10;" d="M 306.242188 259.578125 C 306.242188 262.722656 303.695312 265.269531 300.550781 265.269531 C 297.410156 265.269531 294.863281 262.722656 294.863281 259.578125 C 294.863281 256.4375 297.410156 253.890625 300.550781 253.890625 C 303.695312 253.890625 306.242188 256.4375 306.242188 259.578125 "/>
<path style="fill-rule:nonzero;fill:rgb(18.431373%,30.980392%,30.980392%);fill-opacity:0.901961;stroke-width:0.708661;stroke-linecap:round;stroke-linejoin:round;stroke:rgb(18.431373%,30.980392%,30.980392%);stroke-opacity:0.901961;stroke-miterlimit:10;" d="M 602.609375 20.167969 C 602.609375 23.308594 600.0625 25.855469 596.921875 25.855469 C 593.777344 25.855469 591.230469 23.308594 591.230469 20.167969 C 591.230469 17.023438 593.777344 14.476562 596.921875 14.476562 C 600.0625 14.476562 602.609375 17.023438 602.609375 20.167969 "/>
<path style="fill-rule:nonzero;fill:rgb(18.431373%,30.980392%,30.980392%);fill-opacity:0.901961;stroke-width:0.708661;stroke-linecap:round;stroke-linejoin:round;stroke:rgb(18.431373%,30.980392%,30.980392%);stroke-opacity:0.901961;stroke-miterlimit:10;" d="M 426.183594 195.71875 C 426.183594 198.863281 423.636719 201.410156 420.492188 201.410156 C 417.351562 201.410156 414.804688 198.863281 414.804688 195.71875 C 414.804688 192.578125 417.351562 190.03125 420.492188 190.03125 C 423.636719 190.03125 426.183594 192.578125 426.183594 195.71875 "/>
<path style="fill-rule:nonzero;fill:rgb(18.431373%,30.980392%,30.980392%);fill-opacity:0.901961;stroke-width:0.708661;stroke-linecap:round;stroke-linejoin:round;stroke:rgb(18.431373%,30.980392%,30.980392%);stroke-opacity:0.901961;stroke-miterlimit:10;" d="M 28.921875 385.082031 C 28.921875 388.222656 26.375 390.769531 23.234375 390.769531 C 20.089844 390.769531 17.542969 388.222656 17.542969 385.082031 C 17.542969 381.9375 20.089844 379.390625 23.234375 379.390625 C 26.375 379.390625 28.921875 381.9375 28.921875 385.082031 "/>
<path style="fill-rule:nonzero;fill:rgb(18.431373%,30.980392%,30.980392%);fill-opacity:0.901961;stroke-width:0.708661;stroke-linecap:round;stroke-linejoin:round;stroke:rgb(18.431373%,30.980392%,30.980392%);stroke-opacity:0.901961;stroke-miterlimit:10;" d="M 89.355469 318.070312 C 89.355469 321.210938 86.808594 323.761719 83.664062 323.761719 C 80.523438 323.761719 77.976562 321.210938 77.976562 318.070312 C 77.976562 314.929688 80.523438 312.382812 83.664062 312.382812 C 86.808594 312.382812 89.355469 314.929688 89.355469 318.070312 "/>
<path style="fill-rule:nonzero;fill:rgb(18.431373%,30.980392%,30.980392%);fill-opacity:0.901961;stroke-width:0.708661;stroke-linecap:round;stroke-linejoin:round;stroke:rgb(18.431373%,30.980392%,30.980392%);stroke-opacity:0.901961;stroke-miterlimit:10;" d="M 361.492188 167.167969 C 361.492188 170.3125 358.945312 172.859375 355.800781 172.859375 C 352.660156 172.859375 350.113281 170.3125 350.113281 167.167969 C 350.113281 164.027344 352.660156 161.480469 355.800781 161.480469 C 358.945312 161.480469 361.492188 164.027344 361.492188 167.167969 "/>
<path style="fill-rule:nonzero;fill:rgb(18.431373%,30.980392%,30.980392%);fill-opacity:0.901961;stroke-width:0.708661;stroke-linecap:round;stroke-linejoin:round;stroke:rgb(18.431373%,30.980392%,30.980392%);stroke-opacity:0.901961;stroke-miterlimit:10;" d="M 295.890625 298.542969 C 295.890625 301.683594 293.34375 304.230469 290.199219 304.230469 C 287.058594 304.230469 284.511719 301.683594 284.511719 298.542969 C 284.511719 295.402344 287.058594 292.851562 290.199219 292.851562 C 293.34375 292.851562 295.890625 295.402344 295.890625 298.542969 "/>
<path style="fill-rule:nonzero;fill:rgb(18.431373%,30.980392%,30.980392%);fill-opacity:0.901961;stroke-width:0.708661;stroke-linecap:round;stroke-linejoin:round;stroke:rgb(18.431373%,30.980392%,30.980392%);stroke-opacity:0.901961;stroke-miterlimit:10;" d="M 320.027344 217.160156 C 320.027344 220.304688 317.480469 222.851562 314.339844 222.851562 C 311.199219 222.851562 308.652344 220.304688 308.652344 217.160156 C 308.652344 214.019531 311.199219 211.472656 314.339844 211.472656 C 317.480469 211.472656 320.027344 214.019531 320.027344 217.160156 "/>
<path style="fill-rule:nonzero;fill:rgb(18.431373%,30.980392%,30.980392%);fill-opacity:0.901961;stroke-width:0.708661;stroke-linecap:round;stroke-linejoin:round;stroke:rgb(18.431373%,30.980392%,30.980392%);stroke-opacity:0.901961;stroke-miterlimit:10;" d="M 380.980469 191.238281 C 380.980469 194.378906 378.433594 196.925781 375.292969 196.925781 C 372.152344 196.925781 369.601562 194.378906 369.601562 191.238281 C 369.601562 188.09375 372.152344 185.546875 375.292969 185.546875 C 378.433594 185.546875 380.980469 188.09375 380.980469 191.238281 "/>
<path style="fill-rule:nonzero;fill:rgb(18.431373%,30.980392%,30.980392%);fill-opacity:0.901961;stroke-width:0.708661;stroke-linecap:round;stroke-linejoin:round;stroke:rgb(18.431373%,30.980392%,30.980392%);stroke-opacity:0.901961;stroke-miterlimit:10;" d="M 352.761719 252.613281 C 352.761719 255.757812 350.214844 258.304688 347.074219 258.304688 C 343.933594 258.304688 341.386719 255.757812 341.386719 252.613281 C 341.386719 249.472656 343.933594 246.925781 347.074219 246.925781 C 350.214844 246.925781 352.761719 249.472656 352.761719 252.613281 "/>
<path style="fill-rule:nonzero;fill:rgb(18.431373%,30.980392%,30.980392%);fill-opacity:0.901961;stroke-width:0.708661;stroke-linecap:round;stroke-linejoin:round;stroke:rgb(18.431373%,30.980392%,30.980392%);stroke-opacity:0.901961;stroke-miterlimit:10;" d="M 292.613281 215.628906 C 292.613281 218.769531 290.066406 221.316406 286.925781 221.316406 C 283.78125 221.316406 281.234375 218.769531 281.234375 215.628906 C 281.234375 212.484375 283.78125 209.9375 286.925781 209.9375 C 290.066406 209.9375 292.613281 212.484375 292.613281 215.628906 "/>
<path style="fill-rule:nonzero;fill:rgb(18.431373%,30.980392%,30.980392%);fill-opacity:0.901961;stroke-width:0.708661;stroke-linecap:round;stroke-linejoin:round;stroke:rgb(18.431373%,30.980392%,30.980392%);stroke-opacity:0.901961;stroke-miterlimit:10;" d="M 170.664062 229.328125 C 170.664062 232.46875 168.117188 235.019531 164.976562 235.019531 C 161.835938 235.019531 159.289062 232.46875 159.289062 229.328125 C 159.289062 226.1875 161.835938 223.640625 164.976562 223.640625 C 168.117188 223.640625 170.664062 226.1875 170.664062 229.328125 "/>
<path style="fill-rule:nonzero;fill:rgb(18.431373%,30.980392%,30.980392%);fill-opacity:0.901961;stroke-width:0.708661;stroke-linecap:round;stroke-linejoin:round;stroke:rgb(18.431373%,30.980392%,30.980392%);stroke-opacity:0.901961;stroke-miterlimit:10;" d="M 291.628906 346.695312 C 291.628906 349.839844 289.082031 352.386719 285.941406 352.386719 C 282.796875 352.386719 280.25 349.839844 280.25 346.695312 C 280.25 343.554688 282.796875 341.007812 285.941406 341.007812 C 289.082031 341.007812 291.628906 343.554688 291.628906 346.695312 "/>
<path style="fill-rule:nonzero;fill:rgb(18.431373%,30.980392%,30.980392%);fill-opacity:0.901961;stroke-width:0.708661;stroke-linecap:round;stroke-linejoin:round;stroke:rgb(18.431373%,30.980392%,30.980392%);stroke-opacity:0.901961;stroke-miterlimit:10;" d="M 654.753906 71.9375 C 654.753906 75.082031 652.207031 77.628906 649.0625 77.628906 C 645.921875 77.628906 643.375 75.082031 643.375 71.9375 C 643.375 68.796875 645.921875 66.25 649.0625 66.25 C 652.207031 66.25 654.753906 68.796875 654.753906 71.9375 "/>
<path style="fill-rule:nonzero;fill:rgb(18.431373%,30.980392%,30.980392%);fill-opacity:0.901961;stroke-width:0.708661;stroke-linecap:round;stroke-linejoin:round;stroke:rgb(18.431373%,30.980392%,30.980392%);stroke-opacity:0.901961;stroke-miterlimit:10;" d="M 536.132812 148.960938 C 536.132812 152.105469 533.585938 154.652344 530.445312 154.652344 C 527.304688 154.652344 524.753906 152.105469 524.753906 148.960938 C 524.753906 145.820312 527.304688 143.273438 530.445312 143.273438 C 533.585938 143.273438 536.132812 145.820312 536.132812 148.960938 "/>
<path style="fill-rule:nonzero;fill:rgb(18.431373%,30.980392%,30.980392%);fill-opacity:0.901961;stroke-width:0.708661;stroke-linecap:round;stroke-linejoin:round;stroke:rgb(18.431373%,30.980392%,30.980392%);stroke-opacity:0.901961;stroke-miterlimit:10;" d="M 366.632812 161.855469 C 366.632812 165 364.085938 167.546875 360.945312 167.546875 C 357.800781 167.546875 355.253906 165 355.253906 161.855469 C 355.253906 158.714844 357.800781 156.167969 360.945312 156.167969 C 364.085938 156.167969 366.632812 158.714844 366.632812 161.855469 "/>
<path style="fill-rule:nonzero;fill:rgb(18.431373%,30.980392%,30.980392%);fill-opacity:0.901961;stroke-width:0.708661;stroke-linecap:round;stroke-linejoin:round;stroke:rgb(18.431373%,30.980392%,30.980392%);stroke-opacity:0.901961;stroke-miterlimit:10;" d="M 316.589844 180.851562 C 316.589844 183.992188 314.042969 186.539062 310.898438 186.539062 C 307.757812 186.539062 305.210938 183.992188 305.210938 180.851562 C 305.210938 177.707031 307.757812 175.160156 310.898438 175.160156 C 314.042969 175.160156 316.589844 177.707031 316.589844 180.851562 "/>
<path style="fill-rule:nonzero;fill:rgb(18.431373%,30.980392%,30.980392%);fill-opacity:0.901961;stroke-width:0.708661;stroke-linecap:round;stroke-linejoin:round;stroke:rgb(18.431373%,30.980392%,30.980392%);stroke-opacity:0.901961;stroke-miterlimit:10;" d="M 111.9375 343.945312 C 111.9375 347.085938 109.390625 349.632812 106.25 349.632812 C 103.105469 349.632812 100.558594 347.085938 100.558594 343.945312 C 100.558594 340.800781 103.105469 338.253906 106.25 338.253906 C 109.390625 338.253906 111.9375 340.800781 111.9375 343.945312 "/>
<path style="fill-rule:nonzero;fill:rgb(18.431373%,30.980392%,30.980392%);fill-opacity:0.901961;stroke-width:0.708661;stroke-linecap:round;stroke-linejoin:round;stroke:rgb(18.431373%,30.980392%,30.980392%);stroke-opacity:0.901961;stroke-miterlimit:10;" d="M 327.714844 201.871094 C 327.714844 205.015625 325.167969 207.5625 322.023438 207.5625 C 318.882812 207.5625 316.335938 205.015625 316.335938 201.871094 C 316.335938 198.730469 318.882812 196.183594 322.023438 196.183594 C 325.167969 196.183594 327.714844 198.730469 327.714844 201.871094 "/>
<path style="fill-rule:nonzero;fill:rgb(18.431373%,30.980392%,30.980392%);fill-opacity:0.901961;stroke-width:0.708661;stroke-linecap:round;stroke-linejoin:round;stroke:rgb(18.431373%,30.980392%,30.980392%);stroke-opacity:0.901961;stroke-miterlimit:10;" d="M 408.886719 48.289062 C 408.886719 51.429688 406.339844 53.976562 403.199219 53.976562 C 400.054688 53.976562 397.507812 51.429688 397.507812 48.289062 C 397.507812 45.144531 400.054688 42.597656 403.199219 42.597656 C 406.339844 42.597656 408.886719 45.144531 408.886719 48.289062 "/>
<path style="fill-rule:nonzero;fill:rgb(18.431373%,30.980392%,30.980392%);fill-opacity:0.901961;stroke-width:0.708661;stroke-linecap:round;stroke-linejoin:round;stroke:rgb(18.431373%,30.980392%,30.980392%);stroke-opacity:0.901961;stroke-miterlimit:10;" d="M 163.164062 319.421875 C 163.164062 322.5625 160.617188 325.109375 157.476562 325.109375 C 154.335938 325.109375 151.789062 322.5625 151.789062 319.421875 C 151.789062 316.28125 154.335938 313.734375 157.476562 313.734375 C 160.617188 313.734375 163.164062 316.28125 163.164062 319.421875 "/>
<path style="fill-rule:nonzero;fill:rgb(18.431373%,30.980392%,30.980392%);fill-opacity:0.901961;stroke-width:0.708661;stroke-linecap:round;stroke-linejoin:round;stroke:rgb(18.431373%,30.980392%,30.980392%);stroke-opacity:0.901961;stroke-miterlimit:10;" d="M 467.929688 198.492188 C 467.929688 201.632812 465.382812 204.179688 462.238281 204.179688 C 459.097656 204.179688 456.550781 201.632812 456.550781 198.492188 C 456.550781 195.351562 459.097656 192.800781 462.238281 192.800781 C 465.382812 192.800781 467.929688 195.351562 467.929688 198.492188 "/>
<path style="fill-rule:nonzero;fill:rgb(18.431373%,30.980392%,30.980392%);fill-opacity:0.901961;stroke-width:0.708661;stroke-linecap:round;stroke-linejoin:round;stroke:rgb(18.431373%,30.980392%,30.980392%);stroke-opacity:0.901961;stroke-miterlimit:10;" d="M 508.269531 55.753906 C 508.269531 58.894531 505.722656 61.441406 502.582031 61.441406 C 499.4375 61.441406 496.890625 58.894531 496.890625 55.753906 C 496.890625 52.613281 499.4375 50.066406 502.582031 50.066406 C 505.722656 50.066406 508.269531 52.613281 508.269531 55.753906 "/>
<path style="fill-rule:nonzero;fill:rgb(18.431373%,30.980392%,30.980392%);fill-opacity:0.901961;stroke-width:0.708661;stroke-linecap:round;stroke-linejoin:round;stroke:rgb(18.431373%,30.980392%,30.980392%);stroke-opacity:0.901961;stroke-miterlimit:10;" d="M 192.757812 313.699219 C 192.757812 316.839844 190.210938 319.386719 187.066406 319.386719 C 183.925781 319.386719 181.378906 316.839844 181.378906 313.699219 C 181.378906 310.554688 183.925781 308.007812 187.066406 308.007812 C 190.210938 308.007812 192.757812 310.554688 192.757812 313.699219 "/>
<path style="fill-rule:nonzero;fill:rgb(18.431373%,30.980392%,30.980392%);fill-opacity:0.901961;stroke-width:0.708661;stroke-linecap:round;stroke-linejoin:round;stroke:rgb(18.431373%,30.980392%,30.980392%);stroke-opacity:0.901961;stroke-miterlimit:10;" d="M 543.082031 103.792969 C 543.082031 106.933594 540.535156 109.480469 537.394531 109.480469 C 534.25 109.480469 531.703125 106.933594 531.703125 103.792969 C 531.703125 100.648438 534.25 98.101562 537.394531 98.101562 C 540.535156 98.101562 543.082031 100.648438 543.082031 103.792969 "/>
<path style="fill-rule:nonzero;fill:rgb(18.431373%,30.980392%,30.980392%);fill-opacity:0.901961;stroke-width:0.708661;stroke-linecap:round;stroke-linejoin:round;stroke:rgb(18.431373%,30.980392%,30.980392%);stroke-opacity:0.901961;stroke-miterlimit:10;" d="M 324.367188 243.265625 C 324.367188 246.40625 321.820312 248.953125 318.679688 248.953125 C 315.535156 248.953125 312.988281 246.40625 312.988281 243.265625 C 312.988281 240.121094 315.535156 237.574219 318.679688 237.574219 C 321.820312 237.574219 324.367188 240.121094 324.367188 243.265625 "/>
<path style="fill-rule:nonzero;fill:rgb(18.431373%,30.980392%,30.980392%);fill-opacity:0.901961;stroke-width:0.708661;stroke-linecap:round;stroke-linejoin:round;stroke:rgb(18.431373%,30.980392%,30.980392%);stroke-opacity:0.901961;stroke-miterlimit:10;" d="M 315.65625 276.882812 C 315.65625 280.027344 313.109375 282.574219 309.964844 282.574219 C 306.824219 282.574219 304.277344 280.027344 304.277344 276.882812 C 304.277344 273.742188 306.824219 271.195312 309.964844 271.195312 C 313.109375 271.195312 315.65625 273.742188 315.65625 276.882812 "/>
<path style="fill-rule:nonzero;fill:rgb(18.431373%,30.980392%,30.980392%);fill-opacity:0.901961;stroke-width:0.708661;stroke-linecap:round;stroke-linejoin:round;stroke:rgb(18.431373%,30.980392%,30.980392%);stroke-opacity:0.901961;stroke-miterlimit:10;" d="M 432.015625 304.894531 C 432.015625 308.039062 429.46875 310.585938 426.324219 310.585938 C 423.183594 310.585938 420.636719 308.039062 420.636719 304.894531 C 420.636719 301.753906 423.183594 299.207031 426.324219 299.207031 C 429.46875 299.207031 432.015625 301.753906 432.015625 304.894531 "/>
<path style="fill-rule:nonzero;fill:rgb(18.431373%,30.980392%,30.980392%);fill-opacity:0.901961;stroke-width:0.708661;stroke-linecap:round;stroke-linejoin:round;stroke:rgb(18.431373%,30.980392%,30.980392%);stroke-opacity:0.901961;stroke-miterlimit:10;" d="M 442.113281 172.507812 C 442.113281 175.648438 439.566406 178.195312 436.421875 178.195312 C 433.28125 178.195312 430.734375 175.648438 430.734375 172.507812 C 430.734375 169.367188 433.28125 166.820312 436.421875 166.820312 C 439.566406 166.820312 442.113281 169.367188 442.113281 172.507812 "/>
<path style="fill-rule:nonzero;fill:rgb(18.431373%,30.980392%,30.980392%);fill-opacity:0.901961;stroke-width:0.708661;stroke-linecap:round;stroke-linejoin:round;stroke:rgb(18.431373%,30.980392%,30.980392%);stroke-opacity:0.901961;stroke-miterlimit:10;" d="M 288.445312 163.398438 C 288.445312 166.542969 285.898438 169.089844 282.753906 169.089844 C 279.613281 169.089844 277.066406 166.542969 277.066406 163.398438 C 277.066406 160.257812 279.613281 157.710938 282.753906 157.710938 C 285.898438 157.710938 288.445312 160.257812 288.445312 163.398438 "/>
<path style="fill-rule:nonzero;fill:rgb(18.431373%,30.980392%,30.980392%);fill-opacity:0.901961;stroke-width:0.708661;stroke-linecap:round;stroke-linejoin:round;stroke:rgb(18.431373%,30.980392%,30.980392%);stroke-opacity:0.901961;stroke-miterlimit:10;" d="M 189.398438 244.660156 C 189.398438 247.800781 186.851562 250.347656 183.710938 250.347656 C 180.570312 250.347656 178.023438 247.800781 178.023438 244.660156 C 178.023438 241.515625 180.570312 238.96875 183.710938 238.96875 C 186.851562 238.96875 189.398438 241.515625 189.398438 244.660156 "/>
<path style="fill-rule:nonzero;fill:rgb(18.431373%,30.980392%,30.980392%);fill-opacity:0.901961;stroke-width:0.708661;stroke-linecap:round;stroke-linejoin:round;stroke:rgb(18.431373%,30.980392%,30.980392%);stroke-opacity:0.901961;stroke-miterlimit:10;" d="M 455.753906 249.84375 C 455.753906 252.984375 453.207031 255.53125 450.066406 255.53125 C 446.925781 255.53125 444.375 252.984375 444.375 249.84375 C 444.375 246.703125 446.925781 244.15625 450.066406 244.15625 C 453.207031 244.15625 455.753906 246.703125 455.753906 249.84375 "/>
<path style="fill-rule:nonzero;fill:rgb(18.431373%,30.980392%,30.980392%);fill-opacity:0.901961;stroke-width:0.708661;stroke-linecap:round;stroke-linejoin:round;stroke:rgb(18.431373%,30.980392%,30.980392%);stroke-opacity:0.901961;stroke-miterlimit:10;" d="M 155.351562 311.535156 C 155.351562 314.675781 152.804688 317.222656 149.664062 317.222656 C 146.523438 317.222656 143.976562 314.675781 143.976562 311.535156 C 143.976562 308.390625 146.523438 305.84375 149.664062 305.84375 C 152.804688 305.84375 155.351562 308.390625 155.351562 311.535156 "/>
<path style="fill-rule:nonzero;fill:rgb(18.431373%,30.980392%,30.980392%);fill-opacity:0.901961;stroke-width:0.708661;stroke-linecap:round;stroke-linejoin:round;stroke:rgb(18.431373%,30.980392%,30.980392%);stroke-opacity:0.901961;stroke-miterlimit:10;" d="M 38.25 299.703125 C 38.25 302.847656 35.703125 305.394531 32.5625 305.394531 C 29.417969 305.394531 26.871094 302.847656 26.871094 299.703125 C 26.871094 296.5625 29.417969 294.015625 32.5625 294.015625 C 35.703125 294.015625 38.25 296.5625 38.25 299.703125 "/>
<path style="fill-rule:nonzero;fill:rgb(18.431373%,30.980392%,30.980392%);fill-opacity:0.901961;stroke-width:0.708661;stroke-linecap:round;stroke-linejoin:round;stroke:rgb(18.431373%,30.980392%,30.980392%);stroke-opacity:0.901961;stroke-miterlimit:10;" d="M 478.535156 103.429688 C 478.535156 106.570312 475.988281 109.121094 472.847656 109.121094 C 469.703125 109.121094 467.15625 106.570312 467.15625 103.429688 C 467.15625 100.289062 469.703125 97.742188 472.847656 97.742188 C 475.988281 97.742188 478.535156 100.289062 478.535156 103.429688 "/>
<path style="fill-rule:nonzero;fill:rgb(18.431373%,30.980392%,30.980392%);fill-opacity:0.901961;stroke-width:0.708661;stroke-linecap:round;stroke-linejoin:round;stroke:rgb(18.431373%,30.980392%,30.980392%);stroke-opacity:0.901961;stroke-miterlimit:10;" d="M 490.179688 233.09375 C 490.179688 236.234375 487.632812 238.78125 484.488281 238.78125 C 481.347656 238.78125 478.800781 236.234375 478.800781 233.09375 C 478.800781 229.949219 481.347656 227.402344 484.488281 227.402344 C 487.632812 227.402344 490.179688 229.949219 490.179688 233.09375 "/>
<path style="fill-rule:nonzero;fill:rgb(18.431373%,30.980392%,30.980392%);fill-opacity:0.901961;stroke-width:0.708661;stroke-linecap:round;stroke-linejoin:round;stroke:rgb(18.431373%,30.980392%,30.980392%);stroke-opacity:0.901961;stroke-miterlimit:10;" d="M 466.675781 202.402344 C 466.675781 205.542969 464.128906 208.089844 460.988281 208.089844 C 457.84375 208.089844 455.296875 205.542969 455.296875 202.402344 C 455.296875 199.257812 457.84375 196.710938 460.988281 196.710938 C 464.128906 196.710938 466.675781 199.257812 466.675781 202.402344 "/>
<path style="fill-rule:nonzero;fill:rgb(18.431373%,30.980392%,30.980392%);fill-opacity:0.901961;stroke-width:0.708661;stroke-linecap:round;stroke-linejoin:round;stroke:rgb(18.431373%,30.980392%,30.980392%);stroke-opacity:0.901961;stroke-miterlimit:10;" d="M 42.15625 204.203125 C 42.15625 207.34375 39.609375 209.890625 36.464844 209.890625 C 33.324219 209.890625 30.777344 207.34375 30.777344 204.203125 C 30.777344 201.058594 33.324219 198.511719 36.464844 198.511719 C 39.609375 198.511719 42.15625 201.058594 42.15625 204.203125 "/>
<path style="fill-rule:nonzero;fill:rgb(18.431373%,30.980392%,30.980392%);fill-opacity:0.901961;stroke-width:0.708661;stroke-linecap:round;stroke-linejoin:round;stroke:rgb(18.431373%,30.980392%,30.980392%);stroke-opacity:0.901961;stroke-miterlimit:10;" d="M 342.5 281.511719 C 342.5 284.65625 339.953125 287.203125 336.8125 287.203125 C 333.667969 287.203125 331.121094 284.65625 331.121094 281.511719 C 331.121094 278.371094 333.667969 275.824219 336.8125 275.824219 C 339.953125 275.824219 342.5 278.371094 342.5 281.511719 "/>
<path style="fill-rule:nonzero;fill:rgb(18.431373%,30.980392%,30.980392%);fill-opacity:0.901961;stroke-width:0.708661;stroke-linecap:round;stroke-linejoin:round;stroke:rgb(18.431373%,30.980392%,30.980392%);stroke-opacity:0.901961;stroke-miterlimit:10;" d="M 343.199219 271.789062 C 343.199219 274.933594 340.652344 277.480469 337.507812 277.480469 C 334.367188 277.480469 331.820312 274.933594 331.820312 271.789062 C 331.820312 268.648438 334.367188 266.101562 337.507812 266.101562 C 340.652344 266.101562 343.199219 268.648438 343.199219 271.789062 "/>
<path style="fill-rule:nonzero;fill:rgb(18.431373%,30.980392%,30.980392%);fill-opacity:0.901961;stroke-width:0.708661;stroke-linecap:round;stroke-linejoin:round;stroke:rgb(18.431373%,30.980392%,30.980392%);stroke-opacity:0.901961;stroke-miterlimit:10;" d="M 563.445312 230.675781 C 563.445312 233.820312 560.898438 236.367188 557.753906 236.367188 C 554.613281 236.367188 552.066406 233.820312 552.066406 230.675781 C 552.066406 227.535156 554.613281 224.988281 557.753906 224.988281 C 560.898438 224.988281 563.445312 227.535156 563.445312 230.675781 "/>
<path style="fill-rule:nonzero;fill:rgb(18.431373%,30.980392%,30.980392%);fill-opacity:0.901961;stroke-width:0.708661;stroke-linecap:round;stroke-linejoin:round;stroke:rgb(18.431373%,30.980392%,30.980392%);stroke-opacity:0.901961;stroke-miterlimit:10;" d="M 360.289062 141.703125 C 360.289062 144.847656 357.742188 147.394531 354.597656 147.394531 C 351.457031 147.394531 348.910156 144.847656 348.910156 141.703125 C 348.910156 138.5625 351.457031 136.015625 354.597656 136.015625 C 357.742188 136.015625 360.289062 138.5625 360.289062 141.703125 "/>
<path style="fill-rule:nonzero;fill:rgb(18.431373%,30.980392%,30.980392%);fill-opacity:0.901961;stroke-width:0.708661;stroke-linecap:round;stroke-linejoin:round;stroke:rgb(18.431373%,30.980392%,30.980392%);stroke-opacity:0.901961;stroke-miterlimit:10;" d="M 166.960938 221.898438 C 166.960938 225.042969 164.414062 227.589844 161.273438 227.589844 C 158.128906 227.589844 155.582031 225.042969 155.582031 221.898438 C 155.582031 218.757812 158.128906 216.210938 161.273438 216.210938 C 164.414062 216.210938 166.960938 218.757812 166.960938 221.898438 "/>
<path style="fill:none;stroke-width:4.267913;stroke-linecap:butt;stroke-linejoin:round;stroke:rgb(100%,64.705882%,0%);stroke-opacity:0.901961;stroke-miterlimit:10;" d="M 0 82.703125 L 739.105469 432 "/>
</g>
</svg>
