<?xml version="1.0" encoding="UTF-8"?>
<svg xmlns="http://www.w3.org/2000/svg" xmlns:xlink="http://www.w3.org/1999/xlink" width="756pt" height="504pt" viewBox="0 0 756 504" version="1.1">
<g id="surface34">
<rect x="0" y="0" width="756" height="504" style="fill:rgb(100%,100%,100%);fill-opacity:1;stroke:none;"/>
<path style="fill:none;stroke-width:6.40187;stroke-linecap:butt;stroke-linejoin:round;stroke:rgb(90.196078%,25.490196%,45.098039%);stroke-opacity:0.298039;stroke-miterlimit:10;" d="M 0 417.980469 L 756 145.171875 "/>
<path style="fill:none;stroke-width:0.708661;stroke-linecap:round;stroke-linejoin:round;stroke:rgb(18.431373%,30.980392%,30.980392%);stroke-opacity:1;stroke-miterlimit:10;" d="M 359.339844 285.421875 C 359.339844 289.152344 356.316406 292.175781 352.585938 292.175781 C 348.851562 292.175781 345.828125 289.152344 345.828125 285.421875 C 345.828125 281.6875 348.851562 278.664062 352.585938 278.664062 C 356.316406 278.664062 359.339844 281.6875 359.339844 285.421875 "/>
<path style="fill-rule:nonzero;fill:rgb(18.431373%,30.980392%,30.980392%);fill-opacity:1;stroke-width:0.708661;stroke-linecap:round;stroke-linejoin:round;stroke:rgb(18.431373%,30.980392%,30.980392%);stroke-opacity:1;stroke-miterlimit:10;" d="M 137.957031 459.699219 C 137.957031 463.433594 134.933594 466.457031 131.203125 466.457031 C 127.472656 466.457031 124.445312 463.433594 124.445312 459.699219 C 124.445312 455.96875 127.472656 452.945312 131.203125 452.945312 C 134.933594 452.945312 137.957031 455.96875 137.957031 459.699219 "/>
<path style="fill:none;stroke-width:0.708661;stroke-linecap:round;stroke-linejoin:round;stroke:rgb(18.431373%,30.980392%,30.980392%);stroke-opacity:1;stroke-miterlimit:10;" d="M 460.148438 299.023438 C 460.148438 302.753906 457.125 305.78125 453.394531 305.78125 C 449.664062 305.78125 446.636719 302.753906 446.636719 299.023438 C 446.636719 295.292969 449.664062 292.265625 453.394531 292.265625 C 457.125 292.265625 460.148438 295.292969 460.148438 299.023438 "/>
<path style="fill-rule:nonzero;fill:rgb(18.431373%,30.980392%,30.980392%);fill-opacity:1;stroke-width:0.708661;stroke-linecap:round;stroke-linejoin:round;stroke:rgb(18.431373%,30.980392%,30.980392%);stroke-opacity:1;stroke-miterlimit:10;" d="M 336.867188 409.207031 C 336.867188 412.9375 333.84375 415.964844 330.109375 415.964844 C 326.378906 415.964844 323.355469 412.9375 323.355469 409.207031 C 323.355469 405.476562 326.378906 402.449219 330.109375 402.449219 C 333.84375 402.449219 336.867188 405.476562 336.867188 409.207031 "/>
<path style="fill-rule:nonzero;fill:rgb(18.431373%,30.980392%,30.980392%);fill-opacity:1;stroke-width:0.708661;stroke-linecap:round;stroke-linejoin:round;stroke:rgb(18.431373%,30.980392%,30.980392%);stroke-opacity:1;stroke-miterlimit:10;" d="M 231.453125 421.460938 C 231.453125 425.191406 228.425781 428.21875 224.695312 428.21875 C 220.964844 428.21875 217.941406 425.191406 217.941406 421.460938 C 217.941406 417.730469 220.964844 414.707031 224.695312 414.707031 C 228.425781 414.707031 231.453125 417.730469 231.453125 421.460938 "/>
<path style="fill:none;stroke-width:0.708661;stroke-linecap:round;stroke-linejoin:round;stroke:rgb(18.431373%,30.980392%,30.980392%);stroke-opacity:1;stroke-miterlimit:10;" d="M 397.484375 331.125 C 397.484375 334.859375 394.460938 337.882812 390.730469 337.882812 C 386.996094 337.882812 383.972656 334.859375 383.972656 331.125 C 383.972656 327.394531 386.996094 324.371094 390.730469 324.371094 C 394.460938 324.371094 397.484375 327.394531 397.484375 331.125 "/>
<path style="fill-rule:nonzero;fill:rgb(18.431373%,30.980392%,30.980392%);fill-opacity:1;stroke-width:0.708661;stroke-linecap:round;stroke-linejoin:round;stroke:rgb(18.431373%,30.980392%,30.980392%);stroke-opacity:1;stroke-miterlimit:10;" d="M 323.972656 208.066406 C 323.972656 211.796875 320.945312 214.820312 317.214844 214.820312 C 313.484375 214.820312 310.460938 211.796875 310.460938 208.066406 C 310.460938 204.332031 313.484375 201.308594 317.214844 201.308594 C 320.945312 201.308594 323.972656 204.332031 323.972656 208.066406 "/>
<path style="fill-rule:nonzero;fill:rgb(18.431373%,30.980392%,30.980392%);fill-opacity:1;stroke-width:0.708661;stroke-linecap:round;stroke-linejoin:round;stroke:rgb(18.431373%,30.980392%,30.980392%);stroke-opacity:1;stroke-miterlimit:10;" d="M 278.480469 216.007812 C 278.480469 219.742188 275.453125 222.765625 271.722656 222.765625 C 267.992188 222.765625 264.964844 219.742188 264.964844 216.007812 C 264.964844 212.277344 267.992188 209.253906 271.722656 209.253906 C 275.453125 209.253906 278.480469 212.277344 278.480469 216.007812 "/>
<path style="fill:none;stroke-width:0.708661;stroke-linecap:round;stroke-linejoin:round;stroke:rgb(18.431373%,30.980392%,30.980392%);stroke-opacity:1;stroke-miterlimit:10;" d="M 484.644531 246.609375 C 484.644531 250.34375 481.617188 253.367188 477.886719 253.367188 C 474.15625 253.367188 471.132812 250.34375 471.132812 246.609375 C 471.132812 242.878906 474.15625 239.855469 477.886719 239.855469 C 481.617188 239.855469 484.644531 242.878906 484.644531 246.609375 "/>
<path style="fill:none;stroke-width:0.708661;stroke-linecap:round;stroke-linejoin:round;stroke:rgb(18.431373%,30.980392%,30.980392%);stroke-opacity:1;stroke-miterlimit:10;" d="M 587.515625 251.660156 C 587.515625 255.394531 584.492188 258.417969 580.757812 258.417969 C 577.027344 258.417969 574.003906 255.394531 574.003906 251.660156 C 574.003906 247.929688 577.027344 244.90625 580.757812 244.90625 C 584.492188 244.90625 587.515625 247.929688 587.515625 251.660156 "/>
<path style="fill:none;stroke-width:0.708661;stroke-linecap:round;stroke-linejoin:round;stroke:rgb(18.431373%,30.980392%,30.980392%);stroke-opacity:1;stroke-miterlimit:10;" d="M 243.046875 433.875 C 243.046875 437.609375 240.019531 440.632812 236.289062 440.632812 C 232.558594 440.632812 229.53125 437.609375 229.53125 433.875 C 229.53125 430.144531 232.558594 427.121094 236.289062 427.121094 C 240.019531 427.121094 243.046875 430.144531 243.046875 433.875 "/>
<path style="fill:none;stroke-width:0.708661;stroke-linecap:round;stroke-linejoin:round;stroke:rgb(18.431373%,30.980392%,30.980392%);stroke-opacity:1;stroke-miterlimit:10;" d="M 246.230469 427.261719 C 246.230469 430.992188 243.207031 434.019531 239.476562 434.019531 C 235.746094 434.019531 232.71875 430.992188 232.71875 427.261719 C 232.71875 423.53125 235.746094 420.503906 239.476562 420.503906 C 243.207031 420.503906 246.230469 423.53125 246.230469 427.261719 "/>
<path style="fill:none;stroke-width:0.708661;stroke-linecap:round;stroke-linejoin:round;stroke:rgb(18.431373%,30.980392%,30.980392%);stroke-opacity:1;stroke-miterlimit:10;" d="M 395.890625 241.460938 C 395.890625 245.191406 392.867188 248.21875 389.136719 248.21875 C 385.40625 248.21875 382.378906 245.191406 382.378906 241.460938 C 382.378906 237.730469 385.40625 234.707031 389.136719 234.707031 C 392.867188 234.707031 395.890625 237.730469 395.890625 241.460938 "/>
<path style="fill:none;stroke-width:0.708661;stroke-linecap:round;stroke-linejoin:round;stroke:rgb(18.431373%,30.980392%,30.980392%);stroke-opacity:1;stroke-miterlimit:10;" d="M 319.847656 242.878906 C 319.847656 246.609375 316.824219 249.636719 313.089844 249.636719 C 309.359375 249.636719 306.335938 246.609375 306.335938 242.878906 C 306.335938 239.148438 309.359375 236.125 313.089844 236.125 C 316.824219 236.125 319.847656 239.148438 319.847656 242.878906 "/>
<path style="fill-rule:nonzero;fill:rgb(18.431373%,30.980392%,30.980392%);fill-opacity:1;stroke-width:0.708661;stroke-linecap:round;stroke-linejoin:round;stroke:rgb(18.431373%,30.980392%,30.980392%);stroke-opacity:1;stroke-miterlimit:10;" d="M 506.640625 294.535156 C 506.640625 298.265625 503.617188 301.289062 499.882812 301.289062 C 496.152344 301.289062 493.128906 298.265625 493.128906 294.535156 C 493.128906 290.800781 496.152344 287.777344 499.882812 287.777344 C 503.617188 287.777344 506.640625 290.800781 506.640625 294.535156 "/>
<path style="fill:none;stroke-width:0.708661;stroke-linecap:round;stroke-linejoin:round;stroke:rgb(18.431373%,30.980392%,30.980392%);stroke-opacity:1;stroke-miterlimit:10;" d="M 236.5625 255.417969 C 236.5625 259.148438 233.539062 262.171875 229.804688 262.171875 C 226.074219 262.171875 223.050781 259.148438 223.050781 255.417969 C 223.050781 251.6875 226.074219 248.660156 229.804688 248.660156 C 233.539062 248.660156 236.5625 251.6875 236.5625 255.417969 "/>
<path style="fill:none;stroke-width:0.708661;stroke-linecap:round;stroke-linejoin:round;stroke:rgb(18.431373%,30.980392%,30.980392%);stroke-opacity:1;stroke-miterlimit:10;" d="M 413.273438 291.492188 C 413.273438 295.222656 410.25 298.246094 406.515625 298.246094 C 402.785156 298.246094 399.761719 295.222656 399.761719 291.492188 C 399.761719 287.757812 402.785156 284.734375 406.515625 284.734375 C 410.25 284.734375 413.273438 287.757812 413.273438 291.492188 "/>
<path style="fill-rule:nonzero;fill:rgb(18.431373%,30.980392%,30.980392%);fill-opacity:1;stroke-width:0.708661;stroke-linecap:round;stroke-linejoin:round;stroke:rgb(18.431373%,30.980392%,30.980392%);stroke-opacity:1;stroke-miterlimit:10;" d="M 503.933594 367.917969 C 503.933594 371.648438 500.90625 374.671875 497.175781 374.671875 C 493.445312 374.671875 490.417969 371.648438 490.417969 367.917969 C 490.417969 364.1875 493.445312 361.160156 497.175781 361.160156 C 500.90625 361.160156 503.933594 364.1875 503.933594 367.917969 "/>
<path style="fill-rule:nonzero;fill:rgb(18.431373%,30.980392%,30.980392%);fill-opacity:1;stroke-width:0.708661;stroke-linecap:round;stroke-linejoin:round;stroke:rgb(18.431373%,30.980392%,30.980392%);stroke-opacity:1;stroke-miterlimit:10;" d="M 727.863281 185.589844 C 727.863281 189.320312 724.835938 192.347656 721.105469 192.347656 C 717.375 192.347656 714.351562 189.320312 714.351562 185.589844 C 714.351562 181.859375 717.375 178.835938 721.105469 178.835938 C 724.835938 178.835938 727.863281 181.859375 727.863281 185.589844 "/>
<path style="fill:none;stroke-width:0.708661;stroke-linecap:round;stroke-linejoin:round;stroke:rgb(18.431373%,30.980392%,30.980392%);stroke-opacity:1;stroke-miterlimit:10;" d="M 374.609375 284.441406 C 374.609375 288.171875 371.585938 291.195312 367.855469 291.195312 C 364.125 291.195312 361.097656 288.171875 361.097656 284.441406 C 361.097656 280.707031 364.125 277.683594 367.855469 277.683594 C 371.585938 277.683594 374.609375 280.707031 374.609375 284.441406 "/>
<path style="fill:none;stroke-width:0.708661;stroke-linecap:round;stroke-linejoin:round;stroke:rgb(18.431373%,30.980392%,30.980392%);stroke-opacity:1;stroke-miterlimit:10;" d="M 524.929688 304.882812 C 524.929688 308.613281 521.90625 311.640625 518.175781 311.640625 C 514.441406 311.640625 511.417969 308.613281 511.417969 304.882812 C 511.417969 301.152344 514.441406 298.125 518.175781 298.125 C 521.90625 298.125 524.929688 301.152344 524.929688 304.882812 "/>
<path style="fill:none;stroke-width:0.708661;stroke-linecap:round;stroke-linejoin:round;stroke:rgb(18.431373%,30.980392%,30.980392%);stroke-opacity:1;stroke-miterlimit:10;" d="M 415.140625 337.261719 C 415.140625 340.992188 412.117188 344.015625 408.382812 344.015625 C 404.652344 344.015625 401.628906 340.992188 401.628906 337.261719 C 401.628906 333.527344 404.652344 330.503906 408.382812 330.503906 C 412.117188 330.503906 415.140625 333.527344 415.140625 337.261719 "/>
<path style="fill:none;stroke-width:0.708661;stroke-linecap:round;stroke-linejoin:round;stroke:rgb(18.431373%,30.980392%,30.980392%);stroke-opacity:1;stroke-miterlimit:10;" d="M 380.824219 204.898438 C 380.824219 208.628906 377.800781 211.65625 374.066406 211.65625 C 370.335938 211.65625 367.3125 208.628906 367.3125 204.898438 C 367.3125 201.167969 370.335938 198.144531 374.066406 198.144531 C 377.800781 198.144531 380.824219 201.167969 380.824219 204.898438 "/>
<path style="fill:none;stroke-width:0.708661;stroke-linecap:round;stroke-linejoin:round;stroke:rgb(18.431373%,30.980392%,30.980392%);stroke-opacity:1;stroke-miterlimit:10;" d="M 357.660156 209.101562 C 357.660156 212.832031 354.636719 215.859375 350.90625 215.859375 C 347.175781 215.859375 344.148438 212.832031 344.148438 209.101562 C 344.148438 205.371094 347.175781 202.34375 350.90625 202.34375 C 354.636719 202.34375 357.660156 205.371094 357.660156 209.101562 "/>
<path style="fill:none;stroke-width:0.708661;stroke-linecap:round;stroke-linejoin:round;stroke:rgb(18.431373%,30.980392%,30.980392%);stroke-opacity:1;stroke-miterlimit:10;" d="M 494.09375 110.035156 C 494.09375 113.765625 491.070312 116.792969 487.339844 116.792969 C 483.609375 116.792969 480.582031 113.765625 480.582031 110.035156 C 480.582031 106.304688 483.609375 103.277344 487.339844 103.277344 C 491.070312 103.277344 494.09375 106.304688 494.09375 110.035156 "/>
<path style="fill:none;stroke-width:0.708661;stroke-linecap:round;stroke-linejoin:round;stroke:rgb(18.431373%,30.980392%,30.980392%);stroke-opacity:1;stroke-miterlimit:10;" d="M 362.695312 399.457031 C 362.695312 403.1875 359.671875 406.214844 355.9375 406.214844 C 352.207031 406.214844 349.183594 403.1875 349.183594 399.457031 C 349.183594 395.726562 352.207031 392.703125 355.9375 392.703125 C 359.671875 392.703125 362.695312 395.726562 362.695312 399.457031 "/>
<path style="fill:none;stroke-width:0.708661;stroke-linecap:round;stroke-linejoin:round;stroke:rgb(18.431373%,30.980392%,30.980392%);stroke-opacity:1;stroke-miterlimit:10;" d="M 307.464844 324.0625 C 307.464844 327.792969 304.4375 330.820312 300.707031 330.820312 C 296.976562 330.820312 293.953125 327.792969 293.953125 324.0625 C 293.953125 320.332031 296.976562 317.304688 300.707031 317.304688 C 304.4375 317.304688 307.464844 320.332031 307.464844 324.0625 "/>
<path style="fill:none;stroke-width:0.708661;stroke-linecap:round;stroke-linejoin:round;stroke:rgb(18.431373%,30.980392%,30.980392%);stroke-opacity:1;stroke-miterlimit:10;" d="M 267.140625 279.355469 C 267.140625 283.089844 264.113281 286.113281 260.382812 286.113281 C 256.652344 286.113281 253.628906 283.089844 253.628906 279.355469 C 253.628906 275.625 256.652344 272.601562 260.382812 272.601562 C 264.113281 272.601562 267.140625 275.625 267.140625 279.355469 "/>
<path style="fill:none;stroke-width:0.708661;stroke-linecap:round;stroke-linejoin:round;stroke:rgb(18.431373%,30.980392%,30.980392%);stroke-opacity:1;stroke-miterlimit:10;" d="M 91.441406 335.597656 C 91.441406 339.328125 88.417969 342.355469 84.6875 342.355469 C 80.953125 342.355469 77.929688 339.328125 77.929688 335.597656 C 77.929688 331.867188 80.953125 328.84375 84.6875 328.84375 C 88.417969 328.84375 91.441406 331.867188 91.441406 335.597656 "/>
<path style="fill-rule:nonzero;fill:rgb(18.431373%,30.980392%,30.980392%);fill-opacity:1;stroke-width:0.708661;stroke-linecap:round;stroke-linejoin:round;stroke:rgb(18.431373%,30.980392%,30.980392%);stroke-opacity:1;stroke-miterlimit:10;" d="M 502.578125 259.296875 C 502.578125 263.027344 499.554688 266.050781 495.824219 266.050781 C 492.09375 266.050781 489.066406 263.027344 489.066406 259.296875 C 489.066406 255.5625 492.09375 252.539062 495.824219 252.539062 C 499.554688 252.539062 502.578125 255.5625 502.578125 259.296875 "/>
<path style="fill-rule:nonzero;fill:rgb(18.431373%,30.980392%,30.980392%);fill-opacity:1;stroke-width:0.708661;stroke-linecap:round;stroke-linejoin:round;stroke:rgb(18.431373%,30.980392%,30.980392%);stroke-opacity:1;stroke-miterlimit:10;" d="M 305.316406 200.65625 C 305.316406 204.386719 302.292969 207.414062 298.5625 207.414062 C 294.828125 207.414062 291.804688 204.386719 291.804688 200.65625 C 291.804688 196.925781 294.828125 193.902344 298.5625 193.902344 C 302.292969 193.902344 305.316406 196.925781 305.316406 200.65625 "/>
<path style="fill-rule:nonzero;fill:rgb(18.431373%,30.980392%,30.980392%);fill-opacity:1;stroke-width:0.708661;stroke-linecap:round;stroke-linejoin:round;stroke:rgb(18.431373%,30.980392%,30.980392%);stroke-opacity:1;stroke-miterlimit:10;" d="M 432.476562 60.394531 C 432.476562 64.125 429.453125 67.148438 425.722656 67.148438 C 421.992188 67.148438 418.964844 64.125 418.964844 60.394531 C 418.964844 56.664062 421.992188 53.636719 425.722656 53.636719 C 429.453125 53.636719 432.476562 56.664062 432.476562 60.394531 "/>
<path style="fill:none;stroke-width:0.708661;stroke-linecap:round;stroke-linejoin:round;stroke:rgb(18.431373%,30.980392%,30.980392%);stroke-opacity:1;stroke-miterlimit:10;" d="M 465.785156 273.054688 C 465.785156 276.785156 462.757812 279.8125 459.027344 279.8125 C 455.296875 279.8125 452.273438 276.785156 452.273438 273.054688 C 452.273438 269.324219 455.296875 266.300781 459.027344 266.300781 C 462.757812 266.300781 465.785156 269.324219 465.785156 273.054688 "/>
<path style="fill-rule:nonzero;fill:rgb(18.431373%,30.980392%,30.980392%);fill-opacity:1;stroke-width:0.708661;stroke-linecap:round;stroke-linejoin:round;stroke:rgb(18.431373%,30.980392%,30.980392%);stroke-opacity:1;stroke-miterlimit:10;" d="M 484.851562 357.839844 C 484.851562 361.570312 481.828125 364.597656 478.097656 364.597656 C 474.363281 364.597656 471.339844 361.570312 471.339844 357.839844 C 471.339844 354.109375 474.363281 351.085938 478.097656 351.085938 C 481.828125 351.085938 484.851562 354.109375 484.851562 357.839844 "/>
<path style="fill:none;stroke-width:0.708661;stroke-linecap:round;stroke-linejoin:round;stroke:rgb(18.431373%,30.980392%,30.980392%);stroke-opacity:1;stroke-miterlimit:10;" d="M 178.847656 367.714844 C 178.847656 371.445312 175.824219 374.472656 172.09375 374.472656 C 168.363281 374.472656 165.335938 371.445312 165.335938 367.714844 C 165.335938 363.984375 168.363281 360.960938 172.09375 360.960938 C 175.824219 360.960938 178.847656 363.984375 178.847656 367.714844 "/>
<path style="fill:none;stroke-width:0.708661;stroke-linecap:round;stroke-linejoin:round;stroke:rgb(18.431373%,30.980392%,30.980392%);stroke-opacity:1;stroke-miterlimit:10;" d="M 646.238281 333.566406 C 646.238281 337.296875 643.214844 340.320312 639.484375 340.320312 C 635.75 340.320312 632.726562 337.296875 632.726562 333.566406 C 632.726562 329.835938 635.75 326.808594 639.484375 326.808594 C 643.214844 326.808594 646.238281 329.835938 646.238281 333.566406 "/>
<path style="fill:none;stroke-width:0.708661;stroke-linecap:round;stroke-linejoin:round;stroke:rgb(18.431373%,30.980392%,30.980392%);stroke-opacity:1;stroke-miterlimit:10;" d="M 635.285156 139.539062 C 635.285156 143.269531 632.261719 146.292969 628.53125 146.292969 C 624.796875 146.292969 621.773438 143.269531 621.773438 139.539062 C 621.773438 135.804688 624.796875 132.78125 628.53125 132.78125 C 632.261719 132.78125 635.285156 135.804688 635.285156 139.539062 "/>
<path style="fill:none;stroke-width:0.708661;stroke-linecap:round;stroke-linejoin:round;stroke:rgb(18.431373%,30.980392%,30.980392%);stroke-opacity:1;stroke-miterlimit:10;" d="M 543.976562 330.652344 C 543.976562 334.386719 540.953125 337.410156 537.222656 337.410156 C 533.488281 337.410156 530.464844 334.386719 530.464844 330.652344 C 530.464844 326.921875 533.488281 323.898438 537.222656 323.898438 C 540.953125 323.898438 543.976562 326.921875 543.976562 330.652344 "/>
<path style="fill:none;stroke-width:0.708661;stroke-linecap:round;stroke-linejoin:round;stroke:rgb(18.431373%,30.980392%,30.980392%);stroke-opacity:1;stroke-miterlimit:10;" d="M 407.84375 208.164062 C 407.84375 211.894531 404.816406 214.917969 401.085938 214.917969 C 397.355469 214.917969 394.328125 211.894531 394.328125 208.164062 C 394.328125 204.433594 397.355469 201.40625 401.085938 201.40625 C 404.816406 201.40625 407.84375 204.433594 407.84375 208.164062 "/>
<path style="fill:none;stroke-width:0.708661;stroke-linecap:round;stroke-linejoin:round;stroke:rgb(18.431373%,30.980392%,30.980392%);stroke-opacity:1;stroke-miterlimit:10;" d="M 335.496094 348.167969 C 335.496094 351.902344 332.472656 354.925781 328.742188 354.925781 C 325.007812 354.925781 321.984375 351.902344 321.984375 348.167969 C 321.984375 344.4375 325.007812 341.414062 328.742188 341.414062 C 332.472656 341.414062 335.496094 344.4375 335.496094 348.167969 "/>
<path style="fill-rule:nonzero;fill:rgb(18.431373%,30.980392%,30.980392%);fill-opacity:1;stroke-width:0.708661;stroke-linecap:round;stroke-linejoin:round;stroke:rgb(18.431373%,30.980392%,30.980392%);stroke-opacity:1;stroke-miterlimit:10;" d="M 410.933594 298.546875 C 410.933594 302.277344 407.910156 305.300781 404.175781 305.300781 C 400.445312 305.300781 397.421875 302.277344 397.421875 298.546875 C 397.421875 294.816406 400.445312 291.789062 404.175781 291.789062 C 407.910156 291.789062 410.933594 294.816406 410.933594 298.546875 "/>
<path style="fill:none;stroke-width:0.708661;stroke-linecap:round;stroke-linejoin:round;stroke:rgb(18.431373%,30.980392%,30.980392%);stroke-opacity:1;stroke-miterlimit:10;" d="M 492.765625 326.683594 C 492.765625 330.414062 489.742188 333.441406 486.007812 333.441406 C 482.277344 333.441406 479.253906 330.414062 479.253906 326.683594 C 479.253906 322.953125 482.277344 319.925781 486.007812 319.925781 C 489.742188 319.925781 492.765625 322.953125 492.765625 326.683594 "/>
<path style="fill:none;stroke-width:0.708661;stroke-linecap:round;stroke-linejoin:round;stroke:rgb(18.431373%,30.980392%,30.980392%);stroke-opacity:1;stroke-miterlimit:10;" d="M 472.84375 226.914062 C 472.84375 230.644531 469.816406 233.667969 466.085938 233.667969 C 462.355469 233.667969 459.332031 230.644531 459.332031 226.914062 C 459.332031 223.183594 462.355469 220.15625 466.085938 220.15625 C 469.816406 220.15625 472.84375 223.183594 472.84375 226.914062 "/>
<path style="fill:none;stroke-width:0.708661;stroke-linecap:round;stroke-linejoin:round;stroke:rgb(18.431373%,30.980392%,30.980392%);stroke-opacity:1;stroke-miterlimit:10;" d="M 255.25 364.515625 C 255.25 368.246094 252.226562 371.273438 248.496094 371.273438 C 244.761719 371.273438 241.738281 368.246094 241.738281 364.515625 C 241.738281 360.785156 244.761719 357.757812 248.496094 357.757812 C 252.226562 357.757812 255.25 360.785156 255.25 364.515625 "/>
<path style="fill-rule:nonzero;fill:rgb(18.431373%,30.980392%,30.980392%);fill-opacity:1;stroke-width:0.708661;stroke-linecap:round;stroke-linejoin:round;stroke:rgb(18.431373%,30.980392%,30.980392%);stroke-opacity:1;stroke-miterlimit:10;" d="M 276.929688 366.390625 C 276.929688 370.125 273.90625 373.148438 270.175781 373.148438 C 266.441406 373.148438 263.417969 370.125 263.417969 366.390625 C 263.417969 362.660156 266.441406 359.636719 270.175781 359.636719 C 273.90625 359.636719 276.929688 362.660156 276.929688 366.390625 "/>
<path style="fill:none;stroke-width:0.708661;stroke-linecap:round;stroke-linejoin:round;stroke:rgb(18.431373%,30.980392%,30.980392%);stroke-opacity:1;stroke-miterlimit:10;" d="M 306.507812 332.375 C 306.507812 336.105469 303.484375 339.132812 299.753906 339.132812 C 296.019531 339.132812 292.996094 336.105469 292.996094 332.375 C 292.996094 328.644531 296.019531 325.617188 299.753906 325.617188 C 303.484375 325.617188 306.507812 328.644531 306.507812 332.375 "/>
<path style="fill-rule:nonzero;fill:rgb(18.431373%,30.980392%,30.980392%);fill-opacity:1;stroke-width:0.708661;stroke-linecap:round;stroke-linejoin:round;stroke:rgb(18.431373%,30.980392%,30.980392%);stroke-opacity:1;stroke-miterlimit:10;" d="M 186.816406 281.039062 C 186.816406 284.769531 183.792969 287.796875 180.0625 287.796875 C 176.332031 287.796875 173.304688 284.769531 173.304688 281.039062 C 173.304688 277.308594 176.332031 274.285156 180.0625 274.285156 C 183.792969 274.285156 186.816406 277.308594 186.816406 281.039062 "/>
<path style="fill:none;stroke-width:0.708661;stroke-linecap:round;stroke-linejoin:round;stroke:rgb(18.431373%,30.980392%,30.980392%);stroke-opacity:1;stroke-miterlimit:10;" d="M 460.128906 353.953125 C 460.128906 357.683594 457.105469 360.707031 453.371094 360.707031 C 449.640625 360.707031 446.617188 357.683594 446.617188 353.953125 C 446.617188 350.222656 449.640625 347.195312 453.371094 347.195312 C 457.105469 347.195312 460.128906 350.222656 460.128906 353.953125 "/>
<path style="fill:none;stroke-width:0.708661;stroke-linecap:round;stroke-linejoin:round;stroke:rgb(18.431373%,30.980392%,30.980392%);stroke-opacity:1;stroke-miterlimit:10;" d="M 407.058594 290.269531 C 407.058594 294 404.035156 297.023438 400.304688 297.023438 C 396.570312 297.023438 393.546875 294 393.546875 290.269531 C 393.546875 286.539062 396.570312 283.511719 400.304688 283.511719 C 404.035156 283.511719 407.058594 286.539062 407.058594 290.269531 "/>
<path style="fill-rule:nonzero;fill:rgb(18.431373%,30.980392%,30.980392%);fill-opacity:1;stroke-width:0.708661;stroke-linecap:round;stroke-linejoin:round;stroke:rgb(18.431373%,30.980392%,30.980392%);stroke-opacity:1;stroke-miterlimit:10;" d="M 596.824219 230.714844 C 596.824219 234.445312 593.800781 237.46875 590.070312 237.46875 C 586.339844 237.46875 583.3125 234.445312 583.3125 230.714844 C 583.3125 226.980469 586.339844 223.957031 590.070312 223.957031 C 593.800781 223.957031 596.824219 226.980469 596.824219 230.714844 "/>
<path style="fill:none;stroke-width:0.708661;stroke-linecap:round;stroke-linejoin:round;stroke:rgb(18.431373%,30.980392%,30.980392%);stroke-opacity:1;stroke-miterlimit:10;" d="M 264.191406 414.601562 C 264.191406 418.332031 261.167969 421.359375 257.4375 421.359375 C 253.703125 421.359375 250.679688 418.332031 250.679688 414.601562 C 250.679688 410.871094 253.703125 407.84375 257.4375 407.84375 C 261.167969 407.84375 264.191406 410.871094 264.191406 414.601562 "/>
<path style="fill:none;stroke-width:0.708661;stroke-linecap:round;stroke-linejoin:round;stroke:rgb(18.431373%,30.980392%,30.980392%);stroke-opacity:1;stroke-miterlimit:10;" d="M 235.429688 389.226562 C 235.429688 392.957031 232.402344 395.984375 228.671875 395.984375 C 224.941406 395.984375 221.914062 392.957031 221.914062 389.226562 C 221.914062 385.496094 224.941406 382.472656 228.671875 382.472656 C 232.402344 382.472656 235.429688 385.496094 235.429688 389.226562 "/>
<path style="fill:none;stroke-width:0.708661;stroke-linecap:round;stroke-linejoin:round;stroke:rgb(18.431373%,30.980392%,30.980392%);stroke-opacity:1;stroke-miterlimit:10;" d="M 543.183594 136.617188 C 543.183594 140.351562 540.15625 143.375 536.425781 143.375 C 532.695312 143.375 529.667969 140.351562 529.667969 136.617188 C 529.667969 132.886719 532.695312 129.863281 536.425781 129.863281 C 540.15625 129.863281 543.183594 132.886719 543.183594 136.617188 "/>
<path style="fill-rule:nonzero;fill:rgb(18.431373%,30.980392%,30.980392%);fill-opacity:1;stroke-width:0.708661;stroke-linecap:round;stroke-linejoin:round;stroke:rgb(18.431373%,30.980392%,30.980392%);stroke-opacity:1;stroke-miterlimit:10;" d="M 386.949219 326.867188 C 386.949219 330.597656 383.921875 333.625 380.191406 333.625 C 376.460938 333.625 373.4375 330.597656 373.4375 326.867188 C 373.4375 323.136719 376.460938 320.113281 380.191406 320.113281 C 383.921875 320.113281 386.949219 323.136719 386.949219 326.867188 "/>
<path style="fill:none;stroke-width:0.708661;stroke-linecap:round;stroke-linejoin:round;stroke:rgb(18.431373%,30.980392%,30.980392%);stroke-opacity:1;stroke-miterlimit:10;" d="M 273.148438 326.230469 C 273.148438 329.960938 270.125 332.988281 266.390625 332.988281 C 262.660156 332.988281 259.636719 329.960938 259.636719 326.230469 C 259.636719 322.5 262.660156 319.472656 266.390625 319.472656 C 270.125 319.472656 273.148438 322.5 273.148438 326.230469 "/>
<path style="fill:none;stroke-width:0.708661;stroke-linecap:round;stroke-linejoin:round;stroke:rgb(18.431373%,30.980392%,30.980392%);stroke-opacity:1;stroke-miterlimit:10;" d="M 443.84375 351.082031 C 443.84375 354.8125 440.820312 357.839844 437.085938 357.839844 C 433.355469 357.839844 430.332031 354.8125 430.332031 351.082031 C 430.332031 347.351562 433.355469 344.328125 437.085938 344.328125 C 440.820312 344.328125 443.84375 347.351562 443.84375 351.082031 "/>
<path style="fill:none;stroke-width:0.708661;stroke-linecap:round;stroke-linejoin:round;stroke:rgb(18.431373%,30.980392%,30.980392%);stroke-opacity:1;stroke-miterlimit:10;" d="M 453.613281 296.816406 C 453.613281 300.550781 450.585938 303.574219 446.855469 303.574219 C 443.125 303.574219 440.097656 300.550781 440.097656 296.816406 C 440.097656 293.085938 443.125 290.0625 446.855469 290.0625 C 450.585938 290.0625 453.613281 293.085938 453.613281 296.816406 "/>
<path style="fill:none;stroke-width:0.708661;stroke-linecap:round;stroke-linejoin:round;stroke:rgb(18.431373%,30.980392%,30.980392%);stroke-opacity:1;stroke-miterlimit:10;" d="M 307.308594 331 C 307.308594 334.730469 304.285156 337.753906 300.550781 337.753906 C 296.820312 337.753906 293.796875 334.730469 293.796875 331 C 293.796875 327.269531 296.820312 324.242188 300.550781 324.242188 C 304.285156 324.242188 307.308594 327.269531 307.308594 331 "/>
<path style="fill:none;stroke-width:0.708661;stroke-linecap:round;stroke-linejoin:round;stroke:rgb(18.431373%,30.980392%,30.980392%);stroke-opacity:1;stroke-miterlimit:10;" d="M 603.675781 23.4375 C 603.675781 27.171875 600.652344 30.195312 596.921875 30.195312 C 593.1875 30.195312 590.164062 27.171875 590.164062 23.4375 C 590.164062 19.707031 593.1875 16.683594 596.921875 16.683594 C 600.652344 16.683594 603.675781 19.707031 603.675781 23.4375 "/>
<path style="fill-rule:nonzero;fill:rgb(18.431373%,30.980392%,30.980392%);fill-opacity:1;stroke-width:0.708661;stroke-linecap:round;stroke-linejoin:round;stroke:rgb(18.431373%,30.980392%,30.980392%);stroke-opacity:1;stroke-miterlimit:10;" d="M 427.25 248.960938 C 427.25 252.691406 424.222656 255.71875 420.492188 255.71875 C 416.761719 255.71875 413.738281 252.691406 413.738281 248.960938 C 413.738281 245.230469 416.761719 242.203125 420.492188 242.203125 C 424.222656 242.203125 427.25 245.230469 427.25 248.960938 "/>
<path style="fill:none;stroke-width:0.708661;stroke-linecap:round;stroke-linejoin:round;stroke:rgb(18.431373%,30.980392%,30.980392%);stroke-opacity:1;stroke-miterlimit:10;" d="M 29.988281 492.222656 C 29.988281 495.953125 26.964844 498.976562 23.234375 498.976562 C 19.503906 498.976562 16.476562 495.953125 16.476562 492.222656 C 16.476562 488.488281 19.503906 485.464844 23.234375 485.464844 C 26.964844 485.464844 29.988281 488.488281 29.988281 492.222656 "/>
<path style="fill:none;stroke-width:0.708661;stroke-linecap:round;stroke-linejoin:round;stroke:rgb(18.431373%,30.980392%,30.980392%);stroke-opacity:1;stroke-miterlimit:10;" d="M 90.421875 406.136719 C 90.421875 409.871094 87.398438 412.894531 83.664062 412.894531 C 79.933594 412.894531 76.910156 409.871094 76.910156 406.136719 C 76.910156 402.40625 79.933594 399.382812 83.664062 399.382812 C 87.398438 399.382812 90.421875 402.40625 90.421875 406.136719 "/>
<path style="fill-rule:nonzero;fill:rgb(18.431373%,30.980392%,30.980392%);fill-opacity:1;stroke-width:0.708661;stroke-linecap:round;stroke-linejoin:round;stroke:rgb(18.431373%,30.980392%,30.980392%);stroke-opacity:1;stroke-miterlimit:10;" d="M 362.558594 212.285156 C 362.558594 216.015625 359.535156 219.039062 355.800781 219.039062 C 352.070312 219.039062 349.046875 216.015625 349.046875 212.285156 C 349.046875 208.554688 352.070312 205.527344 355.800781 205.527344 C 359.535156 205.527344 362.558594 208.554688 362.558594 212.285156 "/>
<path style="fill-rule:nonzero;fill:rgb(18.431373%,30.980392%,30.980392%);fill-opacity:1;stroke-width:0.708661;stroke-linecap:round;stroke-linejoin:round;stroke:rgb(18.431373%,30.980392%,30.980392%);stroke-opacity:1;stroke-miterlimit:10;" d="M 296.957031 381.050781 C 296.957031 384.78125 293.933594 387.808594 290.199219 387.808594 C 286.46875 387.808594 283.445312 384.78125 283.445312 381.050781 C 283.445312 377.320312 286.46875 374.296875 290.199219 374.296875 C 293.933594 374.296875 296.957031 377.320312 296.957031 381.050781 "/>
<path style="fill:none;stroke-width:0.708661;stroke-linecap:round;stroke-linejoin:round;stroke:rgb(18.431373%,30.980392%,30.980392%);stroke-opacity:1;stroke-miterlimit:10;" d="M 321.097656 276.507812 C 321.097656 280.238281 318.070312 283.261719 314.339844 283.261719 C 310.609375 283.261719 307.582031 280.238281 307.582031 276.507812 C 307.582031 272.773438 310.609375 269.75 314.339844 269.75 C 318.070312 269.75 321.097656 272.773438 321.097656 276.507812 "/>
<path style="fill:none;stroke-width:0.708661;stroke-linecap:round;stroke-linejoin:round;stroke:rgb(18.431373%,30.980392%,30.980392%);stroke-opacity:1;stroke-miterlimit:10;" d="M 382.046875 243.203125 C 382.046875 246.933594 379.023438 249.960938 375.292969 249.960938 C 371.5625 249.960938 368.535156 246.933594 368.535156 243.203125 C 368.535156 239.472656 371.5625 236.449219 375.292969 236.449219 C 379.023438 236.449219 382.046875 239.472656 382.046875 243.203125 "/>
<path style="fill-rule:nonzero;fill:rgb(18.431373%,30.980392%,30.980392%);fill-opacity:1;stroke-width:0.708661;stroke-linecap:round;stroke-linejoin:round;stroke:rgb(18.431373%,30.980392%,30.980392%);stroke-opacity:1;stroke-miterlimit:10;" d="M 353.832031 322.050781 C 353.832031 325.78125 350.804688 328.804688 347.074219 328.804688 C 343.34375 328.804688 340.316406 325.78125 340.316406 322.050781 C 340.316406 318.320312 343.34375 315.292969 347.074219 315.292969 C 350.804688 315.292969 353.832031 318.320312 353.832031 322.050781 "/>
<path style="fill:none;stroke-width:0.708661;stroke-linecap:round;stroke-linejoin:round;stroke:rgb(18.431373%,30.980392%,30.980392%);stroke-opacity:1;stroke-miterlimit:10;" d="M 293.679688 274.535156 C 293.679688 278.265625 290.65625 281.292969 286.925781 281.292969 C 283.195312 281.292969 280.167969 278.265625 280.167969 274.535156 C 280.167969 270.804688 283.195312 267.78125 286.925781 267.78125 C 290.65625 267.78125 293.679688 270.804688 293.679688 274.535156 "/>
<path style="fill-rule:nonzero;fill:rgb(18.431373%,30.980392%,30.980392%);fill-opacity:1;stroke-width:0.708661;stroke-linecap:round;stroke-linejoin:round;stroke:rgb(18.431373%,30.980392%,30.980392%);stroke-opacity:1;stroke-miterlimit:10;" d="M 171.734375 292.136719 C 171.734375 295.867188 168.707031 298.894531 164.976562 298.894531 C 161.246094 298.894531 158.21875 295.867188 158.21875 292.136719 C 158.21875 288.40625 161.246094 285.378906 164.976562 285.378906 C 168.707031 285.378906 171.734375 288.40625 171.734375 292.136719 "/>
<path style="fill:none;stroke-width:0.708661;stroke-linecap:round;stroke-linejoin:round;stroke:rgb(18.431373%,30.980392%,30.980392%);stroke-opacity:1;stroke-miterlimit:10;" d="M 292.695312 442.910156 C 292.695312 446.640625 289.671875 449.667969 285.941406 449.667969 C 282.210938 449.667969 279.183594 446.640625 279.183594 442.910156 C 279.183594 439.179688 282.210938 436.15625 285.941406 436.15625 C 289.671875 436.15625 292.695312 439.179688 292.695312 442.910156 "/>
<path style="fill-rule:nonzero;fill:rgb(18.431373%,30.980392%,30.980392%);fill-opacity:1;stroke-width:0.708661;stroke-linecap:round;stroke-linejoin:round;stroke:rgb(18.431373%,30.980392%,30.980392%);stroke-opacity:1;stroke-miterlimit:10;" d="M 655.820312 89.949219 C 655.820312 93.679688 652.792969 96.703125 649.0625 96.703125 C 645.332031 96.703125 642.308594 93.679688 642.308594 89.949219 C 642.308594 86.21875 645.332031 83.191406 649.0625 83.191406 C 652.792969 83.191406 655.820312 86.21875 655.820312 89.949219 "/>
<path style="fill:none;stroke-width:0.708661;stroke-linecap:round;stroke-linejoin:round;stroke:rgb(18.431373%,30.980392%,30.980392%);stroke-opacity:1;stroke-miterlimit:10;" d="M 537.203125 188.894531 C 537.203125 192.625 534.175781 195.652344 530.445312 195.652344 C 526.714844 195.652344 523.6875 192.625 523.6875 188.894531 C 523.6875 185.164062 526.714844 182.136719 530.445312 182.136719 C 534.175781 182.136719 537.203125 185.164062 537.203125 188.894531 "/>
<path style="fill:none;stroke-width:0.708661;stroke-linecap:round;stroke-linejoin:round;stroke:rgb(18.431373%,30.980392%,30.980392%);stroke-opacity:1;stroke-miterlimit:10;" d="M 367.699219 205.460938 C 367.699219 209.191406 364.675781 212.21875 360.945312 212.21875 C 357.210938 212.21875 354.1875 209.191406 354.1875 205.460938 C 354.1875 201.730469 357.210938 198.703125 360.945312 198.703125 C 364.675781 198.703125 367.699219 201.730469 367.699219 205.460938 "/>
<path style="fill-rule:nonzero;fill:rgb(18.431373%,30.980392%,30.980392%);fill-opacity:1;stroke-width:0.708661;stroke-linecap:round;stroke-linejoin:round;stroke:rgb(18.431373%,30.980392%,30.980392%);stroke-opacity:1;stroke-miterlimit:10;" d="M 317.65625 229.859375 C 317.65625 233.589844 314.628906 236.617188 310.898438 236.617188 C 307.167969 236.617188 304.144531 233.589844 304.144531 229.859375 C 304.144531 226.128906 307.167969 223.101562 310.898438 223.101562 C 314.628906 223.101562 317.65625 226.128906 317.65625 229.859375 "/>
<path style="fill:none;stroke-width:0.708661;stroke-linecap:round;stroke-linejoin:round;stroke:rgb(18.431373%,30.980392%,30.980392%);stroke-opacity:1;stroke-miterlimit:10;" d="M 113.003906 439.375 C 113.003906 443.109375 109.980469 446.132812 106.25 446.132812 C 102.519531 446.132812 99.492188 443.109375 99.492188 439.375 C 99.492188 435.644531 102.519531 432.621094 106.25 432.621094 C 109.980469 432.621094 113.003906 435.644531 113.003906 439.375 "/>
<path style="fill:none;stroke-width:0.708661;stroke-linecap:round;stroke-linejoin:round;stroke:rgb(18.431373%,30.980392%,30.980392%);stroke-opacity:1;stroke-miterlimit:10;" d="M 328.78125 256.863281 C 328.78125 260.597656 325.753906 263.621094 322.023438 263.621094 C 318.292969 263.621094 315.269531 260.597656 315.269531 256.863281 C 315.269531 253.132812 318.292969 250.109375 322.023438 250.109375 C 325.753906 250.109375 328.78125 253.132812 328.78125 256.863281 "/>
<path style="fill-rule:nonzero;fill:rgb(18.431373%,30.980392%,30.980392%);fill-opacity:1;stroke-width:0.708661;stroke-linecap:round;stroke-linejoin:round;stroke:rgb(18.431373%,30.980392%,30.980392%);stroke-opacity:1;stroke-miterlimit:10;" d="M 409.953125 59.5625 C 409.953125 63.296875 406.929688 66.320312 403.199219 66.320312 C 399.464844 66.320312 396.441406 63.296875 396.441406 59.5625 C 396.441406 55.832031 399.464844 52.808594 403.199219 52.808594 C 406.929688 52.808594 409.953125 55.832031 409.953125 59.5625 "/>
<path style="fill:none;stroke-width:0.708661;stroke-linecap:round;stroke-linejoin:round;stroke:rgb(18.431373%,30.980392%,30.980392%);stroke-opacity:1;stroke-miterlimit:10;" d="M 164.234375 407.875 C 164.234375 411.605469 161.207031 414.628906 157.476562 414.628906 C 153.746094 414.628906 150.71875 411.605469 150.71875 407.875 C 150.71875 404.140625 153.746094 401.117188 157.476562 401.117188 C 161.207031 401.117188 164.234375 404.140625 164.234375 407.875 "/>
<path style="fill:none;stroke-width:0.708661;stroke-linecap:round;stroke-linejoin:round;stroke:rgb(18.431373%,30.980392%,30.980392%);stroke-opacity:1;stroke-miterlimit:10;" d="M 468.996094 252.523438 C 468.996094 256.253906 465.972656 259.277344 462.238281 259.277344 C 458.507812 259.277344 455.484375 256.253906 455.484375 252.523438 C 455.484375 248.792969 458.507812 245.765625 462.238281 245.765625 C 465.972656 245.765625 468.996094 248.792969 468.996094 252.523438 "/>
<path style="fill:none;stroke-width:0.708661;stroke-linecap:round;stroke-linejoin:round;stroke:rgb(18.431373%,30.980392%,30.980392%);stroke-opacity:1;stroke-miterlimit:10;" d="M 509.335938 69.15625 C 509.335938 72.886719 506.3125 75.914062 502.582031 75.914062 C 498.851562 75.914062 495.824219 72.886719 495.824219 69.15625 C 495.824219 65.425781 498.851562 62.398438 502.582031 62.398438 C 506.3125 62.398438 509.335938 65.425781 509.335938 69.15625 "/>
<path style="fill-rule:nonzero;fill:rgb(18.431373%,30.980392%,30.980392%);fill-opacity:1;stroke-width:0.708661;stroke-linecap:round;stroke-linejoin:round;stroke:rgb(18.431373%,30.980392%,30.980392%);stroke-opacity:1;stroke-miterlimit:10;" d="M 193.824219 400.519531 C 193.824219 404.253906 190.796875 407.277344 187.066406 407.277344 C 183.335938 407.277344 180.3125 404.253906 180.3125 400.519531 C 180.3125 396.789062 183.335938 393.765625 187.066406 393.765625 C 190.796875 393.765625 193.824219 396.789062 193.824219 400.519531 "/>
<path style="fill:none;stroke-width:0.708661;stroke-linecap:round;stroke-linejoin:round;stroke:rgb(18.431373%,30.980392%,30.980392%);stroke-opacity:1;stroke-miterlimit:10;" d="M 544.148438 130.867188 C 544.148438 134.597656 541.125 137.621094 537.394531 137.621094 C 533.660156 137.621094 530.636719 134.597656 530.636719 130.867188 C 530.636719 127.136719 533.660156 124.109375 537.394531 124.109375 C 541.125 124.109375 544.148438 127.136719 544.148438 130.867188 "/>
<path style="fill:none;stroke-width:0.708661;stroke-linecap:round;stroke-linejoin:round;stroke:rgb(18.431373%,30.980392%,30.980392%);stroke-opacity:1;stroke-miterlimit:10;" d="M 325.433594 310.039062 C 325.433594 313.769531 322.410156 316.796875 318.679688 316.796875 C 314.945312 316.796875 311.921875 313.769531 311.921875 310.039062 C 311.921875 306.308594 314.945312 303.285156 318.679688 303.285156 C 322.410156 303.285156 325.433594 306.308594 325.433594 310.039062 "/>
<path style="fill-rule:nonzero;fill:rgb(18.431373%,30.980392%,30.980392%);fill-opacity:1;stroke-width:0.708661;stroke-linecap:round;stroke-linejoin:round;stroke:rgb(18.431373%,30.980392%,30.980392%);stroke-opacity:1;stroke-miterlimit:10;" d="M 316.722656 353.226562 C 316.722656 356.960938 313.699219 359.984375 309.964844 359.984375 C 306.234375 359.984375 303.210938 356.960938 303.210938 353.226562 C 303.210938 349.496094 306.234375 346.472656 309.964844 346.472656 C 313.699219 346.472656 316.722656 349.496094 316.722656 353.226562 "/>
<path style="fill:none;stroke-width:0.708661;stroke-linecap:round;stroke-linejoin:round;stroke:rgb(18.431373%,30.980392%,30.980392%);stroke-opacity:1;stroke-miterlimit:10;" d="M 433.082031 389.210938 C 433.082031 392.945312 430.054688 395.96875 426.324219 395.96875 C 422.59375 395.96875 419.570312 392.945312 419.570312 389.210938 C 419.570312 385.480469 422.59375 382.457031 426.324219 382.457031 C 430.054688 382.457031 433.082031 385.480469 433.082031 389.210938 "/>
<path style="fill:none;stroke-width:0.708661;stroke-linecap:round;stroke-linejoin:round;stroke:rgb(18.431373%,30.980392%,30.980392%);stroke-opacity:1;stroke-miterlimit:10;" d="M 443.179688 219.144531 C 443.179688 222.875 440.152344 225.898438 436.421875 225.898438 C 432.691406 225.898438 429.667969 222.875 429.667969 219.144531 C 429.667969 215.410156 432.691406 212.386719 436.421875 212.386719 C 440.152344 212.386719 443.179688 215.410156 443.179688 219.144531 "/>
<path style="fill:none;stroke-width:0.708661;stroke-linecap:round;stroke-linejoin:round;stroke:rgb(18.431373%,30.980392%,30.980392%);stroke-opacity:1;stroke-miterlimit:10;" d="M 289.511719 207.441406 C 289.511719 211.171875 286.488281 214.199219 282.753906 214.199219 C 279.023438 214.199219 276 211.171875 276 207.441406 C 276 203.710938 279.023438 200.6875 282.753906 200.6875 C 286.488281 200.6875 289.511719 203.710938 289.511719 207.441406 "/>
<path style="fill:none;stroke-width:0.708661;stroke-linecap:round;stroke-linejoin:round;stroke:rgb(18.431373%,30.980392%,30.980392%);stroke-opacity:1;stroke-miterlimit:10;" d="M 190.46875 311.832031 C 190.46875 315.5625 187.441406 318.585938 183.710938 318.585938 C 179.980469 318.585938 176.953125 315.5625 176.953125 311.832031 C 176.953125 308.101562 179.980469 305.074219 183.710938 305.074219 C 187.441406 305.074219 190.46875 308.101562 190.46875 311.832031 "/>
<path style="fill-rule:nonzero;fill:rgb(18.431373%,30.980392%,30.980392%);fill-opacity:1;stroke-width:0.708661;stroke-linecap:round;stroke-linejoin:round;stroke:rgb(18.431373%,30.980392%,30.980392%);stroke-opacity:1;stroke-miterlimit:10;" d="M 456.824219 318.492188 C 456.824219 322.222656 453.796875 325.246094 450.066406 325.246094 C 446.335938 325.246094 443.308594 322.222656 443.308594 318.492188 C 443.308594 314.761719 446.335938 311.734375 450.066406 311.734375 C 453.796875 311.734375 456.824219 314.761719 456.824219 318.492188 "/>
<path style="fill:none;stroke-width:0.708661;stroke-linecap:round;stroke-linejoin:round;stroke:rgb(18.431373%,30.980392%,30.980392%);stroke-opacity:1;stroke-miterlimit:10;" d="M 156.421875 397.742188 C 156.421875 401.472656 153.394531 404.496094 149.664062 404.496094 C 145.933594 404.496094 142.90625 401.472656 142.90625 397.742188 C 142.90625 394.011719 145.933594 390.984375 149.664062 390.984375 C 153.394531 390.984375 156.421875 394.011719 156.421875 397.742188 "/>
<path style="fill:none;stroke-width:0.708661;stroke-linecap:round;stroke-linejoin:round;stroke:rgb(18.431373%,30.980392%,30.980392%);stroke-opacity:1;stroke-miterlimit:10;" d="M 39.316406 382.542969 C 39.316406 386.273438 36.292969 389.300781 32.5625 389.300781 C 28.828125 389.300781 25.804688 386.273438 25.804688 382.542969 C 25.804688 378.8125 28.828125 375.789062 32.5625 375.789062 C 36.292969 375.789062 39.316406 378.8125 39.316406 382.542969 "/>
<path style="fill:none;stroke-width:0.708661;stroke-linecap:round;stroke-linejoin:round;stroke:rgb(18.431373%,30.980392%,30.980392%);stroke-opacity:1;stroke-miterlimit:10;" d="M 479.601562 130.402344 C 479.601562 134.132812 476.578125 137.160156 472.847656 137.160156 C 469.117188 137.160156 466.089844 134.132812 466.089844 130.402344 C 466.089844 126.671875 469.117188 123.648438 472.847656 123.648438 C 476.578125 123.648438 479.601562 126.671875 479.601562 130.402344 "/>
<path style="fill:none;stroke-width:0.708661;stroke-linecap:round;stroke-linejoin:round;stroke:rgb(18.431373%,30.980392%,30.980392%);stroke-opacity:1;stroke-miterlimit:10;" d="M 491.246094 296.972656 C 491.246094 300.703125 488.222656 303.726562 484.488281 303.726562 C 480.757812 303.726562 477.734375 300.703125 477.734375 296.972656 C 477.734375 293.242188 480.757812 290.214844 484.488281 290.214844 C 488.222656 290.214844 491.246094 293.242188 491.246094 296.972656 "/>
<path style="fill:none;stroke-width:0.708661;stroke-linecap:round;stroke-linejoin:round;stroke:rgb(18.431373%,30.980392%,30.980392%);stroke-opacity:1;stroke-miterlimit:10;" d="M 467.742188 257.542969 C 467.742188 261.273438 464.71875 264.300781 460.988281 264.300781 C 457.257812 264.300781 454.230469 261.273438 454.230469 257.542969 C 454.230469 253.8125 457.257812 250.789062 460.988281 250.789062 C 464.71875 250.789062 467.742188 253.8125 467.742188 257.542969 "/>
<path style="fill:none;stroke-width:0.708661;stroke-linecap:round;stroke-linejoin:round;stroke:rgb(18.431373%,30.980392%,30.980392%);stroke-opacity:1;stroke-miterlimit:10;" d="M 43.222656 259.859375 C 43.222656 263.589844 40.199219 266.613281 36.464844 266.613281 C 32.734375 266.613281 29.710938 263.589844 29.710938 259.859375 C 29.710938 256.125 32.734375 253.101562 36.464844 253.101562 C 40.199219 253.101562 43.222656 256.125 43.222656 259.859375 "/>
<path style="fill:none;stroke-width:0.708661;stroke-linecap:round;stroke-linejoin:round;stroke:rgb(18.431373%,30.980392%,30.980392%);stroke-opacity:1;stroke-miterlimit:10;" d="M 343.566406 359.175781 C 343.566406 362.90625 340.542969 365.929688 336.8125 365.929688 C 333.082031 365.929688 330.054688 362.90625 330.054688 359.175781 C 330.054688 355.441406 333.082031 352.417969 336.8125 352.417969 C 340.542969 352.417969 343.566406 355.441406 343.566406 359.175781 "/>
<path style="fill:none;stroke-width:0.708661;stroke-linecap:round;stroke-linejoin:round;stroke:rgb(18.431373%,30.980392%,30.980392%);stroke-opacity:1;stroke-miterlimit:10;" d="M 344.265625 346.683594 C 344.265625 350.414062 341.238281 353.441406 337.507812 353.441406 C 333.777344 353.441406 330.753906 350.414062 330.753906 346.683594 C 330.753906 342.953125 333.777344 339.929688 337.507812 339.929688 C 341.238281 339.929688 344.265625 342.953125 344.265625 346.683594 "/>
<path style="fill:none;stroke-width:0.708661;stroke-linecap:round;stroke-linejoin:round;stroke:rgb(18.431373%,30.980392%,30.980392%);stroke-opacity:1;stroke-miterlimit:10;" d="M 564.511719 293.871094 C 564.511719 297.601562 561.488281 300.625 557.753906 300.625 C 554.023438 300.625 551 297.601562 551 293.871094 C 551 290.136719 554.023438 287.113281 557.753906 287.113281 C 561.488281 287.113281 564.511719 290.136719 564.511719 293.871094 "/>
<path style="fill-rule:nonzero;fill:rgb(18.431373%,30.980392%,30.980392%);fill-opacity:1;stroke-width:0.708661;stroke-linecap:round;stroke-linejoin:round;stroke:rgb(18.431373%,30.980392%,30.980392%);stroke-opacity:1;stroke-miterlimit:10;" d="M 361.355469 179.570312 C 361.355469 183.300781 358.332031 186.328125 354.597656 186.328125 C 350.867188 186.328125 347.84375 183.300781 347.84375 179.570312 C 347.84375 175.839844 350.867188 172.816406 354.597656 172.816406 C 358.332031 172.816406 361.355469 175.839844 361.355469 179.570312 "/>
<path style="fill-rule:nonzero;fill:rgb(18.431373%,30.980392%,30.980392%);fill-opacity:1;stroke-width:0.708661;stroke-linecap:round;stroke-linejoin:round;stroke:rgb(18.431373%,30.980392%,30.980392%);stroke-opacity:1;stroke-miterlimit:10;" d="M 168.027344 282.59375 C 168.027344 286.324219 165.003906 289.347656 161.273438 289.347656 C 157.539062 289.347656 154.515625 286.324219 154.515625 282.59375 C 154.515625 278.863281 157.539062 275.835938 161.273438 275.835938 C 165.003906 275.835938 168.027344 278.863281 168.027344 282.59375 "/>
<path style="fill:none;stroke-width:4.267913;stroke-linecap:butt;stroke-linejoin:round;stroke:rgb(0%,0%,0%);stroke-opacity:1;stroke-dasharray:17.071654,17.071654;stroke-miterlimit:10;" d="M 0 392.550781 L 756 152.886719 "/>
</g>
</svg>
