<?xml version="1.0" encoding="UTF-8"?>
<svg xmlns="http://www.w3.org/2000/svg" xmlns:xlink="http://www.w3.org/1999/xlink" width="756pt" height="432pt" viewBox="0 0 756 432" version="1.1">
<g id="surface94">
<rect x="0" y="0" width="756" height="432" style="fill:rgb(100%,100%,100%);fill-opacity:1;stroke:none;"/>
<path style="fill-rule:nonzero;fill:rgb(18.431373%,30.980392%,30.980392%);fill-opacity:0.901961;stroke-width:0.708661;stroke-linecap:round;stroke-linejoin:round;stroke:rgb(18.431373%,30.980392%,30.980392%);stroke-opacity:0.901961;stroke-miterlimit:10;" d="M 358.273438 245.566406 C 358.273438 248.710938 355.726562 251.257812 352.585938 251.257812 C 349.441406 251.257812 346.894531 248.710938 346.894531 245.566406 C 346.894531 242.425781 349.441406 239.878906 352.585938 239.878906 C 355.726562 239.878906 358.273438 242.425781 358.273438 245.566406 "/>
<path style="fill-rule:nonzero;fill:rgb(18.431373%,30.980392%,30.980392%);fill-opacity:0.901961;stroke-width:0.708661;stroke-linecap:round;stroke-linejoin:round;stroke:rgb(18.431373%,30.980392%,30.980392%);stroke-opacity:0.901961;stroke-miterlimit:10;" d="M 136.890625 395.515625 C 136.890625 398.65625 134.34375 401.203125 131.203125 401.203125 C 128.058594 401.203125 125.511719 398.65625 125.511719 395.515625 C 125.511719 392.371094 128.058594 389.824219 131.203125 389.824219 C 134.34375 389.824219 136.890625 392.371094 136.890625 395.515625 "/>
<path style="fill-rule:nonzero;fill:rgb(18.431373%,30.980392%,30.980392%);fill-opacity:0.901961;stroke-width:0.708661;stroke-linecap:round;stroke-linejoin:round;stroke:rgb(18.431373%,30.980392%,30.980392%);stroke-opacity:0.901961;stroke-miterlimit:10;" d="M 459.082031 257.273438 C 459.082031 260.414062 456.535156 262.960938 453.394531 262.960938 C 450.25 262.960938 447.703125 260.414062 447.703125 257.273438 C 447.703125 254.128906 450.25 251.582031 453.394531 251.582031 C 456.535156 251.582031 459.082031 254.128906 459.082031 257.273438 "/>
<path style="fill-rule:nonzero;fill:rgb(18.431373%,30.980392%,30.980392%);fill-opacity:0.901961;stroke-width:0.708661;stroke-linecap:round;stroke-linejoin:round;stroke:rgb(18.431373%,30.980392%,30.980392%);stroke-opacity:0.901961;stroke-miterlimit:10;" d="M 335.800781 352.070312 C 335.800781 355.214844 333.253906 357.761719 330.109375 357.761719 C 326.96875 357.761719 324.421875 355.214844 324.421875 352.070312 C 324.421875 348.929688 326.96875 346.382812 330.109375 346.382812 C 333.253906 346.382812 335.800781 348.929688 335.800781 352.070312 "/>
<path style="fill-rule:nonzero;fill:rgb(18.431373%,30.980392%,30.980392%);fill-opacity:0.901961;stroke-width:0.708661;stroke-linecap:round;stroke-linejoin:round;stroke:rgb(18.431373%,30.980392%,30.980392%);stroke-opacity:0.901961;stroke-miterlimit:10;" d="M 230.386719 362.613281 C 230.386719 365.757812 227.835938 368.304688 224.695312 368.304688 C 221.554688 368.304688 219.007812 365.757812 219.007812 362.613281 C 219.007812 359.472656 221.554688 356.925781 224.695312 356.925781 C 227.835938 356.925781 230.386719 359.472656 230.386719 362.613281 "/>
<path style="fill-rule:nonzero;fill:rgb(18.431373%,30.980392%,30.980392%);fill-opacity:0.901961;stroke-width:0.708661;stroke-linecap:round;stroke-linejoin:round;stroke:rgb(18.431373%,30.980392%,30.980392%);stroke-opacity:0.901961;stroke-miterlimit:10;" d="M 396.417969 284.890625 C 396.417969 288.035156 393.871094 290.582031 390.730469 290.582031 C 387.585938 290.582031 385.039062 288.035156 385.039062 284.890625 C 385.039062 281.75 387.585938 279.203125 390.730469 279.203125 C 393.871094 279.203125 396.417969 281.75 396.417969 284.890625 "/>
<path style="fill-rule:nonzero;fill:rgb(18.431373%,30.980392%,30.980392%);fill-opacity:0.901961;stroke-width:0.708661;stroke-linecap:round;stroke-linejoin:round;stroke:rgb(18.431373%,30.980392%,30.980392%);stroke-opacity:0.901961;stroke-miterlimit:10;" d="M 322.90625 179.011719 C 322.90625 182.15625 320.355469 184.703125 317.214844 184.703125 C 314.074219 184.703125 311.527344 182.15625 311.527344 179.011719 C 311.527344 175.871094 314.074219 173.324219 317.214844 173.324219 C 320.355469 173.324219 322.90625 175.871094 322.90625 179.011719 "/>
<path style="fill-rule:nonzero;fill:rgb(18.431373%,30.980392%,30.980392%);fill-opacity:0.901961;stroke-width:0.708661;stroke-linecap:round;stroke-linejoin:round;stroke:rgb(18.431373%,30.980392%,30.980392%);stroke-opacity:0.901961;stroke-miterlimit:10;" d="M 277.410156 185.847656 C 277.410156 188.992188 274.863281 191.539062 271.722656 191.539062 C 268.582031 191.539062 266.035156 188.992188 266.035156 185.847656 C 266.035156 182.707031 268.582031 180.160156 271.722656 180.160156 C 274.863281 180.160156 277.410156 182.707031 277.410156 185.847656 "/>
<path style="fill-rule:nonzero;fill:rgb(18.431373%,30.980392%,30.980392%);fill-opacity:0.901961;stroke-width:0.708661;stroke-linecap:round;stroke-linejoin:round;stroke:rgb(18.431373%,30.980392%,30.980392%);stroke-opacity:0.901961;stroke-miterlimit:10;" d="M 483.578125 212.175781 C 483.578125 215.320312 481.03125 217.867188 477.886719 217.867188 C 474.746094 217.867188 472.199219 215.320312 472.199219 212.175781 C 472.199219 209.035156 474.746094 206.488281 477.886719 206.488281 C 481.03125 206.488281 483.578125 209.035156 483.578125 212.175781 "/>
<path style="fill-rule:nonzero;fill:rgb(18.431373%,30.980392%,30.980392%);fill-opacity:0.901961;stroke-width:0.708661;stroke-linecap:round;stroke-linejoin:round;stroke:rgb(18.431373%,30.980392%,30.980392%);stroke-opacity:0.901961;stroke-miterlimit:10;" d="M 586.449219 216.523438 C 586.449219 219.664062 583.902344 222.210938 580.757812 222.210938 C 577.617188 222.210938 575.070312 219.664062 575.070312 216.523438 C 575.070312 213.382812 577.617188 210.832031 580.757812 210.832031 C 583.902344 210.832031 586.449219 213.382812 586.449219 216.523438 "/>
<path style="fill-rule:nonzero;fill:rgb(18.431373%,30.980392%,30.980392%);fill-opacity:0.901961;stroke-width:0.708661;stroke-linecap:round;stroke-linejoin:round;stroke:rgb(18.431373%,30.980392%,30.980392%);stroke-opacity:0.901961;stroke-miterlimit:10;" d="M 241.976562 373.296875 C 241.976562 376.4375 239.429688 378.984375 236.289062 378.984375 C 233.148438 378.984375 230.601562 376.4375 230.601562 373.296875 C 230.601562 370.152344 233.148438 367.605469 236.289062 367.605469 C 239.429688 367.605469 241.976562 370.152344 241.976562 373.296875 "/>
<path style="fill-rule:nonzero;fill:rgb(18.431373%,30.980392%,30.980392%);fill-opacity:0.901961;stroke-width:0.708661;stroke-linecap:round;stroke-linejoin:round;stroke:rgb(18.431373%,30.980392%,30.980392%);stroke-opacity:0.901961;stroke-miterlimit:10;" d="M 245.164062 367.605469 C 245.164062 370.746094 242.617188 373.292969 239.476562 373.292969 C 236.332031 373.292969 233.785156 370.746094 233.785156 367.605469 C 233.785156 364.460938 236.332031 361.914062 239.476562 361.914062 C 242.617188 361.914062 245.164062 364.460938 245.164062 367.605469 "/>
<path style="fill-rule:nonzero;fill:rgb(18.431373%,30.980392%,30.980392%);fill-opacity:0.901961;stroke-width:0.708661;stroke-linecap:round;stroke-linejoin:round;stroke:rgb(18.431373%,30.980392%,30.980392%);stroke-opacity:0.901961;stroke-miterlimit:10;" d="M 394.824219 207.746094 C 394.824219 210.890625 392.277344 213.4375 389.136719 213.4375 C 385.996094 213.4375 383.445312 210.890625 383.445312 207.746094 C 383.445312 204.605469 385.996094 202.058594 389.136719 202.058594 C 392.277344 202.058594 394.824219 204.605469 394.824219 207.746094 "/>
<path style="fill-rule:nonzero;fill:rgb(18.431373%,30.980392%,30.980392%);fill-opacity:0.901961;stroke-width:0.708661;stroke-linecap:round;stroke-linejoin:round;stroke:rgb(18.431373%,30.980392%,30.980392%);stroke-opacity:0.901961;stroke-miterlimit:10;" d="M 318.78125 208.96875 C 318.78125 212.109375 316.234375 214.65625 313.089844 214.65625 C 309.949219 214.65625 307.402344 212.109375 307.402344 208.96875 C 307.402344 205.824219 309.949219 203.277344 313.089844 203.277344 C 316.234375 203.277344 318.78125 205.824219 318.78125 208.96875 "/>
<path style="fill-rule:nonzero;fill:rgb(18.431373%,30.980392%,30.980392%);fill-opacity:0.901961;stroke-width:0.708661;stroke-linecap:round;stroke-linejoin:round;stroke:rgb(18.431373%,30.980392%,30.980392%);stroke-opacity:0.901961;stroke-miterlimit:10;" d="M 505.574219 253.410156 C 505.574219 256.550781 503.027344 259.097656 499.882812 259.097656 C 496.742188 259.097656 494.195312 256.550781 494.195312 253.410156 C 494.195312 250.265625 496.742188 247.71875 499.882812 247.71875 C 503.027344 247.71875 505.574219 250.265625 505.574219 253.410156 "/>
<path style="fill-rule:nonzero;fill:rgb(18.431373%,30.980392%,30.980392%);fill-opacity:0.901961;stroke-width:0.708661;stroke-linecap:round;stroke-linejoin:round;stroke:rgb(18.431373%,30.980392%,30.980392%);stroke-opacity:0.901961;stroke-miterlimit:10;" d="M 235.496094 219.753906 C 235.496094 222.894531 232.949219 225.445312 229.804688 225.445312 C 226.664062 225.445312 224.117188 222.894531 224.117188 219.753906 C 224.117188 216.613281 226.664062 214.066406 229.804688 214.066406 C 232.949219 214.066406 235.496094 216.613281 235.496094 219.753906 "/>
<path style="fill-rule:nonzero;fill:rgb(18.431373%,30.980392%,30.980392%);fill-opacity:0.901961;stroke-width:0.708661;stroke-linecap:round;stroke-linejoin:round;stroke:rgb(18.431373%,30.980392%,30.980392%);stroke-opacity:0.901961;stroke-miterlimit:10;" d="M 412.207031 250.789062 C 412.207031 253.933594 409.660156 256.480469 406.515625 256.480469 C 403.375 256.480469 400.828125 253.933594 400.828125 250.789062 C 400.828125 247.648438 403.375 245.101562 406.515625 245.101562 C 409.660156 245.101562 412.207031 247.648438 412.207031 250.789062 "/>
<path style="fill-rule:nonzero;fill:rgb(18.431373%,30.980392%,30.980392%);fill-opacity:0.901961;stroke-width:0.708661;stroke-linecap:round;stroke-linejoin:round;stroke:rgb(18.431373%,30.980392%,30.980392%);stroke-opacity:0.901961;stroke-miterlimit:10;" d="M 502.863281 316.546875 C 502.863281 319.6875 500.316406 322.234375 497.175781 322.234375 C 494.035156 322.234375 491.488281 319.6875 491.488281 316.546875 C 491.488281 313.402344 494.035156 310.855469 497.175781 310.855469 C 500.316406 310.855469 502.863281 313.402344 502.863281 316.546875 "/>
<path style="fill-rule:nonzero;fill:rgb(18.431373%,30.980392%,30.980392%);fill-opacity:0.901961;stroke-width:0.708661;stroke-linecap:round;stroke-linejoin:round;stroke:rgb(18.431373%,30.980392%,30.980392%);stroke-opacity:0.901961;stroke-miterlimit:10;" d="M 726.796875 159.675781 C 726.796875 162.820312 724.25 165.367188 721.105469 165.367188 C 717.964844 165.367188 715.417969 162.820312 715.417969 159.675781 C 715.417969 156.535156 717.964844 153.988281 721.105469 153.988281 C 724.25 153.988281 726.796875 156.535156 726.796875 159.675781 "/>
<path style="fill-rule:nonzero;fill:rgb(18.431373%,30.980392%,30.980392%);fill-opacity:0.901961;stroke-width:0.708661;stroke-linecap:round;stroke-linejoin:round;stroke:rgb(18.431373%,30.980392%,30.980392%);stroke-opacity:0.901961;stroke-miterlimit:10;" d="M 373.542969 244.722656 C 373.542969 247.867188 370.996094 250.414062 367.855469 250.414062 C 364.710938 250.414062 362.164062 247.867188 362.164062 244.722656 C 362.164062 241.582031 364.710938 239.035156 367.855469 239.035156 C 370.996094 239.035156 373.542969 241.582031 373.542969 244.722656 "/>
<path style="fill-rule:nonzero;fill:rgb(18.431373%,30.980392%,30.980392%);fill-opacity:0.901961;stroke-width:0.708661;stroke-linecap:round;stroke-linejoin:round;stroke:rgb(18.431373%,30.980392%,30.980392%);stroke-opacity:0.901961;stroke-miterlimit:10;" d="M 523.863281 262.3125 C 523.863281 265.457031 521.316406 268.003906 518.175781 268.003906 C 515.03125 268.003906 512.484375 265.457031 512.484375 262.3125 C 512.484375 259.171875 515.03125 256.625 518.175781 256.625 C 521.316406 256.625 523.863281 259.171875 523.863281 262.3125 "/>
<path style="fill-rule:nonzero;fill:rgb(18.431373%,30.980392%,30.980392%);fill-opacity:0.901961;stroke-width:0.708661;stroke-linecap:round;stroke-linejoin:round;stroke:rgb(18.431373%,30.980392%,30.980392%);stroke-opacity:0.901961;stroke-miterlimit:10;" d="M 414.074219 290.167969 C 414.074219 293.3125 411.527344 295.859375 408.382812 295.859375 C 405.242188 295.859375 402.695312 293.3125 402.695312 290.167969 C 402.695312 287.027344 405.242188 284.480469 408.382812 284.480469 C 411.527344 284.480469 414.074219 287.027344 414.074219 290.167969 "/>
<path style="fill-rule:nonzero;fill:rgb(18.431373%,30.980392%,30.980392%);fill-opacity:0.901961;stroke-width:0.708661;stroke-linecap:round;stroke-linejoin:round;stroke:rgb(18.431373%,30.980392%,30.980392%);stroke-opacity:0.901961;stroke-miterlimit:10;" d="M 379.757812 176.289062 C 379.757812 179.433594 377.210938 181.980469 374.066406 181.980469 C 370.925781 181.980469 368.378906 179.433594 368.378906 176.289062 C 368.378906 173.148438 370.925781 170.601562 374.066406 170.601562 C 377.210938 170.601562 379.757812 173.148438 379.757812 176.289062 "/>
<path style="fill-rule:nonzero;fill:rgb(18.431373%,30.980392%,30.980392%);fill-opacity:0.901961;stroke-width:0.708661;stroke-linecap:round;stroke-linejoin:round;stroke:rgb(18.431373%,30.980392%,30.980392%);stroke-opacity:0.901961;stroke-miterlimit:10;" d="M 356.59375 179.90625 C 356.59375 183.046875 354.046875 185.59375 350.90625 185.59375 C 347.765625 185.59375 345.214844 183.046875 345.214844 179.90625 C 345.214844 176.761719 347.765625 174.214844 350.90625 174.214844 C 354.046875 174.214844 356.59375 176.761719 356.59375 179.90625 "/>
<path style="fill-rule:nonzero;fill:rgb(18.431373%,30.980392%,30.980392%);fill-opacity:0.901961;stroke-width:0.708661;stroke-linecap:round;stroke-linejoin:round;stroke:rgb(18.431373%,30.980392%,30.980392%);stroke-opacity:0.901961;stroke-miterlimit:10;" d="M 493.027344 94.671875 C 493.027344 97.8125 490.480469 100.359375 487.339844 100.359375 C 484.195312 100.359375 481.648438 97.8125 481.648438 94.671875 C 481.648438 91.527344 484.195312 88.980469 487.339844 88.980469 C 490.480469 88.980469 493.027344 91.527344 493.027344 94.671875 "/>
<path style="fill-rule:nonzero;fill:rgb(18.431373%,30.980392%,30.980392%);fill-opacity:0.901961;stroke-width:0.708661;stroke-linecap:round;stroke-linejoin:round;stroke:rgb(18.431373%,30.980392%,30.980392%);stroke-opacity:0.901961;stroke-miterlimit:10;" d="M 361.628906 343.683594 C 361.628906 346.824219 359.082031 349.371094 355.9375 349.371094 C 352.796875 349.371094 350.25 346.824219 350.25 343.683594 C 350.25 340.539062 352.796875 337.992188 355.9375 337.992188 C 359.082031 337.992188 361.628906 340.539062 361.628906 343.683594 "/>
<path style="fill-rule:nonzero;fill:rgb(18.431373%,30.980392%,30.980392%);fill-opacity:0.901961;stroke-width:0.708661;stroke-linecap:round;stroke-linejoin:round;stroke:rgb(18.431373%,30.980392%,30.980392%);stroke-opacity:0.901961;stroke-miterlimit:10;" d="M 306.398438 278.816406 C 306.398438 281.957031 303.851562 284.503906 300.707031 284.503906 C 297.566406 284.503906 295.019531 281.957031 295.019531 278.816406 C 295.019531 275.671875 297.566406 273.125 300.707031 273.125 C 303.851562 273.125 306.398438 275.671875 306.398438 278.816406 "/>
<path style="fill-rule:nonzero;fill:rgb(18.431373%,30.980392%,30.980392%);fill-opacity:0.901961;stroke-width:0.708661;stroke-linecap:round;stroke-linejoin:round;stroke:rgb(18.431373%,30.980392%,30.980392%);stroke-opacity:0.901961;stroke-miterlimit:10;" d="M 266.074219 240.351562 C 266.074219 243.492188 263.527344 246.039062 260.382812 246.039062 C 257.242188 246.039062 254.695312 243.492188 254.695312 240.351562 C 254.695312 237.210938 257.242188 234.664062 260.382812 234.664062 C 263.527344 234.664062 266.074219 237.210938 266.074219 240.351562 "/>
<path style="fill-rule:nonzero;fill:rgb(18.431373%,30.980392%,30.980392%);fill-opacity:0.901961;stroke-width:0.708661;stroke-linecap:round;stroke-linejoin:round;stroke:rgb(18.431373%,30.980392%,30.980392%);stroke-opacity:0.901961;stroke-miterlimit:10;" d="M 90.375 288.738281 C 90.375 291.882812 87.828125 294.429688 84.6875 294.429688 C 81.542969 294.429688 78.996094 291.882812 78.996094 288.738281 C 78.996094 285.597656 81.542969 283.050781 84.6875 283.050781 C 87.828125 283.050781 90.375 285.597656 90.375 288.738281 "/>
<path style="fill-rule:nonzero;fill:rgb(18.431373%,30.980392%,30.980392%);fill-opacity:0.901961;stroke-width:0.708661;stroke-linecap:round;stroke-linejoin:round;stroke:rgb(18.431373%,30.980392%,30.980392%);stroke-opacity:0.901961;stroke-miterlimit:10;" d="M 501.511719 223.089844 C 501.511719 226.234375 498.964844 228.78125 495.824219 228.78125 C 492.683594 228.78125 490.132812 226.234375 490.132812 223.089844 C 490.132812 219.949219 492.683594 217.402344 495.824219 217.402344 C 498.964844 217.402344 501.511719 219.949219 501.511719 223.089844 "/>
<path style="fill-rule:nonzero;fill:rgb(18.431373%,30.980392%,30.980392%);fill-opacity:0.901961;stroke-width:0.708661;stroke-linecap:round;stroke-linejoin:round;stroke:rgb(18.431373%,30.980392%,30.980392%);stroke-opacity:0.901961;stroke-miterlimit:10;" d="M 304.25 172.640625 C 304.25 175.78125 301.703125 178.328125 298.5625 178.328125 C 295.417969 178.328125 292.871094 175.78125 292.871094 172.640625 C 292.871094 169.496094 295.417969 166.949219 298.5625 166.949219 C 301.703125 166.949219 304.25 169.496094 304.25 172.640625 "/>
<path style="fill-rule:nonzero;fill:rgb(18.431373%,30.980392%,30.980392%);fill-opacity:0.901961;stroke-width:0.708661;stroke-linecap:round;stroke-linejoin:round;stroke:rgb(18.431373%,30.980392%,30.980392%);stroke-opacity:0.901961;stroke-miterlimit:10;" d="M 431.410156 51.960938 C 431.410156 55.101562 428.863281 57.648438 425.722656 57.648438 C 422.582031 57.648438 420.03125 55.101562 420.03125 51.960938 C 420.03125 48.820312 422.582031 46.273438 425.722656 46.273438 C 428.863281 46.273438 431.410156 48.820312 431.410156 51.960938 "/>
<path style="fill-rule:nonzero;fill:rgb(18.431373%,30.980392%,30.980392%);fill-opacity:0.901961;stroke-width:0.708661;stroke-linecap:round;stroke-linejoin:round;stroke:rgb(18.431373%,30.980392%,30.980392%);stroke-opacity:0.901961;stroke-miterlimit:10;" d="M 464.71875 234.929688 C 464.71875 238.070312 462.167969 240.617188 459.027344 240.617188 C 455.886719 240.617188 453.339844 238.070312 453.339844 234.929688 C 453.339844 231.789062 455.886719 229.242188 459.027344 229.242188 C 462.167969 229.242188 464.71875 231.789062 464.71875 234.929688 "/>
<path style="fill-rule:nonzero;fill:rgb(18.431373%,30.980392%,30.980392%);fill-opacity:0.901961;stroke-width:0.708661;stroke-linecap:round;stroke-linejoin:round;stroke:rgb(18.431373%,30.980392%,30.980392%);stroke-opacity:0.901961;stroke-miterlimit:10;" d="M 483.785156 307.875 C 483.785156 311.019531 481.238281 313.566406 478.097656 313.566406 C 474.953125 313.566406 472.40625 311.019531 472.40625 307.875 C 472.40625 304.734375 474.953125 302.1875 478.097656 302.1875 C 481.238281 302.1875 483.785156 304.734375 483.785156 307.875 "/>
<path style="fill-rule:nonzero;fill:rgb(18.431373%,30.980392%,30.980392%);fill-opacity:0.901961;stroke-width:0.708661;stroke-linecap:round;stroke-linejoin:round;stroke:rgb(18.431373%,30.980392%,30.980392%);stroke-opacity:0.901961;stroke-miterlimit:10;" d="M 177.78125 316.371094 C 177.78125 319.515625 175.234375 322.0625 172.09375 322.0625 C 168.949219 322.0625 166.402344 319.515625 166.402344 316.371094 C 166.402344 313.230469 168.949219 310.683594 172.09375 310.683594 C 175.234375 310.683594 177.78125 313.230469 177.78125 316.371094 "/>
<path style="fill-rule:nonzero;fill:rgb(18.431373%,30.980392%,30.980392%);fill-opacity:0.901961;stroke-width:0.708661;stroke-linecap:round;stroke-linejoin:round;stroke:rgb(18.431373%,30.980392%,30.980392%);stroke-opacity:0.901961;stroke-miterlimit:10;" d="M 645.171875 286.992188 C 645.171875 290.132812 642.625 292.679688 639.484375 292.679688 C 636.339844 292.679688 633.792969 290.132812 633.792969 286.992188 C 633.792969 283.847656 636.339844 281.300781 639.484375 281.300781 C 642.625 281.300781 645.171875 283.847656 645.171875 286.992188 "/>
<path style="fill-rule:nonzero;fill:rgb(18.431373%,30.980392%,30.980392%);fill-opacity:0.901961;stroke-width:0.708661;stroke-linecap:round;stroke-linejoin:round;stroke:rgb(18.431373%,30.980392%,30.980392%);stroke-opacity:0.901961;stroke-miterlimit:10;" d="M 634.21875 120.054688 C 634.21875 123.195312 631.671875 125.742188 628.53125 125.742188 C 625.386719 125.742188 622.839844 123.195312 622.839844 120.054688 C 622.839844 116.910156 625.386719 114.363281 628.53125 114.363281 C 631.671875 114.363281 634.21875 116.910156 634.21875 120.054688 "/>
<path style="fill-rule:nonzero;fill:rgb(18.431373%,30.980392%,30.980392%);fill-opacity:0.901961;stroke-width:0.708661;stroke-linecap:round;stroke-linejoin:round;stroke:rgb(18.431373%,30.980392%,30.980392%);stroke-opacity:0.901961;stroke-miterlimit:10;" d="M 542.910156 284.484375 C 542.910156 287.628906 540.363281 290.175781 537.222656 290.175781 C 534.078125 290.175781 531.53125 287.628906 531.53125 284.484375 C 531.53125 281.34375 534.078125 278.796875 537.222656 278.796875 C 540.363281 278.796875 542.910156 281.34375 542.910156 284.484375 "/>
<path style="fill-rule:nonzero;fill:rgb(18.431373%,30.980392%,30.980392%);fill-opacity:0.901961;stroke-width:0.708661;stroke-linecap:round;stroke-linejoin:round;stroke:rgb(18.431373%,30.980392%,30.980392%);stroke-opacity:0.901961;stroke-miterlimit:10;" d="M 406.773438 179.097656 C 406.773438 182.242188 404.226562 184.789062 401.085938 184.789062 C 397.945312 184.789062 395.398438 182.242188 395.398438 179.097656 C 395.398438 175.957031 397.945312 173.410156 401.085938 173.410156 C 404.226562 173.410156 406.773438 175.957031 406.773438 179.097656 "/>
<path style="fill-rule:nonzero;fill:rgb(18.431373%,30.980392%,30.980392%);fill-opacity:0.901961;stroke-width:0.708661;stroke-linecap:round;stroke-linejoin:round;stroke:rgb(18.431373%,30.980392%,30.980392%);stroke-opacity:0.901961;stroke-miterlimit:10;" d="M 334.429688 299.554688 C 334.429688 302.699219 331.882812 305.246094 328.742188 305.246094 C 325.597656 305.246094 323.050781 302.699219 323.050781 299.554688 C 323.050781 296.414062 325.597656 293.867188 328.742188 293.867188 C 331.882812 293.867188 334.429688 296.414062 334.429688 299.554688 "/>
<path style="fill-rule:nonzero;fill:rgb(18.431373%,30.980392%,30.980392%);fill-opacity:0.901961;stroke-width:0.708661;stroke-linecap:round;stroke-linejoin:round;stroke:rgb(18.431373%,30.980392%,30.980392%);stroke-opacity:0.901961;stroke-miterlimit:10;" d="M 409.867188 256.859375 C 409.867188 260.003906 407.320312 262.550781 404.175781 262.550781 C 401.035156 262.550781 398.488281 260.003906 398.488281 256.859375 C 398.488281 253.71875 401.035156 251.171875 404.175781 251.171875 C 407.320312 251.171875 409.867188 253.71875 409.867188 256.859375 "/>
<path style="fill-rule:nonzero;fill:rgb(18.431373%,30.980392%,30.980392%);fill-opacity:0.901961;stroke-width:0.708661;stroke-linecap:round;stroke-linejoin:round;stroke:rgb(18.431373%,30.980392%,30.980392%);stroke-opacity:0.901961;stroke-miterlimit:10;" d="M 491.699219 281.070312 C 491.699219 284.210938 489.152344 286.757812 486.007812 286.757812 C 482.867188 286.757812 480.320312 284.210938 480.320312 281.070312 C 480.320312 277.929688 482.867188 275.382812 486.007812 275.382812 C 489.152344 275.382812 491.699219 277.929688 491.699219 281.070312 "/>
<path style="fill-rule:nonzero;fill:rgb(18.431373%,30.980392%,30.980392%);fill-opacity:0.901961;stroke-width:0.708661;stroke-linecap:round;stroke-linejoin:round;stroke:rgb(18.431373%,30.980392%,30.980392%);stroke-opacity:0.901961;stroke-miterlimit:10;" d="M 471.777344 195.230469 C 471.777344 198.371094 469.230469 200.917969 466.085938 200.917969 C 462.945312 200.917969 460.398438 198.371094 460.398438 195.230469 C 460.398438 192.089844 462.945312 189.539062 466.085938 189.539062 C 469.230469 189.539062 471.777344 192.089844 471.777344 195.230469 "/>
<path style="fill-rule:nonzero;fill:rgb(18.431373%,30.980392%,30.980392%);fill-opacity:0.901961;stroke-width:0.708661;stroke-linecap:round;stroke-linejoin:round;stroke:rgb(18.431373%,30.980392%,30.980392%);stroke-opacity:0.901961;stroke-miterlimit:10;" d="M 254.183594 313.621094 C 254.183594 316.761719 251.636719 319.308594 248.496094 319.308594 C 245.351562 319.308594 242.804688 316.761719 242.804688 313.621094 C 242.804688 310.476562 245.351562 307.929688 248.496094 307.929688 C 251.636719 307.929688 254.183594 310.476562 254.183594 313.621094 "/>
<path style="fill-rule:nonzero;fill:rgb(18.431373%,30.980392%,30.980392%);fill-opacity:0.901961;stroke-width:0.708661;stroke-linecap:round;stroke-linejoin:round;stroke:rgb(18.431373%,30.980392%,30.980392%);stroke-opacity:0.901961;stroke-miterlimit:10;" d="M 275.863281 315.234375 C 275.863281 318.375 273.316406 320.921875 270.175781 320.921875 C 267.03125 320.921875 264.484375 318.375 264.484375 315.234375 C 264.484375 312.09375 267.03125 309.546875 270.175781 309.546875 C 273.316406 309.546875 275.863281 312.09375 275.863281 315.234375 "/>
<path style="fill-rule:nonzero;fill:rgb(18.431373%,30.980392%,30.980392%);fill-opacity:0.901961;stroke-width:0.708661;stroke-linecap:round;stroke-linejoin:round;stroke:rgb(18.431373%,30.980392%,30.980392%);stroke-opacity:0.901961;stroke-miterlimit:10;" d="M 305.441406 285.964844 C 305.441406 289.109375 302.894531 291.65625 299.753906 291.65625 C 296.609375 291.65625 294.0625 289.109375 294.0625 285.964844 C 294.0625 282.824219 296.609375 280.277344 299.753906 280.277344 C 302.894531 280.277344 305.441406 282.824219 305.441406 285.964844 "/>
<path style="fill-rule:nonzero;fill:rgb(18.431373%,30.980392%,30.980392%);fill-opacity:0.901961;stroke-width:0.708661;stroke-linecap:round;stroke-linejoin:round;stroke:rgb(18.431373%,30.980392%,30.980392%);stroke-opacity:0.901961;stroke-miterlimit:10;" d="M 185.75 241.800781 C 185.75 244.941406 183.203125 247.488281 180.0625 247.488281 C 176.917969 247.488281 174.371094 244.941406 174.371094 241.800781 C 174.371094 238.65625 176.917969 236.109375 180.0625 236.109375 C 183.203125 236.109375 185.75 238.65625 185.75 241.800781 "/>
<path style="fill-rule:nonzero;fill:rgb(18.431373%,30.980392%,30.980392%);fill-opacity:0.901961;stroke-width:0.708661;stroke-linecap:round;stroke-linejoin:round;stroke:rgb(18.431373%,30.980392%,30.980392%);stroke-opacity:0.901961;stroke-miterlimit:10;" d="M 459.0625 304.53125 C 459.0625 307.671875 456.515625 310.21875 453.371094 310.21875 C 450.230469 310.21875 447.683594 307.671875 447.683594 304.53125 C 447.683594 301.390625 450.230469 298.84375 453.371094 298.84375 C 456.515625 298.84375 459.0625 301.390625 459.0625 304.53125 "/>
<path style="fill-rule:nonzero;fill:rgb(18.431373%,30.980392%,30.980392%);fill-opacity:0.901961;stroke-width:0.708661;stroke-linecap:round;stroke-linejoin:round;stroke:rgb(18.431373%,30.980392%,30.980392%);stroke-opacity:0.901961;stroke-miterlimit:10;" d="M 405.992188 249.738281 C 405.992188 252.882812 403.445312 255.429688 400.304688 255.429688 C 397.160156 255.429688 394.613281 252.882812 394.613281 249.738281 C 394.613281 246.597656 397.160156 244.050781 400.304688 244.050781 C 403.445312 244.050781 405.992188 246.597656 405.992188 249.738281 "/>
<path style="fill-rule:nonzero;fill:rgb(18.431373%,30.980392%,30.980392%);fill-opacity:0.901961;stroke-width:0.708661;stroke-linecap:round;stroke-linejoin:round;stroke:rgb(18.431373%,30.980392%,30.980392%);stroke-opacity:0.901961;stroke-miterlimit:10;" d="M 595.757812 198.5 C 595.757812 201.640625 593.210938 204.1875 590.070312 204.1875 C 586.925781 204.1875 584.378906 201.640625 584.378906 198.5 C 584.378906 195.359375 586.925781 192.8125 590.070312 192.8125 C 593.210938 192.8125 595.757812 195.359375 595.757812 198.5 "/>
<path style="fill-rule:nonzero;fill:rgb(18.431373%,30.980392%,30.980392%);fill-opacity:0.901961;stroke-width:0.708661;stroke-linecap:round;stroke-linejoin:round;stroke:rgb(18.431373%,30.980392%,30.980392%);stroke-opacity:0.901961;stroke-miterlimit:10;" d="M 263.125 356.710938 C 263.125 359.855469 260.578125 362.402344 257.4375 362.402344 C 254.292969 362.402344 251.746094 359.855469 251.746094 356.710938 C 251.746094 353.570312 254.292969 351.023438 257.4375 351.023438 C 260.578125 351.023438 263.125 353.570312 263.125 356.710938 "/>
<path style="fill-rule:nonzero;fill:rgb(18.431373%,30.980392%,30.980392%);fill-opacity:0.901961;stroke-width:0.708661;stroke-linecap:round;stroke-linejoin:round;stroke:rgb(18.431373%,30.980392%,30.980392%);stroke-opacity:0.901961;stroke-miterlimit:10;" d="M 234.359375 334.878906 C 234.359375 338.023438 231.8125 340.570312 228.671875 340.570312 C 225.53125 340.570312 222.984375 338.023438 222.984375 334.878906 C 222.984375 331.738281 225.53125 329.191406 228.671875 329.191406 C 231.8125 329.191406 234.359375 331.738281 234.359375 334.878906 "/>
<path style="fill-rule:nonzero;fill:rgb(18.431373%,30.980392%,30.980392%);fill-opacity:0.901961;stroke-width:0.708661;stroke-linecap:round;stroke-linejoin:round;stroke:rgb(18.431373%,30.980392%,30.980392%);stroke-opacity:0.901961;stroke-miterlimit:10;" d="M 542.113281 117.542969 C 542.113281 120.683594 539.566406 123.230469 536.425781 123.230469 C 533.285156 123.230469 530.738281 120.683594 530.738281 117.542969 C 530.738281 114.402344 533.285156 111.855469 536.425781 111.855469 C 539.566406 111.855469 542.113281 114.402344 542.113281 117.542969 "/>
<path style="fill-rule:nonzero;fill:rgb(18.431373%,30.980392%,30.980392%);fill-opacity:0.901961;stroke-width:0.708661;stroke-linecap:round;stroke-linejoin:round;stroke:rgb(18.431373%,30.980392%,30.980392%);stroke-opacity:0.901961;stroke-miterlimit:10;" d="M 385.882812 281.226562 C 385.882812 284.371094 383.335938 286.917969 380.191406 286.917969 C 377.050781 286.917969 374.503906 284.371094 374.503906 281.226562 C 374.503906 278.085938 377.050781 275.539062 380.191406 275.539062 C 383.335938 275.539062 385.882812 278.085938 385.882812 281.226562 "/>
<path style="fill-rule:nonzero;fill:rgb(18.431373%,30.980392%,30.980392%);fill-opacity:0.901961;stroke-width:0.708661;stroke-linecap:round;stroke-linejoin:round;stroke:rgb(18.431373%,30.980392%,30.980392%);stroke-opacity:0.901961;stroke-miterlimit:10;" d="M 272.082031 280.679688 C 272.082031 283.820312 269.535156 286.367188 266.390625 286.367188 C 263.25 286.367188 260.703125 283.820312 260.703125 280.679688 C 260.703125 277.539062 263.25 274.992188 266.390625 274.992188 C 269.535156 274.992188 272.082031 277.539062 272.082031 280.679688 "/>
<path style="fill-rule:nonzero;fill:rgb(18.431373%,30.980392%,30.980392%);fill-opacity:0.901961;stroke-width:0.708661;stroke-linecap:round;stroke-linejoin:round;stroke:rgb(18.431373%,30.980392%,30.980392%);stroke-opacity:0.901961;stroke-miterlimit:10;" d="M 442.777344 302.0625 C 442.777344 305.203125 440.230469 307.75 437.085938 307.75 C 433.945312 307.75 431.398438 305.203125 431.398438 302.0625 C 431.398438 298.921875 433.945312 296.371094 437.085938 296.371094 C 440.230469 296.371094 442.777344 298.921875 442.777344 302.0625 "/>
<path style="fill-rule:nonzero;fill:rgb(18.431373%,30.980392%,30.980392%);fill-opacity:0.901961;stroke-width:0.708661;stroke-linecap:round;stroke-linejoin:round;stroke:rgb(18.431373%,30.980392%,30.980392%);stroke-opacity:0.901961;stroke-miterlimit:10;" d="M 452.542969 255.375 C 452.542969 258.515625 449.996094 261.0625 446.855469 261.0625 C 443.714844 261.0625 441.167969 258.515625 441.167969 255.375 C 441.167969 252.230469 443.714844 249.683594 446.855469 249.683594 C 449.996094 249.683594 452.542969 252.230469 452.542969 255.375 "/>
<path style="fill-rule:nonzero;fill:rgb(18.431373%,30.980392%,30.980392%);fill-opacity:0.901961;stroke-width:0.708661;stroke-linecap:round;stroke-linejoin:round;stroke:rgb(18.431373%,30.980392%,30.980392%);stroke-opacity:0.901961;stroke-miterlimit:10;" d="M 306.242188 284.78125 C 306.242188 287.925781 303.695312 290.472656 300.550781 290.472656 C 297.410156 290.472656 294.863281 287.925781 294.863281 284.78125 C 294.863281 281.640625 297.410156 279.09375 300.550781 279.09375 C 303.695312 279.09375 306.242188 281.640625 306.242188 284.78125 "/>
<path style="fill-rule:nonzero;fill:rgb(18.431373%,30.980392%,30.980392%);fill-opacity:0.901961;stroke-width:0.708661;stroke-linecap:round;stroke-linejoin:round;stroke:rgb(18.431373%,30.980392%,30.980392%);stroke-opacity:0.901961;stroke-miterlimit:10;" d="M 602.609375 20.167969 C 602.609375 23.308594 600.0625 25.855469 596.921875 25.855469 C 593.777344 25.855469 591.230469 23.308594 591.230469 20.167969 C 591.230469 17.023438 593.777344 14.476562 596.921875 14.476562 C 600.0625 14.476562 602.609375 17.023438 602.609375 20.167969 "/>
<path style="fill-rule:nonzero;fill:rgb(18.431373%,30.980392%,30.980392%);fill-opacity:0.901961;stroke-width:0.708661;stroke-linecap:round;stroke-linejoin:round;stroke:rgb(18.431373%,30.980392%,30.980392%);stroke-opacity:0.901961;stroke-miterlimit:10;" d="M 426.183594 214.199219 C 426.183594 217.339844 423.636719 219.890625 420.492188 219.890625 C 417.351562 219.890625 414.804688 217.339844 414.804688 214.199219 C 414.804688 211.058594 417.351562 208.511719 420.492188 208.511719 C 423.636719 208.511719 426.183594 211.058594 426.183594 214.199219 "/>
<path style="fill-rule:nonzero;fill:rgb(18.431373%,30.980392%,30.980392%);fill-opacity:0.901961;stroke-width:0.708661;stroke-linecap:round;stroke-linejoin:round;stroke:rgb(18.431373%,30.980392%,30.980392%);stroke-opacity:0.901961;stroke-miterlimit:10;" d="M 28.921875 423.492188 C 28.921875 426.636719 26.375 429.183594 23.234375 429.183594 C 20.089844 429.183594 17.542969 426.636719 17.542969 423.492188 C 17.542969 420.351562 20.089844 417.804688 23.234375 417.804688 C 26.375 417.804688 28.921875 420.351562 28.921875 423.492188 "/>
<path style="fill-rule:nonzero;fill:rgb(18.431373%,30.980392%,30.980392%);fill-opacity:0.901961;stroke-width:0.708661;stroke-linecap:round;stroke-linejoin:round;stroke:rgb(18.431373%,30.980392%,30.980392%);stroke-opacity:0.901961;stroke-miterlimit:10;" d="M 89.355469 349.429688 C 89.355469 352.574219 86.808594 355.121094 83.664062 355.121094 C 80.523438 355.121094 77.976562 352.574219 77.976562 349.429688 C 77.976562 346.289062 80.523438 343.742188 83.664062 343.742188 C 86.808594 343.742188 89.355469 346.289062 89.355469 349.429688 "/>
<path style="fill-rule:nonzero;fill:rgb(18.431373%,30.980392%,30.980392%);fill-opacity:0.901961;stroke-width:0.708661;stroke-linecap:round;stroke-linejoin:round;stroke:rgb(18.431373%,30.980392%,30.980392%);stroke-opacity:0.901961;stroke-miterlimit:10;" d="M 361.492188 182.644531 C 361.492188 185.785156 358.945312 188.332031 355.800781 188.332031 C 352.660156 188.332031 350.113281 185.785156 350.113281 182.644531 C 350.113281 179.5 352.660156 176.953125 355.800781 176.953125 C 358.945312 176.953125 361.492188 179.5 361.492188 182.644531 "/>
<path style="fill-rule:nonzero;fill:rgb(18.431373%,30.980392%,30.980392%);fill-opacity:0.901961;stroke-width:0.708661;stroke-linecap:round;stroke-linejoin:round;stroke:rgb(18.431373%,30.980392%,30.980392%);stroke-opacity:0.901961;stroke-miterlimit:10;" d="M 295.890625 327.847656 C 295.890625 330.988281 293.34375 333.535156 290.199219 333.535156 C 287.058594 333.535156 284.511719 330.988281 284.511719 327.847656 C 284.511719 324.703125 287.058594 322.15625 290.199219 322.15625 C 293.34375 322.15625 295.890625 324.703125 295.890625 327.847656 "/>
<path style="fill-rule:nonzero;fill:rgb(18.431373%,30.980392%,30.980392%);fill-opacity:0.901961;stroke-width:0.708661;stroke-linecap:round;stroke-linejoin:round;stroke:rgb(18.431373%,30.980392%,30.980392%);stroke-opacity:0.901961;stroke-miterlimit:10;" d="M 320.027344 237.898438 C 320.027344 241.039062 317.480469 243.589844 314.339844 243.589844 C 311.199219 243.589844 308.652344 241.039062 308.652344 237.898438 C 308.652344 234.757812 311.199219 232.210938 314.339844 232.210938 C 317.480469 232.210938 320.027344 234.757812 320.027344 237.898438 "/>
<path style="fill-rule:nonzero;fill:rgb(18.431373%,30.980392%,30.980392%);fill-opacity:0.901961;stroke-width:0.708661;stroke-linecap:round;stroke-linejoin:round;stroke:rgb(18.431373%,30.980392%,30.980392%);stroke-opacity:0.901961;stroke-miterlimit:10;" d="M 380.980469 209.246094 C 380.980469 212.386719 378.433594 214.933594 375.292969 214.933594 C 372.152344 214.933594 369.601562 212.386719 369.601562 209.246094 C 369.601562 206.105469 372.152344 203.558594 375.292969 203.558594 C 378.433594 203.558594 380.980469 206.105469 380.980469 209.246094 "/>
<path style="fill-rule:nonzero;fill:rgb(18.431373%,30.980392%,30.980392%);fill-opacity:0.901961;stroke-width:0.708661;stroke-linecap:round;stroke-linejoin:round;stroke:rgb(18.431373%,30.980392%,30.980392%);stroke-opacity:0.901961;stroke-miterlimit:10;" d="M 352.761719 277.082031 C 352.761719 280.226562 350.214844 282.773438 347.074219 282.773438 C 343.933594 282.773438 341.386719 280.226562 341.386719 277.082031 C 341.386719 273.941406 343.933594 271.394531 347.074219 271.394531 C 350.214844 271.394531 352.761719 273.941406 352.761719 277.082031 "/>
<path style="fill-rule:nonzero;fill:rgb(18.431373%,30.980392%,30.980392%);fill-opacity:0.901961;stroke-width:0.708661;stroke-linecap:round;stroke-linejoin:round;stroke:rgb(18.431373%,30.980392%,30.980392%);stroke-opacity:0.901961;stroke-miterlimit:10;" d="M 292.613281 236.203125 C 292.613281 239.34375 290.066406 241.890625 286.925781 241.890625 C 283.78125 241.890625 281.234375 239.34375 281.234375 236.203125 C 281.234375 233.0625 283.78125 230.515625 286.925781 230.515625 C 290.066406 230.515625 292.613281 233.0625 292.613281 236.203125 "/>
<path style="fill-rule:nonzero;fill:rgb(18.431373%,30.980392%,30.980392%);fill-opacity:0.901961;stroke-width:0.708661;stroke-linecap:round;stroke-linejoin:round;stroke:rgb(18.431373%,30.980392%,30.980392%);stroke-opacity:0.901961;stroke-miterlimit:10;" d="M 170.664062 251.347656 C 170.664062 254.488281 168.117188 257.035156 164.976562 257.035156 C 161.835938 257.035156 159.289062 254.488281 159.289062 251.347656 C 159.289062 248.203125 161.835938 245.65625 164.976562 245.65625 C 168.117188 245.65625 170.664062 248.203125 170.664062 251.347656 "/>
<path style="fill-rule:nonzero;fill:rgb(18.431373%,30.980392%,30.980392%);fill-opacity:0.901961;stroke-width:0.708661;stroke-linecap:round;stroke-linejoin:round;stroke:rgb(18.431373%,30.980392%,30.980392%);stroke-opacity:0.901961;stroke-miterlimit:10;" d="M 291.628906 381.070312 C 291.628906 384.210938 289.082031 386.757812 285.941406 386.757812 C 282.796875 386.757812 280.25 384.210938 280.25 381.070312 C 280.25 377.925781 282.796875 375.378906 285.941406 375.378906 C 289.082031 375.378906 291.628906 377.925781 291.628906 381.070312 "/>
<path style="fill-rule:nonzero;fill:rgb(18.431373%,30.980392%,30.980392%);fill-opacity:0.901961;stroke-width:0.708661;stroke-linecap:round;stroke-linejoin:round;stroke:rgb(18.431373%,30.980392%,30.980392%);stroke-opacity:0.901961;stroke-miterlimit:10;" d="M 654.753906 77.390625 C 654.753906 80.53125 652.207031 83.078125 649.0625 83.078125 C 645.921875 83.078125 643.375 80.53125 643.375 77.390625 C 643.375 74.246094 645.921875 71.699219 649.0625 71.699219 C 652.207031 71.699219 654.753906 74.246094 654.753906 77.390625 "/>
<path style="fill-rule:nonzero;fill:rgb(18.431373%,30.980392%,30.980392%);fill-opacity:0.901961;stroke-width:0.708661;stroke-linecap:round;stroke-linejoin:round;stroke:rgb(18.431373%,30.980392%,30.980392%);stroke-opacity:0.901961;stroke-miterlimit:10;" d="M 536.132812 162.519531 C 536.132812 165.660156 533.585938 168.207031 530.445312 168.207031 C 527.304688 168.207031 524.753906 165.660156 524.753906 162.519531 C 524.753906 159.378906 527.304688 156.832031 530.445312 156.832031 C 533.585938 156.832031 536.132812 159.378906 536.132812 162.519531 "/>
<path style="fill-rule:nonzero;fill:rgb(18.431373%,30.980392%,30.980392%);fill-opacity:0.901961;stroke-width:0.708661;stroke-linecap:round;stroke-linejoin:round;stroke:rgb(18.431373%,30.980392%,30.980392%);stroke-opacity:0.901961;stroke-miterlimit:10;" d="M 366.632812 176.773438 C 366.632812 179.914062 364.085938 182.460938 360.945312 182.460938 C 357.800781 182.460938 355.253906 179.914062 355.253906 176.773438 C 355.253906 173.628906 357.800781 171.082031 360.945312 171.082031 C 364.085938 171.082031 366.632812 173.628906 366.632812 176.773438 "/>
<path style="fill-rule:nonzero;fill:rgb(18.431373%,30.980392%,30.980392%);fill-opacity:0.901961;stroke-width:0.708661;stroke-linecap:round;stroke-linejoin:round;stroke:rgb(18.431373%,30.980392%,30.980392%);stroke-opacity:0.901961;stroke-miterlimit:10;" d="M 316.589844 197.765625 C 316.589844 200.90625 314.042969 203.453125 310.898438 203.453125 C 307.757812 203.453125 305.210938 200.90625 305.210938 197.765625 C 305.210938 194.621094 307.757812 192.074219 310.898438 192.074219 C 314.042969 192.074219 316.589844 194.621094 316.589844 197.765625 "/>
<path style="fill-rule:nonzero;fill:rgb(18.431373%,30.980392%,30.980392%);fill-opacity:0.901961;stroke-width:0.708661;stroke-linecap:round;stroke-linejoin:round;stroke:rgb(18.431373%,30.980392%,30.980392%);stroke-opacity:0.901961;stroke-miterlimit:10;" d="M 111.9375 378.027344 C 111.9375 381.171875 109.390625 383.71875 106.25 383.71875 C 103.105469 383.71875 100.558594 381.171875 100.558594 378.027344 C 100.558594 374.886719 103.105469 372.339844 106.25 372.339844 C 109.390625 372.339844 111.9375 374.886719 111.9375 378.027344 "/>
<path style="fill-rule:nonzero;fill:rgb(18.431373%,30.980392%,30.980392%);fill-opacity:0.901961;stroke-width:0.708661;stroke-linecap:round;stroke-linejoin:round;stroke:rgb(18.431373%,30.980392%,30.980392%);stroke-opacity:0.901961;stroke-miterlimit:10;" d="M 327.714844 221 C 327.714844 224.140625 325.167969 226.6875 322.023438 226.6875 C 318.882812 226.6875 316.335938 224.140625 316.335938 221 C 316.335938 217.855469 318.882812 215.308594 322.023438 215.308594 C 325.167969 215.308594 327.714844 217.855469 327.714844 221 "/>
<path style="fill-rule:nonzero;fill:rgb(18.431373%,30.980392%,30.980392%);fill-opacity:0.901961;stroke-width:0.708661;stroke-linecap:round;stroke-linejoin:round;stroke:rgb(18.431373%,30.980392%,30.980392%);stroke-opacity:0.901961;stroke-miterlimit:10;" d="M 408.886719 51.246094 C 408.886719 54.390625 406.339844 56.9375 403.199219 56.9375 C 400.054688 56.9375 397.507812 54.390625 397.507812 51.246094 C 397.507812 48.105469 400.054688 45.558594 403.199219 45.558594 C 406.339844 45.558594 408.886719 48.105469 408.886719 51.246094 "/>
<path style="fill-rule:nonzero;fill:rgb(18.431373%,30.980392%,30.980392%);fill-opacity:0.901961;stroke-width:0.708661;stroke-linecap:round;stroke-linejoin:round;stroke:rgb(18.431373%,30.980392%,30.980392%);stroke-opacity:0.901961;stroke-miterlimit:10;" d="M 163.164062 350.921875 C 163.164062 354.066406 160.617188 356.613281 157.476562 356.613281 C 154.335938 356.613281 151.789062 354.066406 151.789062 350.921875 C 151.789062 347.78125 154.335938 345.234375 157.476562 345.234375 C 160.617188 345.234375 163.164062 347.78125 163.164062 350.921875 "/>
<path style="fill-rule:nonzero;fill:rgb(18.431373%,30.980392%,30.980392%);fill-opacity:0.901961;stroke-width:0.708661;stroke-linecap:round;stroke-linejoin:round;stroke:rgb(18.431373%,30.980392%,30.980392%);stroke-opacity:0.901961;stroke-miterlimit:10;" d="M 467.929688 217.265625 C 467.929688 220.40625 465.382812 222.953125 462.238281 222.953125 C 459.097656 222.953125 456.550781 220.40625 456.550781 217.265625 C 456.550781 214.121094 459.097656 211.574219 462.238281 211.574219 C 465.382812 211.574219 467.929688 214.121094 467.929688 217.265625 "/>
<path style="fill-rule:nonzero;fill:rgb(18.431373%,30.980392%,30.980392%);fill-opacity:0.901961;stroke-width:0.708661;stroke-linecap:round;stroke-linejoin:round;stroke:rgb(18.431373%,30.980392%,30.980392%);stroke-opacity:0.901961;stroke-miterlimit:10;" d="M 508.269531 59.5 C 508.269531 62.640625 505.722656 65.1875 502.582031 65.1875 C 499.4375 65.1875 496.890625 62.640625 496.890625 59.5 C 496.890625 56.359375 499.4375 53.8125 502.582031 53.8125 C 505.722656 53.8125 508.269531 56.359375 508.269531 59.5 "/>
<path style="fill-rule:nonzero;fill:rgb(18.431373%,30.980392%,30.980392%);fill-opacity:0.901961;stroke-width:0.708661;stroke-linecap:round;stroke-linejoin:round;stroke:rgb(18.431373%,30.980392%,30.980392%);stroke-opacity:0.901961;stroke-miterlimit:10;" d="M 192.757812 344.597656 C 192.757812 347.738281 190.210938 350.285156 187.066406 350.285156 C 183.925781 350.285156 181.378906 347.738281 181.378906 344.597656 C 181.378906 341.457031 183.925781 338.90625 187.066406 338.90625 C 190.210938 338.90625 192.757812 341.457031 192.757812 344.597656 "/>
<path style="fill-rule:nonzero;fill:rgb(18.431373%,30.980392%,30.980392%);fill-opacity:0.901961;stroke-width:0.708661;stroke-linecap:round;stroke-linejoin:round;stroke:rgb(18.431373%,30.980392%,30.980392%);stroke-opacity:0.901961;stroke-miterlimit:10;" d="M 543.082031 112.59375 C 543.082031 115.734375 540.535156 118.285156 537.394531 118.285156 C 534.25 118.285156 531.703125 115.734375 531.703125 112.59375 C 531.703125 109.453125 534.25 106.90625 537.394531 106.90625 C 540.535156 106.90625 543.082031 109.453125 543.082031 112.59375 "/>
<path style="fill-rule:nonzero;fill:rgb(18.431373%,30.980392%,30.980392%);fill-opacity:0.901961;stroke-width:0.708661;stroke-linecap:round;stroke-linejoin:round;stroke:rgb(18.431373%,30.980392%,30.980392%);stroke-opacity:0.901961;stroke-miterlimit:10;" d="M 324.367188 266.75 C 324.367188 269.890625 321.820312 272.4375 318.679688 272.4375 C 315.535156 272.4375 312.988281 269.890625 312.988281 266.75 C 312.988281 263.609375 315.535156 261.058594 318.679688 261.058594 C 321.820312 261.058594 324.367188 263.609375 324.367188 266.75 "/>
<path style="fill-rule:nonzero;fill:rgb(18.431373%,30.980392%,30.980392%);fill-opacity:0.901961;stroke-width:0.708661;stroke-linecap:round;stroke-linejoin:round;stroke:rgb(18.431373%,30.980392%,30.980392%);stroke-opacity:0.901961;stroke-miterlimit:10;" d="M 315.65625 303.90625 C 315.65625 307.050781 313.109375 309.597656 309.964844 309.597656 C 306.824219 309.597656 304.277344 307.050781 304.277344 303.90625 C 304.277344 300.765625 306.824219 298.21875 309.964844 298.21875 C 313.109375 298.21875 315.65625 300.765625 315.65625 303.90625 "/>
<path style="fill-rule:nonzero;fill:rgb(18.431373%,30.980392%,30.980392%);fill-opacity:0.901961;stroke-width:0.708661;stroke-linecap:round;stroke-linejoin:round;stroke:rgb(18.431373%,30.980392%,30.980392%);stroke-opacity:0.901961;stroke-miterlimit:10;" d="M 432.015625 334.867188 C 432.015625 338.011719 429.46875 340.558594 426.324219 340.558594 C 423.183594 340.558594 420.636719 338.011719 420.636719 334.867188 C 420.636719 331.726562 423.183594 329.179688 426.324219 329.179688 C 429.46875 329.179688 432.015625 331.726562 432.015625 334.867188 "/>
<path style="fill-rule:nonzero;fill:rgb(18.431373%,30.980392%,30.980392%);fill-opacity:0.901961;stroke-width:0.708661;stroke-linecap:round;stroke-linejoin:round;stroke:rgb(18.431373%,30.980392%,30.980392%);stroke-opacity:0.901961;stroke-miterlimit:10;" d="M 442.113281 188.542969 C 442.113281 191.6875 439.566406 194.234375 436.421875 194.234375 C 433.28125 194.234375 430.734375 191.6875 430.734375 188.542969 C 430.734375 185.402344 433.28125 182.855469 436.421875 182.855469 C 439.566406 182.855469 442.113281 185.402344 442.113281 188.542969 "/>
<path style="fill-rule:nonzero;fill:rgb(18.431373%,30.980392%,30.980392%);fill-opacity:0.901961;stroke-width:0.708661;stroke-linecap:round;stroke-linejoin:round;stroke:rgb(18.431373%,30.980392%,30.980392%);stroke-opacity:0.901961;stroke-miterlimit:10;" d="M 288.445312 178.476562 C 288.445312 181.621094 285.898438 184.167969 282.753906 184.167969 C 279.613281 184.167969 277.066406 181.621094 277.066406 178.476562 C 277.066406 175.335938 279.613281 172.789062 282.753906 172.789062 C 285.898438 172.789062 288.445312 175.335938 288.445312 178.476562 "/>
<path style="fill-rule:nonzero;fill:rgb(18.431373%,30.980392%,30.980392%);fill-opacity:0.901961;stroke-width:0.708661;stroke-linecap:round;stroke-linejoin:round;stroke:rgb(18.431373%,30.980392%,30.980392%);stroke-opacity:0.901961;stroke-miterlimit:10;" d="M 189.398438 268.292969 C 189.398438 271.433594 186.851562 273.980469 183.710938 273.980469 C 180.570312 273.980469 178.023438 271.433594 178.023438 268.292969 C 178.023438 265.148438 180.570312 262.601562 183.710938 262.601562 C 186.851562 262.601562 189.398438 265.148438 189.398438 268.292969 "/>
<path style="fill-rule:nonzero;fill:rgb(18.431373%,30.980392%,30.980392%);fill-opacity:0.901961;stroke-width:0.708661;stroke-linecap:round;stroke-linejoin:round;stroke:rgb(18.431373%,30.980392%,30.980392%);stroke-opacity:0.901961;stroke-miterlimit:10;" d="M 455.753906 274.019531 C 455.753906 277.164062 453.207031 279.710938 450.066406 279.710938 C 446.925781 279.710938 444.375 277.164062 444.375 274.019531 C 444.375 270.878906 446.925781 268.332031 450.066406 268.332031 C 453.207031 268.332031 455.753906 270.878906 455.753906 274.019531 "/>
<path style="fill-rule:nonzero;fill:rgb(18.431373%,30.980392%,30.980392%);fill-opacity:0.901961;stroke-width:0.708661;stroke-linecap:round;stroke-linejoin:round;stroke:rgb(18.431373%,30.980392%,30.980392%);stroke-opacity:0.901961;stroke-miterlimit:10;" d="M 155.351562 342.207031 C 155.351562 345.347656 152.804688 347.894531 149.664062 347.894531 C 146.523438 347.894531 143.976562 345.347656 143.976562 342.207031 C 143.976562 339.0625 146.523438 336.515625 149.664062 336.515625 C 152.804688 336.515625 155.351562 339.0625 155.351562 342.207031 "/>
<path style="fill-rule:nonzero;fill:rgb(18.431373%,30.980392%,30.980392%);fill-opacity:0.901961;stroke-width:0.708661;stroke-linecap:round;stroke-linejoin:round;stroke:rgb(18.431373%,30.980392%,30.980392%);stroke-opacity:0.901961;stroke-miterlimit:10;" d="M 38.25 329.128906 C 38.25 332.273438 35.703125 334.820312 32.5625 334.820312 C 29.417969 334.820312 26.871094 332.273438 26.871094 329.128906 C 26.871094 325.988281 29.417969 323.441406 32.5625 323.441406 C 35.703125 323.441406 38.25 325.988281 38.25 329.128906 "/>
<path style="fill-rule:nonzero;fill:rgb(18.431373%,30.980392%,30.980392%);fill-opacity:0.901961;stroke-width:0.708661;stroke-linecap:round;stroke-linejoin:round;stroke:rgb(18.431373%,30.980392%,30.980392%);stroke-opacity:0.901961;stroke-miterlimit:10;" d="M 478.535156 112.195312 C 478.535156 115.335938 475.988281 117.882812 472.847656 117.882812 C 469.703125 117.882812 467.15625 115.335938 467.15625 112.195312 C 467.15625 109.054688 469.703125 106.503906 472.847656 106.503906 C 475.988281 106.503906 478.535156 109.054688 478.535156 112.195312 "/>
<path style="fill-rule:nonzero;fill:rgb(18.431373%,30.980392%,30.980392%);fill-opacity:0.901961;stroke-width:0.708661;stroke-linecap:round;stroke-linejoin:round;stroke:rgb(18.431373%,30.980392%,30.980392%);stroke-opacity:0.901961;stroke-miterlimit:10;" d="M 490.179688 255.507812 C 490.179688 258.648438 487.632812 261.195312 484.488281 261.195312 C 481.347656 261.195312 478.800781 258.648438 478.800781 255.507812 C 478.800781 252.363281 481.347656 249.816406 484.488281 249.816406 C 487.632812 249.816406 490.179688 252.363281 490.179688 255.507812 "/>
<path style="fill-rule:nonzero;fill:rgb(18.431373%,30.980392%,30.980392%);fill-opacity:0.901961;stroke-width:0.708661;stroke-linecap:round;stroke-linejoin:round;stroke:rgb(18.431373%,30.980392%,30.980392%);stroke-opacity:0.901961;stroke-miterlimit:10;" d="M 466.675781 221.582031 C 466.675781 224.726562 464.128906 227.273438 460.988281 227.273438 C 457.84375 227.273438 455.296875 224.726562 455.296875 221.582031 C 455.296875 218.441406 457.84375 215.894531 460.988281 215.894531 C 464.128906 215.894531 466.675781 218.441406 466.675781 221.582031 "/>
<path style="fill-rule:nonzero;fill:rgb(18.431373%,30.980392%,30.980392%);fill-opacity:0.901961;stroke-width:0.708661;stroke-linecap:round;stroke-linejoin:round;stroke:rgb(18.431373%,30.980392%,30.980392%);stroke-opacity:0.901961;stroke-miterlimit:10;" d="M 42.15625 223.574219 C 42.15625 226.714844 39.609375 229.265625 36.464844 229.265625 C 33.324219 229.265625 30.777344 226.714844 30.777344 223.574219 C 30.777344 220.433594 33.324219 217.886719 36.464844 217.886719 C 39.609375 217.886719 42.15625 220.433594 42.15625 223.574219 "/>
<path style="fill-rule:nonzero;fill:rgb(18.431373%,30.980392%,30.980392%);fill-opacity:0.901961;stroke-width:0.708661;stroke-linecap:round;stroke-linejoin:round;stroke:rgb(18.431373%,30.980392%,30.980392%);stroke-opacity:0.901961;stroke-miterlimit:10;" d="M 342.5 309.023438 C 342.5 312.167969 339.953125 314.714844 336.8125 314.714844 C 333.667969 314.714844 331.121094 312.167969 331.121094 309.023438 C 331.121094 305.882812 333.667969 303.335938 336.8125 303.335938 C 339.953125 303.335938 342.5 305.882812 342.5 309.023438 "/>
<path style="fill-rule:nonzero;fill:rgb(18.431373%,30.980392%,30.980392%);fill-opacity:0.901961;stroke-width:0.708661;stroke-linecap:round;stroke-linejoin:round;stroke:rgb(18.431373%,30.980392%,30.980392%);stroke-opacity:0.901961;stroke-miterlimit:10;" d="M 343.199219 298.277344 C 343.199219 301.421875 340.652344 303.96875 337.507812 303.96875 C 334.367188 303.96875 331.820312 301.421875 331.820312 298.277344 C 331.820312 295.136719 334.367188 292.589844 337.507812 292.589844 C 340.652344 292.589844 343.199219 295.136719 343.199219 298.277344 "/>
<path style="fill-rule:nonzero;fill:rgb(18.431373%,30.980392%,30.980392%);fill-opacity:0.901961;stroke-width:0.708661;stroke-linecap:round;stroke-linejoin:round;stroke:rgb(18.431373%,30.980392%,30.980392%);stroke-opacity:0.901961;stroke-miterlimit:10;" d="M 563.445312 252.835938 C 563.445312 255.980469 560.898438 258.527344 557.753906 258.527344 C 554.613281 258.527344 552.066406 255.980469 552.066406 252.835938 C 552.066406 249.695312 554.613281 247.148438 557.753906 247.148438 C 560.898438 247.148438 563.445312 249.695312 563.445312 252.835938 "/>
<path style="fill-rule:nonzero;fill:rgb(18.431373%,30.980392%,30.980392%);fill-opacity:0.901961;stroke-width:0.708661;stroke-linecap:round;stroke-linejoin:round;stroke:rgb(18.431373%,30.980392%,30.980392%);stroke-opacity:0.901961;stroke-miterlimit:10;" d="M 360.289062 154.5 C 360.289062 157.640625 357.742188 160.1875 354.597656 160.1875 C 351.457031 160.1875 348.910156 157.640625 348.910156 154.5 C 348.910156 151.355469 351.457031 148.808594 354.597656 148.808594 C 357.742188 148.808594 360.289062 151.355469 360.289062 154.5 "/>
<path style="fill-rule:nonzero;fill:rgb(18.431373%,30.980392%,30.980392%);fill-opacity:0.901961;stroke-width:0.708661;stroke-linecap:round;stroke-linejoin:round;stroke:rgb(18.431373%,30.980392%,30.980392%);stroke-opacity:0.901961;stroke-miterlimit:10;" d="M 166.960938 243.136719 C 166.960938 246.277344 164.414062 248.824219 161.273438 248.824219 C 158.128906 248.824219 155.582031 246.277344 155.582031 243.136719 C 155.582031 239.992188 158.128906 237.445312 161.273438 237.445312 C 164.414062 237.445312 166.960938 239.992188 166.960938 243.136719 "/>
<path style="fill:none;stroke-width:4.267913;stroke-linecap:butt;stroke-linejoin:round;stroke:rgb(100%,64.705882%,0%);stroke-opacity:0.901961;stroke-miterlimit:10;" d="M 0 215.34375 L 756 116.621094 "/>
</g>
</svg>
